<svg width="66" height="60" viewBox="0 0 66 60" fill="none" xmlns="http://www.w3.org/2000/svg">
<path d="M31.5 60.0011C14.9315 60.0011 1.5 46.5696 1.5 30.0011C1.5 13.4326 14.9315 0.00109863 31.5 0.00109863C48.0685 0.00109863 61.5 13.4326 61.5 30.0011C61.5 46.5696 48.0685 60.0011 31.5 60.0011Z" fill="#FFEE58"/>
<g filter="url(#filter0_f_297_4997)">
<path d="M48.8327 35.9992C45.8872 35.9992 43.4993 33.6114 43.4993 30.6659C43.4993 27.7203 45.8872 25.3325 48.8327 25.3325C51.7782 25.3325 54.166 27.7203 54.166 30.6659C54.166 33.6114 51.7782 35.9992 48.8327 35.9992Z" fill="#F55065"/>
</g>
<g filter="url(#filter1_f_297_4997)">
<path d="M17.4987 27.3324C14.5532 27.3324 12.1654 24.9446 12.1654 21.9991C12.1654 19.0536 14.5532 16.6658 17.4987 16.6658C20.4442 16.6658 22.832 19.0536 22.832 21.9991C22.832 24.9446 20.4442 27.3324 17.4987 27.3324Z" fill="#F55065"/>
</g>
<path fill-rule="evenodd" clip-rule="evenodd" d="M38.9968 19.1274C40.3621 14.9253 44.8754 12.6257 49.0774 13.991C53.2794 15.3564 55.579 19.8696 54.2137 24.0716C53.9862 24.772 53.234 25.1552 52.5336 24.9277C51.8333 24.7001 51.45 23.9479 51.6776 23.2476C52.5878 20.4462 51.0547 17.4374 48.2534 16.5272C45.452 15.617 42.4432 17.15 41.533 19.9514C41.3054 20.6517 40.5532 21.035 39.8529 20.8075C39.1525 20.5799 38.7693 19.8277 38.9968 19.1274ZM17.6635 12.4607C19.0288 8.25866 23.542 5.95905 27.7441 7.32437C31.9461 8.68969 34.2457 13.2029 32.8804 17.405C32.6528 18.1053 31.9006 18.4886 31.2003 18.261C30.4999 18.0335 30.1167 17.2813 30.3442 16.5809C31.2544 13.7796 29.7214 10.7707 26.92 9.86052C24.1187 8.95031 21.1098 10.4834 20.1996 13.2847C19.9721 13.9851 19.2199 14.3683 18.5195 14.1408C17.8192 13.9132 17.4359 13.161 17.6635 12.4607ZM45.3584 31.9288C44.5826 33.4804 40.0868 35.343 36.0504 35.4982C30.2632 35.7208 25.149 32.9778 21.6642 26.6418C21.3093 25.9965 21.5447 25.1858 22.1899 24.8309C22.8352 24.476 23.6459 24.7114 24.0008 25.3566C26.9876 30.7872 31.147 33.0182 35.9479 32.8335C37.7411 32.7646 39.526 32.3454 41.0722 31.7049C41.6923 31.448 42.2355 31.1693 42.6389 30.9106C42.8045 30.8044 42.935 30.7087 43.02 30.6345C43.0363 30.6203 43.0246 30.6336 42.9733 30.7363C43.3026 30.0776 44.1035 29.8106 44.7621 30.14C45.4208 30.4693 45.6877 31.2702 45.3584 31.9288Z" fill="black"/>
<defs>
<filter id="filter0_f_297_4997" x="31.7353" y="13.5678" width="34.1954" height="34.196" filterUnits="userSpaceOnUse" color-interpolation-filters="sRGB">
<feFlood flood-opacity="0" result="BackgroundImageFix"/>
<feBlend mode="normal" in="SourceGraphic" in2="BackgroundImageFix" result="shape"/>
<feGaussianBlur stdDeviation="5.88235" result="effect1_foregroundBlur_297_4997"/>
</filter>
<filter id="filter1_f_297_4997" x="0.40131" y="4.90107" width="34.1954" height="34.196" filterUnits="userSpaceOnUse" color-interpolation-filters="sRGB">
<feFlood flood-opacity="0" result="BackgroundImageFix"/>
<feBlend mode="normal" in="SourceGraphic" in2="BackgroundImageFix" result="shape"/>
<feGaussianBlur stdDeviation="5.88235" result="effect1_foregroundBlur_297_4997"/>
</filter>
</defs>
</svg>
