<svg width="19" height="18" viewBox="0 0 19 18" fill="none" xmlns="http://www.w3.org/2000/svg">
<path d="M13.9392 10.7401C13.7449 10.9284 13.6557 11.2006 13.6999 11.4676L14.3667 15.1576C14.4229 15.4704 14.2909 15.7869 14.0292 15.9676C13.7727 16.1551 13.4314 16.1776 13.1517 16.0276L9.82991 14.2951C9.71441 14.2336 9.58616 14.2006 9.45491 14.1969H9.25166C9.18116 14.2074 9.11216 14.2299 9.04916 14.2644L5.72666 16.0051C5.56241 16.0876 5.37641 16.1169 5.19416 16.0876C4.75016 16.0036 4.45391 15.5806 4.52666 15.1344L5.19416 11.4444C5.23841 11.1751 5.14916 10.9014 4.95491 10.7101L2.24666 8.08512C2.02016 7.86537 1.94141 7.53537 2.04491 7.23762C2.14541 6.94062 2.40191 6.72387 2.71166 6.67512L6.43916 6.13437C6.72266 6.10512 6.97166 5.93262 7.09916 5.67762L8.74166 2.31012C8.78066 2.23512 8.83091 2.16612 8.89166 2.10762L8.95916 2.05512C8.99441 2.01612 9.03491 1.98387 9.07991 1.95762L9.16166 1.92762L9.28916 1.87512H9.60491C9.88691 1.90437 10.1352 2.07312 10.2649 2.32512L11.9292 5.67762C12.0492 5.92287 12.2824 6.09312 12.5517 6.13437L16.2792 6.67512C16.5942 6.72012 16.8574 6.93762 16.9617 7.23762C17.0599 7.53837 16.9752 7.86837 16.7442 8.08512L13.9392 10.7401Z" fill="#FFDC27"/>
</svg>
