<svg width="40" height="40" viewBox="0 0 40 40" fill="none" xmlns="http://www.w3.org/2000/svg">
<path opacity="0.1" fill-rule="evenodd" clip-rule="evenodd" d="M0 20C0 8.95431 8.95431 0 20 0C31.0457 0 40 8.95431 40 20C40 31.0457 31.0457 40 20 40C8.95431 40 0 31.0457 0 20Z" fill="white"/>
<path d="M28.3327 19.9998C28.3327 15.3998 24.5993 11.6665 19.9993 11.6665C15.3993 11.6665 11.666 15.3998 11.666 19.9998C11.666 24.0332 14.5327 27.3915 18.3327 28.1665V22.4998H16.666V19.9998H18.3327V17.9165C18.3327 16.3082 19.641 14.9998 21.2493 14.9998H23.3327V17.4998H21.666C21.2077 17.4998 20.8327 17.8748 20.8327 18.3332V19.9998H23.3327V22.4998H20.8327V28.2915C25.041 27.8748 28.3327 24.3248 28.3327 19.9998Z" fill="white"/>
</svg>
