<svg width="85" height="77" viewBox="0 0 85 77" fill="none" xmlns="http://www.w3.org/2000/svg">
<g id="Group 1321314381">
<path id="Vector" d="M58.2638 56.4941C57.8454 59.4847 56.8756 64.3082 54.7457 66.4498C51.9312 69.286 43.5447 72.9711 32.0586 75.3828C28.9385 76.0183 25.6986 75.5769 22.8544 74.1288C19.4949 72.438 16.2599 70.5036 13.1748 68.3406C22.1688 69.3926 31.2799 68.572 39.9506 65.9289C46.4984 63.7619 52.676 60.5793 58.2638 56.4941Z" fill="white"/>
<path id="Vector_2" d="M24.7569 71.6974C26.15 71.8839 27.5546 71.9677 28.9596 71.9482C30.686 71.8615 32.3965 71.5701 34.0561 71.08C37.3651 70.3854 40.5219 69.5751 43.4314 68.649C47.4531 67.5161 51.2951 65.8075 54.8416 63.5747C54.5525 64.2263 54.1607 64.8259 53.6815 65.3497C51.7799 67.2791 47.1017 69.5172 41.1494 71.4273C38.2208 72.3534 35.064 73.1637 31.7741 73.8583C28.9873 74.5099 26.0666 74.2115 23.4637 73.0094C22.0633 72.289 20.7215 71.4567 19.4512 70.5205C21.3529 70.9256 22.1135 71.2729 23.2545 71.4852C23.6729 71.5623 24.3195 71.5623 24.7569 71.6974Z" fill="#FF611D"/>
<path id="Vector_3" d="M66.9923 51.3425C66.9923 51.3425 72.3171 48.487 78.7448 44.2424C82.2058 41.9464 84.697 39.6311 84.1075 37.914C83.4419 35.7724 78.5736 37.586 73.2108 40.3064C69.2925 42.3369 65.6491 44.8725 62.3712 47.8503C53.8031 47.4756 45.2339 48.5648 37.0217 51.0724C27.1203 54.3551 17.9833 59.6533 10.1699 66.6426C20.5383 67.8635 31.0434 66.9113 41.0343 63.845C48.5713 61.3709 55.676 57.705 62.086 52.9825C61.6105 56.4361 60.4886 61.9734 58.0544 64.4238C54.8025 67.7037 45.161 71.9484 31.9442 74.7074C28.3575 75.4511 24.6286 74.9553 21.3518 73.299C17.4873 71.3493 13.7634 69.125 10.208 66.6426C12.9814 69.064 15.9452 71.2514 19.0698 73.1832C23.2474 75.7518 28.1747 76.768 33.0092 76.058C36.7146 75.494 40.3707 74.636 43.9439 73.4919C49.6453 71.6307 55.1046 69.0783 60.2033 65.8901C63.143 61.3968 65.4295 56.4973 66.9923 51.3425ZM59.1193 51.0531C59.7849 53.1947 51.3414 57.7867 40.2356 61.3175C29.1297 64.8482 19.6213 65.9673 18.9557 63.845C18.2901 61.7226 26.3913 55.9152 37.4781 52.3844C48.565 48.8536 58.4538 48.8922 59.1193 51.0531Z" fill="white"/>
<path id="Vector_4" d="M8.61151 36.4665L9.14398 36.9489C8.68757 36.3122 9.01086 35.8877 9.42923 35.4247C9.8476 34.9616 10.304 34.3442 10.8365 33.7075L12.0726 35.0581H12.1677L11.1598 33.3602C11.8444 32.627 12.51 31.9132 13.1946 31.2186C13.4798 30.9099 13.8031 30.6398 14.1644 30.3118L15.7809 32.0482H15.914L14.792 30.1188C15.2501 29.7889 15.8034 29.6231 16.3647 29.6475C16.9259 29.672 17.4632 29.8853 17.8917 30.2539C18.384 30.5983 18.7572 31.0909 18.9586 31.6621C19.1599 32.2334 19.1792 32.8544 19.0137 33.4374L18.5193 32.9743C18.9947 33.9197 18.7475 34.4021 17.3022 35.4247L16.2943 34.267L16.1612 34.3828L16.9599 35.8105C15.7428 36.4086 14.5828 36.9875 13.3847 37.547C13.2897 37.547 13.0424 37.547 12.9474 37.3733C12.773 37.1547 12.6261 36.9149 12.51 36.6595L12.2627 36.891L12.6811 37.8557L4.82715 41.2707L8.61151 36.4665ZM14.7159 34.2863L14.8681 34.1513C14.7921 33.7071 14.5978 33.2925 14.3061 32.9524C14.0145 32.6123 13.6367 32.3596 13.2136 32.2219L14.7159 34.2863Z" fill="white"/>
<path id="Vector_5" d="M37.7636 39.9784C38.225 40.0524 38.6599 40.2457 39.0263 40.5397C39.3927 40.8337 39.6782 41.2185 39.8555 41.657C40.0831 42.1486 40.1559 42.6994 40.0641 43.2345C39.9722 43.7696 39.7201 44.263 39.342 44.6475C38.9717 45.0299 38.524 45.3261 38.0298 45.5158C36.1501 46.0711 34.3713 46.9311 32.7622 48.0626C32.5074 48.2983 32.1835 48.4429 31.8401 48.4742C31.4967 48.5056 31.1526 48.422 30.8605 48.2362C30.683 48.132 30.5287 47.9916 30.4074 47.8238C30.2861 47.6561 30.2004 47.4646 30.1557 47.2615C30.1111 47.0585 30.1084 46.8482 30.1479 46.644C30.1873 46.4399 30.2681 46.2462 30.3851 46.0753C30.7643 45.4882 31.2479 44.9778 31.8113 44.5704C33.1621 43.7137 34.3425 42.6077 35.2914 41.3097C35.5573 40.8923 35.9241 40.5508 36.3568 40.3178C36.7895 40.0848 37.2738 39.968 37.7636 39.9784Z" fill="#FF0F0F"/>
<path id="Vector_6" d="M18.5758 42.2352C19.1654 43.1806 20.1542 43.0262 20.991 43.2577C20.991 43.2577 21.3713 42.8912 21.3713 42.6982C21.3713 42.1194 21.2002 41.5406 21.1051 40.8653L22.094 40.3444C22.5524 41.2219 22.7748 42.2064 22.7389 43.1989C22.7031 44.1914 22.4101 45.1568 21.8896 45.9978C21.369 46.8389 20.6393 47.526 19.7738 47.99C18.9083 48.454 17.9376 48.6784 16.9594 48.6407C15.9839 48.6064 15.0353 48.3072 14.2125 47.7745C13.3897 47.2417 12.7228 46.4948 12.2812 45.6116L13.4413 44.9942C13.7265 45.4187 13.9738 45.8431 14.259 46.2097C14.5443 46.5763 14.9246 46.7306 15.2289 46.2097C15.2879 46.1117 15.3581 46.021 15.4381 45.9396C15.7756 45.6948 16.006 45.3263 16.0806 44.9122C16.1551 44.4981 16.0679 44.0708 15.8374 43.7208L18.5758 42.2352ZM19.9641 44.3961C19.5077 44.1838 19.0703 43.7208 18.3286 44.0295C17.587 44.3382 16.8643 44.9363 16.9594 45.9589C16.9862 46.1444 16.9862 46.3329 16.9594 46.5184C16.8643 47.0779 17.1496 47.3095 17.625 47.1165C18.5214 46.7823 19.3817 46.3556 20.1923 45.8431C21.01 45.2836 20.9339 45.0135 19.9641 44.3961Z" fill="white"/>
<path id="Vector_7" d="M19.4508 26.4721L18.9183 26.3178L18.595 26.1827C18.6952 25.831 18.7527 25.4682 18.7661 25.1023C18.7661 24.9479 18.5189 24.6778 18.3858 24.6971C17.7202 24.6971 16.9786 24.6971 16.7504 25.4882L14.6395 24.8708C14.8867 24.0797 14.3162 23.6359 14.0309 23.0957C13.9509 23.0564 13.8631 23.036 13.7742 23.036C13.6853 23.036 13.5975 23.0564 13.5175 23.0957C13.2284 23.4175 12.9615 23.7592 12.7188 24.1183L12.0342 23.8675C12.2027 23.3734 12.4656 22.9179 12.8077 22.5268C13.1498 22.1358 13.5644 21.817 14.028 21.5886C14.4915 21.3601 14.9949 21.2266 15.5093 21.1955C16.0237 21.1644 16.5391 21.2365 17.0261 21.4075C17.5131 21.5785 17.9621 21.8452 18.3475 22.1923C18.7329 22.5394 19.0471 22.9601 19.2723 23.4303C19.4974 23.9006 19.6291 24.4113 19.6597 24.9332C19.6903 25.4552 19.6193 25.9781 19.4508 26.4721ZM16.0848 24.2341C16.4223 24.2746 16.7645 24.2226 17.0755 24.0835C17.3865 23.9444 17.6551 23.7232 17.8533 23.443C17.8774 23.3733 17.8812 23.2981 17.8643 23.2263C17.8475 23.1545 17.8106 23.0891 17.7583 23.0378C17.0877 22.4594 16.2214 22.1688 15.3431 22.2275C15.2657 22.2471 15.1942 22.2855 15.1346 22.3392C15.075 22.393 15.0291 22.4605 15.0008 22.5362C14.9684 22.9014 15.0575 23.2671 15.254 23.5749C15.4505 23.8827 15.743 24.1147 16.0848 24.2341Z" fill="white"/>
<path id="Vector_8" d="M11.8431 8.72234C11.8431 8.93457 11.748 9.10821 11.691 9.28186C11.6339 9.4555 11.691 9.49409 11.5579 9.60985C11.2097 9.51146 10.8531 9.44686 10.4929 9.41692C10.3408 9.41692 10.0746 9.68703 10.0936 9.82209C10.0936 10.4781 10.0936 11.2498 10.8923 11.4621L10.1887 13.6809C9.40897 13.4107 8.97158 14.0089 8.43911 14.2983C8.43911 14.2983 8.43911 14.7034 8.43911 14.8192C8.76012 15.1079 9.0966 15.3785 9.447 15.6295L9.19978 16.3241C8.70781 16.148 8.25484 15.8753 7.86673 15.5216C7.47863 15.1679 7.16299 14.7402 6.93784 14.2627C6.71269 13.7852 6.58244 13.2674 6.55452 12.7389C6.5266 12.2104 6.60157 11.6814 6.77513 11.1823C6.9487 10.6832 7.21746 10.2236 7.56608 9.82984C7.91471 9.43608 8.33636 9.11584 8.80697 8.88741C9.27757 8.65899 9.78792 8.52684 10.3089 8.49851C10.8298 8.47019 11.3512 8.54624 11.8431 8.72234ZM9.5611 12.1566C9.60463 11.8111 9.55513 11.46 9.41785 11.1407C9.28058 10.8214 9.06065 10.5457 8.78141 10.343C8.7106 10.3272 8.63704 10.3295 8.56733 10.3497C8.49762 10.3699 8.43395 10.4074 8.38206 10.4588C7.81489 11.1332 7.52847 12.005 7.58335 12.8898C7.6027 12.9683 7.64048 13.0409 7.69346 13.1014C7.74644 13.1618 7.81306 13.2084 7.88762 13.2371C8.24628 13.2783 8.60802 13.1935 8.91255 12.9969C9.21707 12.8003 9.44597 12.5037 9.5611 12.1566Z" fill="white"/>
<path id="Vector_9" d="M27.323 38.3958C26.5629 38.3948 25.8205 38.1628 25.1916 37.7296C24.5627 37.2965 24.0761 36.682 23.7947 35.9656C23.5133 35.2492 23.4499 34.4637 23.6127 33.7104C23.7755 32.9571 24.1571 32.2706 24.7082 31.7394C25.2593 31.2082 25.9547 30.8568 26.7045 30.7304C27.4544 30.604 28.2244 30.7085 28.9151 31.0304C29.6059 31.3522 30.1858 31.8767 30.5799 32.5361C30.9741 33.1956 31.1644 33.9597 31.1264 34.7299C31.0776 35.7195 30.6554 36.6522 29.9474 37.3346C29.2393 38.0171 28.2996 38.397 27.323 38.3958ZM27.323 31.9902C26.8069 31.9902 26.3025 32.1457 25.8736 32.4371C25.4448 32.7284 25.1109 33.1423 24.9143 33.6264C24.7177 34.1106 24.6672 34.643 24.7693 35.1563C24.8713 35.6695 25.1214 36.1405 25.4876 36.5094C25.8539 36.8783 26.3199 37.1285 26.8265 37.2283C27.3331 37.3281 27.8576 37.273 28.3333 37.0699C28.809 36.8669 29.2146 36.5251 29.4985 36.0879C29.7825 35.6507 29.9321 35.1378 29.9283 34.6142C29.9188 33.9279 29.6485 33.2718 29.1737 32.7829C28.6989 32.294 28.0563 32.01 27.3801 31.9902H27.323Z" fill="white"/>
<path id="Vector_10" d="M23.6534 15.6095C24.2807 15.6095 24.8939 15.798 25.4158 16.1512C25.9376 16.5044 26.3446 17.0065 26.5856 17.5942C26.8265 18.1818 26.8905 18.8286 26.7695 19.4531C26.6485 20.0776 26.3479 20.6518 25.9056 21.1031C25.4634 21.5545 24.8993 21.8629 24.2845 21.9894C23.6697 22.1159 23.0318 22.0548 22.4511 21.8139C21.8705 21.573 21.3732 21.163 21.022 20.6357C20.6707 20.1084 20.4813 19.4873 20.4775 18.8509C20.4825 17.9961 20.818 17.1775 21.412 16.5712C22.006 15.965 22.8109 15.6196 23.6534 15.6095ZM23.6534 21.089C24.0938 21.0733 24.5198 20.9253 24.8772 20.6636C25.2346 20.402 25.5073 20.0386 25.6609 19.6194C25.8144 19.2003 25.8418 18.7444 25.7396 18.3094C25.6374 17.8745 25.4101 17.4801 25.0867 17.1764C24.7633 16.8726 24.3582 16.6732 23.9229 16.6033C23.4876 16.5335 23.0416 16.5964 22.6416 16.784C22.2415 16.9717 21.9054 17.2756 21.6759 17.6573C21.4464 18.039 21.3338 18.4813 21.3523 18.9281C21.3597 19.2288 21.4257 19.525 21.5465 19.7996C21.6674 20.0743 21.8407 20.3219 22.0564 20.5282C22.2721 20.7345 22.526 20.8954 22.8034 21.0016C23.0807 21.1078 23.3761 21.1572 23.6724 21.1469L23.6534 21.089Z" fill="white"/>
<path id="Vector_11" d="M48.2603 37.4893C48.7831 37.4855 49.2953 37.639 49.732 37.9305C50.1688 38.222 50.5106 38.6384 50.7141 39.127C50.9176 39.6155 50.9738 40.1544 50.8755 40.6753C50.7772 41.1963 50.5288 41.676 50.1618 42.0537C49.7948 42.4315 49.3256 42.6903 48.8136 42.7975C48.3016 42.9047 47.7698 42.8555 47.2854 42.6561C46.8009 42.4566 46.3857 42.1159 46.0921 41.6771C45.7985 41.2382 45.6398 40.7208 45.636 40.1904C45.631 39.8375 45.6951 39.4871 45.8248 39.1596C45.9544 38.8321 46.1469 38.534 46.3911 38.2827C46.6353 38.0314 46.9263 37.8318 47.2472 37.6956C47.5681 37.5594 47.9125 37.4892 48.2603 37.4893ZM50.162 40.1711C50.162 39.7895 50.0505 39.4165 49.8415 39.0992C49.6326 38.7819 49.3356 38.5346 48.9881 38.3886C48.6406 38.2426 48.2582 38.2044 47.8893 38.2788C47.5205 38.3532 47.1816 38.537 46.9157 38.8068C46.6497 39.0767 46.4686 39.4204 46.3952 39.7947C46.3218 40.169 46.3595 40.5569 46.5034 40.9095C46.6473 41.262 46.8911 41.5633 47.2038 41.7753C47.5166 41.9873 47.8842 42.1005 48.2603 42.1005C48.7548 42.0854 49.2239 41.8755 49.5683 41.5153C49.9127 41.1551 50.1052 40.6729 50.105 40.1711H50.162Z" fill="white"/>
<path id="Vector_12" d="M37.0225 32.5881L37.2316 32.4338L37.593 32.2408C38.0113 32.5688 38.3536 33.0319 38.734 33.0897C39.1143 33.1476 39.5517 31.8935 39.3996 31.1604L41.0731 30.1957L42.7846 30.7359C43.1649 30.8517 43.317 30.7359 43.26 30.2921C43.2029 29.8484 43.1269 29.5204 43.0508 29.0959L43.6213 28.7679C44.1296 29.6464 44.2749 30.6931 44.0255 31.6798C43.7761 32.6665 43.1523 33.5132 42.2901 34.0351C41.8525 34.2987 41.3673 34.4704 40.863 34.5403C40.3588 34.6101 39.8459 34.5765 39.3547 34.4416C38.8635 34.3067 38.404 34.0731 38.0034 33.7547C37.6028 33.4363 37.2692 33.0396 37.0225 32.5881ZM42.2711 31.4691C41.8936 31.4024 41.5076 31.4024 41.1301 31.4691C40.9365 31.522 40.7563 31.6164 40.6015 31.7458C40.4468 31.8752 40.3211 32.0366 40.2329 32.2193C40.1446 32.402 40.0959 32.6017 40.0899 32.8051C40.084 33.0084 40.1209 33.2108 40.1983 33.3984C40.2454 33.4822 40.3153 33.5504 40.3996 33.5949C40.4839 33.6393 40.5791 33.6582 40.6737 33.6493C41.2721 33.4343 41.8409 33.1426 42.3662 32.781C42.9747 32.2215 42.9177 32.0093 42.2711 31.4691Z" fill="white"/>
<path id="Vector_13" d="M38.2959 39.7661C38.051 39.5944 37.8219 39.4007 37.6113 39.1872C37.4635 38.9522 37.2597 38.7587 37.0188 38.6247C36.7778 38.4907 36.5074 38.4205 36.2326 38.4205C35.9578 38.4205 35.6874 38.4907 35.4465 38.6247C35.2055 38.7587 35.0017 38.9522 34.8539 39.1872C34.3975 39.7275 34.0742 40.3835 33.6558 40.9816C33.2011 41.5459 32.7819 42.1388 32.4007 42.7566C32.8951 42.255 33.4086 41.7726 33.884 41.2324C34.3594 40.6922 34.8729 39.8818 35.4434 39.303C36.0139 38.7242 36.6985 38.8592 37.193 39.6696C35.9188 39.8625 35.2913 40.8465 34.5116 41.7147C33.7187 42.5292 32.8738 43.2897 31.9823 43.9914C31.2977 44.5895 30.5751 45.1683 29.8524 45.7472C29.358 45.1876 29.377 44.5702 30.0616 43.8178C30.7462 43.0653 31.2026 42.911 31.6591 42.3707C32.4197 41.5025 33.0853 40.5571 33.7889 39.631C34.0011 39.329 34.2297 39.0391 34.4735 38.7628C34.6899 38.454 34.9824 38.2084 35.3218 38.0505C35.6612 37.8926 36.0356 37.828 36.4073 37.8632C36.7791 37.8983 37.1352 38.0321 37.44 38.2509C37.7448 38.4697 37.9875 38.766 38.1438 39.1101C38.2668 39.2803 38.3749 39.4611 38.4671 39.6503L38.2959 39.7661Z" fill="#FF0F0F" fill-opacity="0.83"/>
<path id="Vector_14" d="M40.2543 44.5507C40.6347 45.2646 40.4825 45.7856 39.6648 46.1135C38.8471 46.4415 37.7631 46.8274 36.7362 47.194C36.3863 47.3158 36.0633 47.5058 35.7854 47.7535C37.1546 47.3098 38.5428 46.9432 39.893 46.4415C41.2432 45.9399 41.2052 45.2067 40.6917 44.107C40.5894 43.8068 40.5193 43.4963 40.4826 43.1809C40.7155 43.3127 40.9185 43.4927 41.0784 43.7092C41.2383 43.9258 41.3515 44.174 41.4107 44.4378C41.4698 44.7017 41.4737 44.9752 41.4219 45.2406C41.3701 45.506 41.2639 45.7574 41.1101 45.9785C40.699 46.5129 40.134 46.9041 39.4937 47.0975C37.5553 47.6241 35.6898 48.3955 33.9407 49.3935C33.796 49.507 33.6291 49.5881 33.4512 49.6313C33.2733 49.6745 33.0883 49.679 32.9086 49.6443C32.7289 49.6097 32.5584 49.5367 32.4085 49.4303C32.2586 49.3239 32.1327 49.1864 32.0391 49.0269C33.9727 47.7164 36.0622 46.6597 38.2576 45.882C38.9866 45.545 39.6601 45.0959 40.2543 44.5507Z" fill="#FF0F0F" fill-opacity="0.83"/>
<path id="Vector_15" d="M6.36597 23.9452C6.89844 24.7556 7.48796 25.5466 7.96338 26.3955C8.03941 26.5067 8.09201 26.6326 8.1179 26.7654C8.14379 26.8981 8.14242 27.0349 8.11386 27.1671C8.0853 27.2993 8.03018 27.424 7.95194 27.5336C7.87369 27.6432 7.77401 27.7353 7.65912 27.804C7.44777 27.9812 7.18214 28.0782 6.90795 28.0782C6.63375 28.0782 6.36813 27.9812 6.15678 27.804C5.86246 27.5753 5.62748 27.2773 5.47217 26.9358C5.0538 25.9711 4.7115 25.0064 4.33116 24.0031C4.16001 23.5593 4.50231 23.3857 4.76855 23.1735C5.03479 22.9612 5.28201 22.9034 5.54824 23.1735C5.81448 23.4436 6.02366 23.6751 6.27088 23.9259L6.36597 23.9452Z" fill="white"/>
<path id="Vector_16" d="M2.16444 24.7551C1.84917 24.1167 1.77937 23.3821 1.96863 22.6943C2.15789 22.0065 2.59267 21.4149 3.1883 21.0345C3.78393 20.6541 4.49777 20.5122 5.19085 20.6364C5.88392 20.7607 6.50661 21.1422 6.93767 21.7067C5.92859 21.6492 4.92692 21.9119 4.0716 22.4581C3.21629 23.0044 2.54975 23.8072 2.16444 24.7551Z" fill="#FFA412"/>
<path id="Vector_17" d="M5.72125 22.1898L6.76718 21.9197V22.074L6.13962 22.5564L6.9003 22.3248L6.25373 23.0001C6.25373 23.0001 6.25373 23.1352 6.25373 23.1931C6.25373 23.251 6.13962 23.3281 6.13962 23.3281C6.0365 23.2617 5.94085 23.1841 5.85437 23.0966C5.71338 22.997 5.55205 22.9311 5.38241 22.9036C5.21278 22.8761 5.03922 22.8879 4.87468 22.9379C4.71014 22.988 4.55887 23.0751 4.43215 23.1928C4.30544 23.3105 4.20654 23.4557 4.14285 23.6175C4.15338 23.9978 4.21742 24.3747 4.33302 24.7366L3.87662 24.5629C3.78017 24.7066 3.66503 24.8364 3.53431 24.9488C3.323 25.0099 3.09905 25.0099 2.88774 24.9488L3.15398 24.6401C3.25563 24.5439 3.33376 24.425 3.38218 24.2928L2.56445 24.8138C2.56445 24.2349 2.7356 23.9648 3.59136 23.6561L3.23004 23.5211C3.61038 23.0001 3.83858 22.8458 4.18089 22.8844C4.39007 22.3248 4.96058 22.3056 5.37895 22.1126C5.49536 22.1264 5.61006 22.1522 5.72125 22.1898Z" fill="#CBDF46"/>
<path id="Vector_18" d="M20.2117 29.1159C21.3555 28.5301 22.351 27.6851 23.1212 26.6463C23.3312 26.4294 23.6048 26.2873 23.9009 26.2411C23.04 27.7572 21.8736 29.0721 20.4779 30.0999L21.8281 29.9455C21.2386 30.9295 20.1166 30.7945 19.6031 31.5662L18.2529 29.6368L21.1055 27.4373L21.2766 27.6303L20.2117 29.1159Z" fill="white"/>
<path id="Vector_19" d="M24.1848 5.67307C24.356 5.38366 24.7363 4.84343 25.0406 4.26462C25.3448 3.6858 25.8583 3.78227 26.3527 3.91733C26.8472 4.05238 27.1705 4.34179 27.0373 4.9399C26.7141 6.56059 26.4859 8.20057 26.0865 9.80196C26.0497 10.1947 25.8729 10.5603 25.5893 10.8303C25.3057 11.1002 24.9348 11.256 24.5461 11.2683C24.2176 11.2842 23.8905 11.2134 23.597 11.0627C23.3034 10.9121 23.0534 10.6867 22.8714 10.4087C22.6894 10.1307 22.5815 9.80959 22.5584 9.47666C22.5353 9.14373 22.5977 8.81041 22.7395 8.50927C23.1695 7.53761 23.652 6.59077 24.1848 5.67307Z" fill="white"/>
<path id="Vector_20" d="M29.9473 4.9597C29.1184 3.79602 27.9562 2.91977 26.6189 2.45025C25.2816 1.98072 23.8341 1.94074 22.4736 2.33574C22.8879 1.42943 23.619 0.711415 24.5253 0.320812C25.4316 -0.0697908 26.4485 -0.105165 27.3791 0.221542C28.3096 0.548249 29.0875 1.21378 29.562 2.08916C30.0364 2.96455 30.1737 3.98747 29.9473 4.9597Z" fill="#FFA412"/>
<path id="Vector_21" d="M29.5108 5.15228L28.4649 4.86288L29.2446 5.4224V5.59604H28.3127H27.438C27.4285 5.46116 27.4285 5.32576 27.438 5.19087C27.4737 4.93692 27.4473 4.67794 27.3611 4.43679C27.2749 4.19564 27.1315 3.97973 26.9435 3.80812C26.7556 3.63651 26.5289 3.51448 26.2835 3.45279C26.0381 3.39111 25.7814 3.39167 25.5363 3.45442C25.194 3.45442 24.9277 3.99465 24.6235 4.26476C24.4705 4.36561 24.3039 4.44358 24.129 4.49629V4.16829L22.6457 3.58948V3.31936H23.5966V3.22289L22.4365 2.79843C23.0831 2.23891 23.4444 2.23891 24.6235 2.79843L24.3953 2.33538C25.1179 2.04597 25.6314 2.54761 26.2019 2.72125C26.9091 2.84187 27.5684 3.16292 28.1036 3.64736C28.5409 4.32265 29.3967 4.28406 29.5108 5.15228Z" fill="#CBDF46"/>
<path id="Vector_22" d="M42.7637 45.9399L44.8365 44.2228L46.51 46.3258L44.4562 48.0237L42.7637 45.9399Z" fill="white"/>
<path id="Vector_23" d="M18.1954 8.47116L19.8308 10.7285L17.6439 12.928L15.7422 10.5163L18.1954 8.47116Z" fill="white"/>
<path id="Vector_24" d="M40.3675 22.5362L41.3754 25.6039L38.3518 26.6265C38.1426 25.7004 37.9144 24.8322 37.7812 23.9639C37.7812 23.8096 37.9524 23.5202 38.1045 23.443C38.7511 23.115 39.4928 22.8449 40.3675 22.5362Z" fill="white"/>
<path id="Vector_25" d="M34.0176 36.4671V33.8999H36.5658V36.1389L34.0176 36.4671Z" fill="white"/>
<path id="Vector_26" d="M7.0127 45.1111V42.6212H9.48489V44.8409L7.0127 45.1111Z" fill="white"/>
<path id="Vector_27" d="M27.4373 52.519C24.5982 54.7251 21.2176 56.0997 17.6626 56.4935C15.1369 56.749 12.5898 56.3161 10.2841 55.2394C9.57807 54.8712 8.93579 54.389 8.38238 53.8117C8.0451 53.4856 7.80015 53.0738 7.67305 52.6191C7.54596 52.1644 7.54136 51.6834 7.65973 51.2263C7.68987 51.0048 7.76331 50.7916 7.87575 50.5993C7.98819 50.407 8.13737 50.2395 8.31452 50.1065C8.49166 49.9735 8.69321 49.8777 8.90734 49.8248C9.12146 49.772 9.34384 49.763 9.56142 49.7985C10.2184 49.9222 10.8574 50.1297 11.4631 50.4159C14.5228 52.0589 17.8957 53.0132 21.3519 53.2135C23.1858 53.1227 25.0138 52.9359 26.8287 52.654C27.0569 52.6347 27.2091 52.5576 27.4373 52.519ZM10.8926 51.1684C12.5661 53.8502 18.0429 54.5255 21.2378 53.9081C17.6314 53.7872 14.0971 52.8512 10.8926 51.1684Z" fill="#659C35"/>
<path id="Vector_28" d="M7.24148 50.7437V52.673C7.24148 52.673 7.10836 52.673 7.07033 52.673C6.80698 52.3626 6.46891 52.1266 6.08902 51.9879C5.70912 51.8493 5.30033 51.8128 4.90241 51.882C3.92184 51.9488 3.00044 52.3819 2.31611 53.0975C1.82167 53.6763 1.42232 54.3323 0.98493 55.0269C0.338357 54.4095 0.338357 54.3516 0.98493 53.657C2.12093 52.473 3.588 51.6715 5.18766 51.3611L7.24148 50.7437Z" fill="white"/>
<path id="Vector_29" d="M40.6167 42.1195L39.1904 39.9392C39.5359 40.0325 39.8731 40.1552 40.1983 40.3058C40.3678 40.4074 40.5683 40.442 40.7613 40.4028C40.9544 40.3636 41.1263 40.2535 41.2443 40.0936C41.5295 39.7463 41.8148 39.4183 42.081 39.0517C42.1569 38.926 42.2566 38.8168 42.3742 38.7303C42.4919 38.6438 42.6252 38.5817 42.7666 38.5477C42.9079 38.5136 43.0546 38.5082 43.198 38.5318C43.3414 38.5554 43.4788 38.6075 43.6023 38.6851C43.4692 38.8395 43.3741 39.0324 43.2981 39.0131C42.4804 39.0131 42.1571 39.5148 41.8338 40.0936C41.5105 40.6724 41.4344 40.9425 41.2062 41.3477C41.0278 41.6187 40.8308 41.8765 40.6167 42.1195Z" fill="white"/>
<path id="Vector_30" d="M29.2824 28.3433C28.964 28.3042 28.6708 28.1482 28.4581 27.9047C28.2454 27.6612 28.1279 27.3471 28.1279 27.0217C28.1279 26.6963 28.2454 26.3822 28.4581 26.1387C28.6708 25.8952 28.964 25.7392 29.2824 25.7001C29.619 25.7146 29.9377 25.8581 30.1741 26.1015C30.4106 26.345 30.5472 26.6704 30.5565 27.0121C30.5591 27.1844 30.5281 27.3555 30.4654 27.5156C30.4028 27.6758 30.3096 27.8218 30.1913 27.9455C30.073 28.0691 29.9318 28.1679 29.7759 28.2361C29.6199 28.3044 29.4522 28.3408 29.2824 28.3433Z" fill="white"/>
<path id="Vector_31" d="M12.5477 16.0914C12.7212 16.1034 12.8905 16.1508 13.0455 16.2307C13.2006 16.3106 13.3381 16.4214 13.45 16.5565C13.5618 16.6916 13.6456 16.8482 13.6965 17.0169C13.7473 17.1856 13.7641 17.363 13.7458 17.5384C13.7383 17.7107 13.6974 17.8798 13.6255 18.0361C13.5536 18.1924 13.452 18.3327 13.3267 18.4492C13.2013 18.5657 13.0545 18.6559 12.8948 18.7148C12.735 18.7737 12.5654 18.8001 12.3956 18.7925C12.2257 18.7849 12.0591 18.7435 11.905 18.6705C11.751 18.5976 11.6127 18.4945 11.4979 18.3673C11.3831 18.2401 11.2941 18.0912 11.2361 17.9292C11.178 17.7671 11.152 17.595 11.1595 17.4227C11.1563 17.2403 11.1907 17.0593 11.2604 16.8912C11.33 16.7231 11.4335 16.5716 11.5641 16.4463C11.6948 16.3211 11.8497 16.2248 12.019 16.1637C12.1884 16.1026 12.3684 16.078 12.5477 16.0914Z" fill="white"/>
<path id="Vector_32" d="M6.4053 32.1254C6.40282 32.3002 6.36642 32.4728 6.29818 32.6334C6.22993 32.7939 6.13119 32.9393 6.00757 33.0611C5.88395 33.1829 5.73789 33.2789 5.57773 33.3434C5.41757 33.408 5.24644 33.4399 5.07412 33.4373C4.76058 33.3985 4.47188 33.2447 4.26249 33.0048C4.0531 32.7648 3.9375 32.4555 3.9375 32.135C3.9375 31.8145 4.0531 31.5052 4.26249 31.2652C4.47188 31.0253 4.76058 30.8715 5.07412 30.8327C5.24552 30.8275 5.41622 30.857 5.57628 30.9195C5.73634 30.9819 5.88256 31.076 6.00644 31.1963C6.13032 31.3166 6.22938 31.4607 6.29785 31.6202C6.36633 31.7797 6.40285 31.9514 6.4053 32.1254Z" fill="white"/>
<path id="Vector_33" d="M27.7607 48.1777C27.7558 48.3543 27.7164 48.5281 27.6446 48.689C27.5729 48.8499 27.4704 48.9947 27.3429 49.115C27.2155 49.2353 27.0658 49.3287 26.9024 49.3897C26.7391 49.4507 26.5654 49.4782 26.3915 49.4704C26.2098 49.4831 26.0275 49.4567 25.8566 49.3929C25.6857 49.3291 25.5299 49.2294 25.3996 49.1004C25.2693 48.9713 25.1673 48.8158 25.1004 48.6439C25.0334 48.4721 25.003 48.2879 25.011 48.1033C25.0191 47.9187 25.0656 47.7379 25.1473 47.5728C25.229 47.4077 25.3442 47.2619 25.4853 47.1451C25.6264 47.0283 25.7902 46.943 25.966 46.8949C26.1418 46.8467 26.3257 46.8368 26.5056 46.8658C26.8419 46.8758 27.1611 47.0184 27.3955 47.2634C27.6298 47.5084 27.7608 47.8364 27.7607 48.1777Z" fill="white"/>
<path id="Vector_34" d="M28.5027 14.2601C28.3636 14.2552 28.2269 14.2222 28.1006 14.163C27.9743 14.1037 27.8608 14.0195 27.767 13.9153C27.6731 13.811 27.6007 13.6888 27.554 13.5558C27.5072 13.4228 27.4871 13.2816 27.4948 13.1406C27.4971 13.0054 27.5263 12.8721 27.5807 12.7487C27.635 12.6252 27.7134 12.5142 27.8111 12.4223C27.9088 12.3303 28.0238 12.2594 28.1491 12.2136C28.2745 12.1679 28.4077 12.1484 28.5407 12.1562C28.6797 12.1587 28.8168 12.1893 28.944 12.2462C29.0713 12.303 29.186 12.3851 29.2817 12.4876C29.3773 12.59 29.4518 12.7107 29.5009 12.8428C29.55 12.9748 29.5727 13.1154 29.5676 13.2564C29.5441 13.5279 29.4221 13.7808 29.2254 13.9662C29.0286 14.1517 28.7711 14.2564 28.5027 14.2601Z" fill="white"/>
<path id="Vector_35" d="M35.4259 29.212C35.1897 29.3691 34.9238 29.4746 34.6453 29.5218C34.3667 29.5689 34.0815 29.5567 33.8078 29.4859C33.5341 29.4152 33.2779 29.2873 33.0556 29.1106C32.8332 28.9339 32.6496 28.7122 32.5163 28.4596C32.1558 27.7938 31.9908 27.0372 32.0409 26.2793C32.3077 23.4277 32.1926 20.5525 31.6986 17.7322C31.6469 17.1407 31.7944 16.549 32.117 16.0536C32.2678 15.8295 32.4679 15.6439 32.7014 15.5114C32.9348 15.3789 33.1954 15.3032 33.4626 15.2901C33.7298 15.277 33.9963 15.3269 34.2413 15.436C34.4863 15.545 34.703 15.7102 34.8744 15.9185C35.2627 16.3112 35.5506 16.7942 35.713 17.3255C35.8753 17.8568 35.9074 18.4203 35.8063 18.967C35.5529 20.3165 35.2228 21.65 34.8174 22.9608C34.4941 24.0606 33.9997 25.1024 33.6954 26.2022C33.1059 28.1894 33.4862 28.7876 35.4259 29.212ZM34.1518 16.343C34.6959 18.2329 34.6959 20.2413 34.1518 22.1312C35.4449 19.8931 35.4449 17.5392 34.1518 16.343Z" fill="white"/>
<path id="Vector_36" d="M33.885 14.8384L32.3827 15.2049C32.4781 14.4954 32.5163 13.7791 32.4968 13.0633C32.3675 12.2792 32.1832 11.5055 31.9453 10.748L32.744 10.9024C32.744 11.6934 32.744 12.4266 32.744 13.1791C32.744 13.9315 32.9152 14.5682 33.885 14.8384Z" fill="white"/>
</g>
</svg>
