<svg xmlns="http://www.w3.org/2000/svg" width="40" height="40" viewBox="0 0 40 40" fill="none">
<path opacity="0.1" fill-rule="evenodd" clip-rule="evenodd" d="M0 20C0 8.95431 8.95431 0 20 0C31.0457 0 40 8.95431 40 20C40 31.0457 31.0457 40 20 40C8.95431 40 0 31.0457 0 20Z" fill="white"/>
<path d="M20.8565 11.6675C21.4646 11.6652 22.0727 11.6713 22.6807 11.6858L22.8423 11.6917C23.029 11.6983 23.2132 11.7067 23.4357 11.7167C24.3223 11.7583 24.9273 11.8983 25.4582 12.1042C26.0082 12.3158 26.4715 12.6025 26.9348 13.0658C27.3585 13.4822 27.6864 13.9858 27.8957 14.5417C28.1015 15.0725 28.2415 15.6783 28.2832 16.565C28.2932 16.7867 28.3015 16.9717 28.3082 17.1583L28.3132 17.32C28.328 17.9277 28.3344 18.5355 28.3323 19.1433L28.3332 19.765V20.8567C28.3352 21.4648 28.3288 22.0729 28.314 22.6808L28.309 22.8425C28.3023 23.0292 28.294 23.2133 28.284 23.4358C28.2423 24.3225 28.1007 24.9275 27.8957 25.4583C27.687 26.0148 27.3591 26.5188 26.9348 26.935C26.5181 27.3586 26.0143 27.6865 25.4582 27.8958C24.9273 28.1017 24.3223 28.2417 23.4357 28.2833C23.2132 28.2933 23.029 28.3017 22.8423 28.3083L22.6807 28.3133C22.0727 28.3281 21.4646 28.3345 20.8565 28.3325L20.2348 28.3333H19.144C18.5359 28.3354 17.9278 28.329 17.3198 28.3142L17.1582 28.3092C16.9603 28.302 16.7626 28.2937 16.5648 28.2842C15.6782 28.2425 15.0732 28.1008 14.5415 27.8958C13.9854 27.687 13.4817 27.359 13.0657 26.935C12.6415 26.5186 12.3133 26.0146 12.104 25.4583C11.8982 24.9275 11.7582 24.3225 11.7165 23.4358C11.7072 23.2381 11.6989 23.0403 11.6915 22.8425L11.6873 22.6808C11.672 22.0729 11.665 21.4648 11.6665 20.8567V19.1433C11.6642 18.5355 11.6703 17.9277 11.6848 17.32L11.6907 17.1583C11.6973 16.9717 11.7057 16.7867 11.7157 16.565C11.7573 15.6775 11.8973 15.0733 12.1032 14.5417C12.3126 13.9855 12.6415 13.482 13.0665 13.0667C13.4822 12.6423 13.9856 12.3138 14.5415 12.1042C15.0732 11.8983 15.6773 11.7583 16.5648 11.7167L17.1582 11.6917L17.3198 11.6875C17.9275 11.6721 18.5353 11.6652 19.1432 11.6667L20.8565 11.6675ZM19.9998 15.8342C19.4478 15.8264 18.8996 15.9284 18.3873 16.1342C17.875 16.3401 17.4087 16.6457 17.0155 17.0334C16.6224 17.421 16.3102 17.8829 16.0971 18.3923C15.884 18.9017 15.7742 19.4483 15.7742 20.0004C15.7742 20.5525 15.884 21.0992 16.0971 21.6085C16.3102 22.1179 16.6224 22.5798 17.0155 22.9675C17.4087 23.3551 17.875 23.6607 18.3873 23.8666C18.8996 24.0725 19.4478 24.1745 19.9998 24.1667C21.1049 24.1667 22.1647 23.7277 22.9461 22.9463C23.7275 22.1649 24.1665 21.1051 24.1665 20C24.1665 18.8949 23.7275 17.8351 22.9461 17.0537C22.1647 16.2723 21.1049 15.8342 19.9998 15.8342ZM19.9998 17.5008C20.3319 17.4947 20.6619 17.5548 20.9705 17.6777C21.2791 17.8005 21.5601 17.9836 21.7971 18.2163C22.0342 18.449 22.2225 18.7265 22.351 19.0328C22.4796 19.339 22.5458 19.6678 22.5459 20C22.5459 20.3321 22.4798 20.661 22.3514 20.9673C22.2229 21.2736 22.0347 21.5512 21.7977 21.7839C21.5608 22.0167 21.2798 22.1999 20.9713 22.3228C20.6627 22.4458 20.3328 22.506 20.0007 22.5C19.3376 22.5 18.7017 22.2366 18.2329 21.7678C17.7641 21.2989 17.5007 20.663 17.5007 20C17.5007 19.337 17.7641 18.7011 18.2329 18.2322C18.7017 17.7634 19.3376 17.5 20.0007 17.5L19.9998 17.5008ZM24.3748 14.5842C24.106 14.5949 23.8517 14.7093 23.6653 14.9033C23.4789 15.0973 23.3748 15.3559 23.3748 15.625C23.3748 15.8941 23.4789 16.1527 23.6653 16.3467C23.8517 16.5407 24.106 16.6551 24.3748 16.6658C24.6511 16.6658 24.9161 16.5561 25.1114 16.3607C25.3068 16.1654 25.4165 15.9004 25.4165 15.6242C25.4165 15.3479 25.3068 15.0829 25.1114 14.8876C24.9161 14.6922 24.6511 14.5825 24.3748 14.5825V14.5842Z" fill="white"/>
</svg>