<svg width="25" height="25" viewBox="0 0 25 25" fill="none" xmlns="http://www.w3.org/2000/svg">
<path d="M21.9851 18.83C21.9851 19.19 21.9051 19.56 21.7351 19.92C21.5651 20.28 21.3451 20.62 21.0551 20.94C20.5651 21.48 20.0251 21.87 19.4151 22.12C18.8151 22.37 18.1651 22.5 17.4651 22.5C16.4451 22.5 15.3551 22.26 14.2051 21.77C13.0551 21.28 11.9051 20.62 10.7651 19.79C9.61514 18.95 8.52514 18.02 7.48514 16.99C6.45514 15.95 5.52514 14.86 4.69514 13.72C3.87514 12.58 3.21514 11.44 2.73514 10.31C2.25514 9.17 2.01514 8.08 2.01514 7.04C2.01514 6.36 2.13514 5.71 2.37514 5.11C2.61514 4.5 2.99514 3.94 3.52514 3.44C4.16514 2.81 4.86514 2.5 5.60514 2.5C5.88514 2.5 6.16514 2.56 6.41514 2.68C6.67514 2.8 6.90514 2.98 7.08514 3.24L9.40514 6.51C9.58514 6.76 9.71514 6.99 9.80514 7.21C9.89514 7.42 9.94514 7.63 9.94514 7.82C9.94514 8.06 9.87514 8.3 9.73514 8.53C9.60514 8.76 9.41514 9 9.17514 9.24L8.41514 10.03C8.30514 10.14 8.25514 10.27 8.25514 10.43C8.25514 10.51 8.26514 10.58 8.28514 10.66C8.31514 10.74 8.34514 10.8 8.36514 10.86C8.54514 11.19 8.85514 11.62 9.29514 12.14C9.74514 12.66 10.2251 13.19 10.7451 13.72C11.2851 14.25 11.8051 14.74 12.3351 15.19C12.8551 15.63 13.2851 15.93 13.6251 16.11C13.6751 16.13 13.7351 16.16 13.8051 16.19C13.8851 16.22 13.9651 16.23 14.0551 16.23C14.2251 16.23 14.3551 16.17 14.4651 16.06L15.2251 15.31C15.4751 15.06 15.7151 14.87 15.9451 14.75C16.1751 14.61 16.4051 14.54 16.6551 14.54C16.8451 14.54 17.0451 14.58 17.2651 14.67C17.4851 14.76 17.7151 14.89 17.9651 15.06L21.2751 17.41C21.5351 17.59 21.7151 17.8 21.8251 18.05C21.9251 18.3 21.9851 18.55 21.9851 18.83Z" stroke="currentColor" stroke-width="1.5" stroke-miterlimit="10"/>
<path d="M18.5151 9.5C18.5151 8.9 18.0451 7.98 17.3451 7.23C16.7051 6.54 15.8551 6 15.0151 6" stroke="currentColor" stroke-width="1.5" stroke-linecap="round" stroke-linejoin="round"/>
<path d="M22.0151 9.5C22.0151 5.63 18.8851 2.5 15.0151 2.5" stroke="currentColor" stroke-width="1.5" stroke-linecap="round" stroke-linejoin="round"/>
</svg>
