<svg xmlns="http://www.w3.org/2000/svg" width="40" height="40" viewBox="0 0 40 40" fill="none">
<path opacity="0.1" fill-rule="evenodd" clip-rule="evenodd" d="M0 20C0 8.95431 8.95431 0 20 0C31.0457 0 40 8.95431 40 20C40 31.0457 31.0457 40 20 40C8.95431 40 0 31.0457 0 20Z" fill="white"/>
<g clip-path="url(#clip0_693_7874)">
<path fill-rule="evenodd" clip-rule="evenodd" d="M21.6673 11.6666C22.1093 11.6666 22.5333 11.8422 22.8458 12.1548C23.1584 12.4673 23.334 12.8913 23.334 13.3333C23.3344 13.9092 23.5334 14.4674 23.8974 14.9137C24.2615 15.36 24.7682 15.6671 25.3323 15.7833C25.7655 15.8713 26.146 16.1277 26.3901 16.4962C26.6342 16.8647 26.7219 17.3151 26.634 17.7483C26.546 18.1815 26.2896 18.562 25.9211 18.8061C25.5526 19.0502 25.1022 19.1379 24.669 19.05C24.2075 18.9561 23.7592 18.8064 23.334 18.6041V23.3333C23.3339 24.2685 23.0716 25.1849 22.5768 25.9785C22.082 26.7721 21.3746 27.411 20.5349 27.8226C19.6951 28.2343 18.7568 28.4022 17.8264 28.3072C16.8961 28.2123 16.011 27.8584 15.2717 27.2856C14.5324 26.7128 13.9686 25.9442 13.6443 25.067C13.32 24.1899 13.2481 23.2393 13.437 22.3234C13.6258 21.4075 14.0678 20.5629 14.7126 19.8855C15.3574 19.2082 16.1793 18.7253 17.0848 18.4916C17.5102 18.389 17.9588 18.4578 18.3339 18.6832C18.7089 18.9085 18.9803 19.2723 19.0895 19.696C19.1987 20.1197 19.1369 20.5693 18.9174 20.9478C18.6979 21.3263 18.3384 21.6034 17.9165 21.7191C17.5258 21.8228 17.186 22.0648 16.9603 22.4001C16.7346 22.7354 16.6383 23.1413 16.6894 23.5423C16.7404 23.9432 16.9353 24.3121 17.2378 24.5802C17.5402 24.8483 17.9298 24.9974 18.334 25C18.776 25 19.1999 24.8244 19.5125 24.5118C19.8251 24.1992 20.0007 23.7753 20.0007 23.3333V13.3333C20.0007 12.8913 20.1762 12.4673 20.4888 12.1548C20.8014 11.8422 21.2253 11.6666 21.6673 11.6666Z" fill="white"/>
</g>
<defs>
<clipPath id="clip0_693_7874">
<rect width="20" height="20" fill="white" transform="translate(10 10)"/>
</clipPath>
</defs>
</svg>
