<svg width="40" height="40" viewBox="0 0 40 40" fill="none" xmlns="http://www.w3.org/2000/svg">
<path opacity="0.1" fill-rule="evenodd" clip-rule="evenodd" d="M0 20C0 8.95431 8.95431 0 20 0C31.0457 0 40 8.95431 40 20C40 31.0457 31.0457 40 20 40C8.95431 40 0 31.0457 0 20Z" fill="white"/>
<path fill-rule="evenodd" clip-rule="evenodd" d="M27.1477 13.0962C28.0083 13.3323 28.686 14.0281 28.916 14.9117C29.334 16.5131 29.334 19.8545 29.334 19.8545C29.334 19.8545 29.334 23.1958 28.916 24.7973C28.686 25.6809 28.0083 26.3767 27.1477 26.6129C25.5882 27.042 19.334 27.042 19.334 27.042C19.334 27.042 13.0798 27.042 11.5201 26.6129C10.6596 26.3767 9.98183 25.6809 9.75183 24.7973C9.33398 23.1958 9.33398 19.8545 9.33398 19.8545C9.33398 19.8545 9.33398 16.5131 9.75183 14.9117C9.98183 14.0281 10.6596 13.3323 11.5201 13.0962C13.0798 12.667 19.334 12.667 19.334 12.667C19.334 12.667 25.5882 12.667 27.1477 13.0962ZM17.459 17.0419V23.2919L22.459 20.167L17.459 17.0419Z" fill="white"/>
</svg>
