<svg width="25" height="24" viewBox="0 0 25 24" fill="none" xmlns="http://www.w3.org/2000/svg">
<g id="vuesax/linear/reserve">
<g id="reserve">
<path id="Vector" d="M19.4702 22H5.47021C2.47021 22 2.47021 20.65 2.47021 19V18C2.47021 17.45 2.92021 17 3.47021 17H21.4702C22.0202 17 22.4702 17.45 22.4702 18V19C22.4702 20.65 22.4702 22 19.4702 22Z" stroke="#B3B5B8" stroke-width="1.5" stroke-linecap="round" stroke-linejoin="round"/>
<path id="Vector_2" d="M21.22 13V17H3.77002V13C3.77002 9.16 6.48002 5.95 10.09 5.18C10.63 5.06 11.19 5 11.77 5H13.22C13.8 5 14.37 5.06 14.91 5.18C18.52 5.96 21.22 9.16 21.22 13Z" stroke="#B3B5B8" stroke-width="1.5" stroke-linecap="round" stroke-linejoin="round"/>
<path id="Vector_3" d="M15 4.5C15 4.74 14.97 4.96 14.91 5.18C14.37 5.06 13.8 5 13.22 5H11.77C11.19 5 10.63 5.06 10.09 5.18C10.03 4.96 10 4.74 10 4.5C10 3.12 11.12 2 12.5 2C13.88 2 15 3.12 15 4.5Z" stroke="#B3B5B8" stroke-width="1.5" stroke-linecap="round" stroke-linejoin="round"/>
<path id="Vector_4" d="M15.5 11H9.5" stroke="#B3B5B8" stroke-width="1.5" stroke-linecap="round" stroke-linejoin="round"/>
</g>
</g>
</svg>
