<svg width="15" height="14" viewBox="0 0 15 14" fill="none" xmlns="http://www.w3.org/2000/svg">
<path fill-rule="evenodd" clip-rule="evenodd" d="M8.05173 1.04339C7.77144 0.45733 6.9051 0.431849 6.59933 1.04339L4.94308 4.43233L1.19741 4.96743C0.534906 5.06935 0.280098 5.88473 0.764233 6.36887L3.43971 8.99339L2.80269 12.6881C2.70077 13.3506 3.41423 13.8602 4.00029 13.5544L7.33827 11.7963L10.6508 13.5544C11.2368 13.8602 11.9503 13.3506 11.8484 12.6881L11.2113 8.99339L13.8868 6.36887C14.371 5.88473 14.1162 5.06935 13.4537 4.96743L9.73346 4.43233L8.05173 1.04339ZM10.7902 6.60491L8.4089 6.26239L7.33368 4.09567L6.27476 6.2624L3.86295 6.60694L5.58879 8.29991L5.17967 10.6728L7.34185 9.53392L9.46976 10.6633L9.06227 8.29991L10.7902 6.60491Z" fill="#FFBB00"></path>
</svg>