<svg width="52" height="47" viewBox="0 0 52 47" fill="none" xmlns="http://www.w3.org/2000/svg">
<g id="Group 1321314293">
<g id="Group 1321314382">
<path id="Vector" d="M28.5279 17.5329C29.2436 17.1971 29.8681 16.8343 30.544 16.6002C32.8596 15.7926 35.2157 16.6708 36.5261 18.8042C37.4843 20.3631 37.792 22.0444 37.6562 23.7871C37.5094 25.6978 37.0451 27.5253 36.1813 29.2174C34.8235 31.8775 33.442 31.9705 31.1939 31.6355C29.5379 31.3904 27.9646 31.4343 26.489 32.0313C24.4944 32.8409 22.5628 33.7843 20.5989 34.6617C20.2043 34.8381 19.7993 35.016 19.374 35.1074C18.266 35.3446 17.6952 34.9066 17.432 33.8475C16.1532 28.65 16.9173 23.6252 17.9954 18.6292C18.5043 16.2684 19.2858 13.9935 20.6056 11.9723C21.1095 11.1987 21.7555 10.4621 22.5036 9.91581C24.1807 8.69169 26.1937 9.18622 27.3152 11.0247C28.3855 12.781 28.6674 14.6891 28.5809 16.6482C28.5718 16.9242 28.5505 17.2001 28.5279 17.5329ZM19.992 29.9534C20.1984 29.8081 20.354 29.6991 20.5109 29.5881C22.2811 28.3202 24.2237 27.3702 26.3756 26.8187C28.449 26.2868 30.5261 26.2127 32.5948 27.1443C32.6485 27.1677 32.723 27.1454 32.8524 27.1447C33.3194 25.9762 33.6173 24.74 33.5223 23.4568C33.4642 22.6578 33.2313 21.8246 32.8974 21.0758C32.5235 20.238 31.8137 19.9498 30.9419 20.2213C30.1759 20.4611 29.4539 20.8269 28.7449 21.1962C28.2281 21.465 27.7772 21.8467 27.2759 22.1409C26.7952 22.4236 26.2674 22.4571 25.766 22.1057C25.2911 21.7729 25.1403 21.2976 25.2176 20.7701C25.2639 20.4512 25.3524 20.1419 25.4333 19.8302C25.9612 17.8085 25.7714 15.8069 24.9448 13.8281C24.7972 13.4759 24.5791 13.1489 24.3918 12.8091C23.6196 13.2317 22.9917 13.9984 22.327 15.3299C20.0893 19.8148 19.6189 24.6668 19.8997 29.6691C19.9066 29.7317 19.9395 29.7924 19.992 29.9534Z" fill="#FF611D"/>
<path id="Vector_2" d="M47.1478 25.8464C47.1598 25.805 47.1677 25.7775 47.1797 25.7361C47.3824 25.0328 47.0599 24.3895 46.4028 24.2123C45.7457 24.0352 45.139 24.4305 45.0169 25.1743C44.9205 25.7757 44.6181 26.2369 44.1584 26.6034C43.1665 27.3737 41.8852 27.2253 41.068 26.2153C40.718 25.774 40.4483 25.2677 40.1345 24.8076C40.0697 24.712 39.9445 24.6123 39.8417 24.595C39.7813 24.5909 39.6811 24.7248 39.6251 24.8124C39.1289 25.6789 39.3958 26.5153 39.892 27.3036C40.933 28.9258 43.0957 29.4876 44.8525 28.6276C46.0344 28.0526 46.7335 27.0697 47.1478 25.8464Z" fill="#FF611D"/>
<path id="Vector_3" d="M41.0875 32.3605C41.4983 32.4778 42.0623 32.5207 42.5608 32.334C42.906 32.2219 43.1014 32.0011 43.0349 31.6608C42.9769 31.3478 42.701 31.1625 42.3571 31.0418C41.639 30.7907 41.1152 30.3799 40.6659 29.882C40.4041 29.5907 40.124 29.3058 39.8039 29.0452C39.4838 28.7846 39.1064 28.6656 38.7127 28.7747C38.3189 28.8838 38.2712 29.1635 38.2957 29.4783C38.4058 30.5814 39.6233 31.8987 41.0875 32.3605Z" fill="#FF611D"/>
<g id="Group 1321314290">
<path id="Vector_4" d="M15.7808 2.15564C15.8106 2.12462 15.8306 2.10395 15.8604 2.07293C16.3681 1.54567 17.0865 1.50334 17.5685 1.98382C18.0504 2.4643 18.0114 3.18736 17.4283 3.66498C16.9557 4.04922 16.7074 4.54169 16.62 5.1231C16.4488 6.36725 17.2179 7.40263 18.5012 7.6054C19.0584 7.68782 19.6317 7.66823 20.187 7.70998C20.3023 7.71826 20.4512 7.77686 20.5176 7.85717C20.5513 7.90749 20.4855 8.0612 20.4376 8.15356C19.9353 9.0165 19.0776 9.20357 18.1467 9.16799C16.2214 9.07752 14.6535 7.48546 14.5199 5.53407C14.4269 4.22304 14.9286 3.12608 15.7808 2.15564Z" fill="#FF611D"/>
<path id="Vector_5" d="M13.17 10.6613C12.863 10.3642 12.5439 9.89716 12.4563 9.37218C12.3808 9.01712 12.4743 8.73748 12.8023 8.62498C13.1023 8.51866 13.4007 8.66499 13.6773 8.90246C14.2538 9.39879 14.8714 9.64699 15.5272 9.78716C15.9104 9.86822 16.2972 9.96841 16.6829 10.1153C17.0687 10.2622 17.3604 10.5295 17.4628 10.9251C17.5652 11.3206 17.3468 11.5018 17.062 11.6379C16.0516 12.0942 14.302 11.6984 13.17 10.6613Z" fill="#FF611D"/>
</g>
</g>
</g>
</svg>
