<svg width="48" height="70" viewBox="0 0 48 70" fill="none" xmlns="http://www.w3.org/2000/svg">
<g id="Group" opacity="0.1">
<path id="Vector" d="M23.8797 0.374182C25.0855 0.827081 26.2028 1.48765 27.1807 2.32597C27.5056 2.66851 27.8606 2.98095 28.2418 3.25941C29.0479 3.76278 29.6218 4.56539 29.8368 5.49119C29.9111 6.00856 30.0364 6.51735 30.2103 7.01021C30.3502 7.27703 30.412 7.57806 30.388 7.87828C30.3639 8.17875 30.2554 8.46634 30.0746 8.70758C29.7604 9.16559 29.4891 9.64935 29.226 10.1245C29.0307 10.4641 29.0393 10.7864 29.4466 10.9731C29.854 11.1599 29.7437 11.3208 29.6162 11.6097C29.5316 11.8162 29.5316 12.048 29.6162 12.2544C30.0661 13.2559 30.5923 14.2234 30.9997 15.233C31.6457 16.6061 32.4183 17.9158 33.3077 19.1451C33.7404 19.8238 34.3854 20.3586 34.8607 21.0034C35.7092 22.1662 36.719 23.2015 37.5422 24.3978C38.9 26.3582 40.4529 28.1572 41.9634 30.024C43.2299 31.6646 44.2795 33.4614 45.0862 35.3702C45.4171 36.1425 45.8075 36.8894 46.1724 37.6358C46.8258 38.9854 47.4962 40.3173 48.1157 41.6669C48.54 42.5747 48.8709 43.5165 49.2782 44.4248C49.762 45.5022 50.2711 46.5633 50.7887 47.624C51.561 49.2276 52.2738 50.857 53.1394 52.4101C54.522 54.6722 56.216 56.7291 58.1715 58.52C58.3356 58.6874 58.5359 58.8148 58.757 58.893C60.2619 59.3514 61.7724 59.7957 63.2885 60.2254C63.9207 60.3494 64.5073 60.6426 64.9857 61.074C65.8343 61.9226 66.7338 62.7712 67.5909 63.6709C68.0028 64.11 68.5436 64.4071 69.1353 64.5195C69.5724 64.6123 70.0144 64.6801 70.4591 64.723C70.841 64.723 71.2229 64.6466 71.6047 64.6719C72.1355 64.7286 72.6288 64.9724 72.9964 65.3596C73.3067 65.7064 73.6776 65.994 74.0911 66.2082C74.9258 66.5769 75.6572 67.1452 76.2211 67.8629C76.4967 68.2394 76.7381 68.6399 76.9424 69.0592C76.272 69.3052 75.8053 69.4666 75.2452 69.2035C74.6851 68.9404 73.9129 68.6094 73.2425 68.2956C72.4416 67.8436 71.559 67.5552 70.6458 67.447C69.5992 67.3903 68.5498 67.4101 67.506 67.5062C67.0735 67.5569 66.6351 67.5075 66.2246 67.362C65.5487 67.071 64.9081 66.7035 64.3153 66.2674C63.6933 65.7412 62.9494 65.3793 62.1514 65.2153C61.3501 65.0784 60.5352 65.0385 59.7244 65.0965C57.8406 65.266 55.9651 65.5124 54.0898 65.7751C52.1599 66.1326 50.1931 66.2494 48.2345 66.1232C47.004 65.9957 45.7736 65.9618 44.5516 65.8348C43.3431 65.7824 42.1459 65.5802 40.9875 65.2321C40.7317 65.1733 40.4685 65.1531 40.2068 65.1729C39.129 65.1729 38.0513 65.1729 36.9821 65.0879C35.7601 64.9861 34.5467 64.7483 33.3245 64.5959C31.7238 64.3277 30.1661 63.8482 28.6912 63.17C26.8244 62.4064 24.9915 61.5663 23.15 60.743C22.4465 60.4653 21.7657 60.1335 21.1133 59.7502C19.7049 58.8423 18.2961 57.9345 16.9551 56.9498C15.6146 55.9655 14.0277 55.2105 13.0434 53.7845C13.0052 53.7171 12.9494 53.6613 12.882 53.6235C12.3446 53.3158 11.9012 52.8668 11.6007 52.3251C11.511 52.1963 11.4118 52.074 11.3037 51.9602C10.3027 50.9455 9.38322 49.853 8.55434 48.6932C7.29579 47.1149 6.12824 45.4657 5.05813 43.7543C4.16916 42.3876 3.46477 40.9097 2.96212 39.3584C2.7329 38.4505 2.39336 37.5594 2.11349 36.6515C1.75679 35.4209 1.36661 34.1821 1.12923 32.9261C0.746346 31.1349 0.694832 29.2882 0.976418 27.4781C1.14597 26.4771 1.17989 25.4499 1.31553 24.4317C1.40052 23.8123 1.61256 23.2097 1.68082 22.5817C1.90059 21.154 2.30837 19.7615 2.89429 18.4408C3.42012 17.0152 4.03137 15.615 4.49796 14.1976C4.74178 13.3138 5.19935 12.5038 5.83035 11.8385C6.06857 11.5934 6.28706 11.3294 6.48366 11.0495C7.47135 9.50083 8.70029 8.11994 10.1241 6.95926C10.9727 6.33981 11.6771 5.44878 12.7889 5.1857C12.8258 5.17556 12.8601 5.15736 12.8897 5.13243C12.9189 5.10749 12.9425 5.07645 12.9584 5.04147C13.3147 4.26075 14.1208 3.9213 14.6557 3.34427C14.7625 3.22837 14.9068 3.15338 15.063 3.13214C15.8189 2.91468 16.6019 2.80608 17.3882 2.80964C17.9149 2.8584 18.4395 2.69675 18.8477 2.35988C19.962 1.55886 21.2047 0.953364 22.522 0.56936C22.9448 0.369245 23.4179 0.30121 23.8797 0.374182Z" fill="white"/>
<path id="Vector_2" d="M23.8797 0.374182C25.0855 0.827081 26.2028 1.48765 27.1807 2.32597C27.5056 2.66851 27.8606 2.98095 28.2418 3.25941C29.0479 3.76278 29.6218 4.56539 29.8368 5.49119C29.9111 6.00856 30.0364 6.51735 30.2103 7.01021C30.3502 7.27703 30.412 7.57806 30.388 7.87828C30.3639 8.17875 30.2554 8.46634 30.0746 8.70758C29.7604 9.16559 29.4891 9.64935 29.226 10.1245C29.0307 10.4641 29.0393 10.7864 29.4466 10.9731C29.854 11.1599 29.7437 11.3208 29.6162 11.6097C29.5316 11.8162 29.5316 12.048 29.6162 12.2544C30.0661 13.2559 30.5923 14.2234 30.9997 15.233C31.6457 16.6061 32.4183 17.9158 33.3077 19.1451C33.7404 19.8238 34.3854 20.3586 34.8607 21.0034C35.7092 22.1662 36.719 23.2015 37.5422 24.3978C38.9 26.3582 40.4529 28.1572 41.9634 30.024C43.2299 31.6646 44.2795 33.4614 45.0862 35.3702C45.4171 36.1425 45.8075 36.8894 46.1724 37.6358C46.8258 38.9854 47.4962 40.3173 48.1157 41.6669C48.54 42.5747 48.8709 43.5165 49.2782 44.4248C49.762 45.5022 50.2711 46.5633 50.7887 47.624C51.561 49.2276 52.2738 50.857 53.1394 52.4101C54.522 54.6722 56.216 56.7291 58.1715 58.52C58.3356 58.6874 58.5359 58.8148 58.757 58.893C60.2619 59.3514 61.7724 59.7957 63.2885 60.2254C63.9207 60.3494 64.5073 60.6426 64.9857 61.074C65.8343 61.9226 66.7338 62.7712 67.5909 63.6709C68.0028 64.11 68.5436 64.4071 69.1353 64.5195C69.5724 64.6123 70.0144 64.6801 70.4591 64.723C70.841 64.723 71.2229 64.6466 71.6047 64.6719C72.1355 64.7286 72.6288 64.9724 72.9964 65.3596C73.3067 65.7064 73.6776 65.994 74.0911 66.2082C74.9258 66.5769 75.6572 67.1452 76.2211 67.8629C76.4967 68.2394 76.7381 68.6399 76.9424 69.0592C76.272 69.3052 75.8053 69.4666 75.2452 69.2035C74.6851 68.9404 73.9129 68.6094 73.2425 68.2956C72.4416 67.8436 71.559 67.5552 70.6458 67.447C69.5992 67.3903 68.5498 67.4101 67.506 67.5062C67.0735 67.5569 66.6351 67.5075 66.2246 67.362C65.5487 67.071 64.9081 66.7035 64.3153 66.2674C63.6933 65.7412 62.9494 65.3793 62.1514 65.2153C61.3501 65.0784 60.5352 65.0385 59.7244 65.0965C57.8406 65.266 55.9651 65.5124 54.0898 65.7751C52.1599 66.1326 50.1931 66.2494 48.2345 66.1232C47.004 65.9957 45.7736 65.9618 44.5516 65.8348C43.3431 65.7824 42.1459 65.5802 40.9875 65.2321C40.7317 65.1733 40.4685 65.1531 40.2068 65.1729C39.129 65.1729 38.0513 65.1729 36.9821 65.0879C35.7601 64.9861 34.5467 64.7483 33.3245 64.5959C31.7238 64.3277 30.1661 63.8482 28.6912 63.17C26.8244 62.4064 24.9915 61.5663 23.15 60.743C22.4465 60.4653 21.7657 60.1335 21.1133 59.7502C19.7049 58.8423 18.2961 57.9345 16.9551 56.9498C15.6146 55.9655 14.0277 55.2105 13.0434 53.7845C13.0052 53.7171 12.9494 53.6613 12.882 53.6235C12.3446 53.3158 11.9012 52.8668 11.6007 52.3251C11.511 52.1963 11.4118 52.074 11.3037 51.9602C10.3027 50.9455 9.38322 49.853 8.55434 48.6932C7.29579 47.1149 6.12824 45.4657 5.05813 43.7543C4.16916 42.3876 3.46477 40.9097 2.96212 39.3584C2.7329 38.4505 2.39336 37.5594 2.11349 36.6515C1.75679 35.4209 1.36661 34.1821 1.12923 32.9261C0.746346 31.1349 0.694832 29.2882 0.976418 27.4781C1.14597 26.4771 1.17989 25.4499 1.31553 24.4317C1.40052 23.8123 1.61256 23.2097 1.68082 22.5817C1.90059 21.154 2.30837 19.7615 2.89429 18.4408C3.42012 17.0152 4.03137 15.615 4.49796 14.1976C4.74178 13.3138 5.19935 12.5038 5.83035 11.8385C6.06857 11.5934 6.28706 11.3294 6.48366 11.0495C7.47135 9.50083 8.70029 8.11994 10.1241 6.95926C10.9727 6.33981 11.6771 5.44878 12.7889 5.1857C12.8258 5.17556 12.8601 5.15736 12.8897 5.13243C12.9189 5.10749 12.9425 5.07645 12.9584 5.04147C13.3147 4.26075 14.1208 3.9213 14.6557 3.34427C14.7625 3.22837 14.9068 3.15338 15.063 3.13214C15.8189 2.91468 16.6019 2.80608 17.3882 2.80964C17.9149 2.8584 18.4395 2.69675 18.8477 2.35988C19.962 1.55886 21.2047 0.953364 22.522 0.56936C22.9448 0.369245 23.4179 0.30121 23.8797 0.374182ZM23.8119 1.74889L22.9633 3.1915C23.6763 3.1915 23.8119 2.51265 24.3635 2.34292C24.737 3.09818 23.6677 3.1915 23.7952 3.78553C24.1768 4.03162 24.3807 3.66672 24.6434 3.47154C24.8898 3.22747 25.1224 2.96967 25.3396 2.69933L23.8119 1.74889ZM25.8229 11.3041C25.9367 10.9701 26.1651 10.6873 26.4681 10.5066C26.884 10.2095 27.4013 9.98888 27.5034 9.38622C27.5116 9.3493 27.5279 9.31497 27.5515 9.28578C27.5751 9.25616 27.6052 9.23255 27.6391 9.21667C28.2418 9.07244 28.3946 8.50369 28.6744 8.08775C28.9114 7.70186 29.0299 7.25492 29.0148 6.80224C28.9998 6.34955 28.8517 5.91134 28.5894 5.54214C28.5302 5.77123 28.4877 6.00036 28.4113 6.221C28.3594 6.39424 28.2697 6.5537 28.1482 6.68772C28.0889 6.75562 27.919 6.68772 27.7919 6.68772C27.7919 6.5774 27.7919 6.47558 27.8344 6.36527L28.2418 5.04147C27.8297 4.58466 27.3146 4.23268 26.7394 4.01467C26.9347 4.01467 27.0536 3.8619 26.8583 3.71763C26.4509 3.40368 26.0097 3.12363 25.6109 2.86905C25.331 3.27636 25.0846 3.60731 24.864 3.97222C24.8074 4.11503 24.7812 4.26835 24.788 4.42198C24.9443 4.39241 25.0954 4.34098 25.2375 4.26921C25.4778 4.06347 25.7075 3.84537 25.9251 3.61581L26.7737 4.05708C25.9843 4.01467 25.5178 4.54925 25.6873 5.45728L26.5359 4.45593C27.1128 4.40503 26.6037 5.01601 26.9261 5.16874C27.1918 5.32357 27.4442 5.49952 27.6816 5.69487C27.7408 5.9155 27.8005 6.15309 27.8597 6.39072C27.7039 6.40819 27.5592 6.47975 27.4506 6.59294C27.342 6.70613 27.2768 6.85375 27.2656 7.01021C27.1978 8.13883 26.3239 8.80072 25.8062 9.66609C25.6925 9.83178 25.601 10.0116 25.5345 10.2009C25.4924 10.3499 25.4203 10.4885 25.322 10.6087C25.2241 10.7285 25.1027 10.8268 24.9649 10.8976C24.8271 10.9684 24.6764 11.0105 24.5219 11.0204C24.3674 11.0302 24.2124 11.0083 24.0665 10.956C24.3875 10.9186 24.6897 10.7851 24.9331 10.5735C25.1769 10.3615 25.3512 10.0807 25.4328 9.76825C24.9065 10.0992 24.4991 10.3366 24.1175 10.6169C24.0497 10.6675 24.1175 10.8375 24.0665 10.9646C23.6304 11.0208 23.1912 11.0521 22.7513 11.0581C22.2928 11.0247 21.8365 10.965 21.385 10.8796L20.5363 12.2291L21.2747 12.4073C21.3596 11.7621 21.5717 11.2869 22.2422 11.2363C22.2422 11.6775 22.2422 11.6775 21.9619 12.2884C22.1486 12.4498 22.3014 12.6026 22.4967 12.2884C22.7955 11.8831 23.1599 11.5303 23.5746 11.2449C23.5746 11.6604 23.5746 11.8724 23.5746 12.1613L24.0411 11.7454C24.1429 11.8385 24.2618 11.8982 24.3124 11.9999C24.3399 12.0604 24.3807 12.1141 24.4313 12.157C24.4824 12.1999 24.5425 12.2304 24.6069 12.2467C24.6713 12.263 24.7387 12.2647 24.8039 12.2514C24.8687 12.2377 24.9301 12.2098 24.9829 12.1695C25.3435 11.9716 25.6362 11.6702 25.8229 11.3041ZM18.2369 7.40902C19.0511 8.12509 19.959 8.72732 20.9351 9.1995C21.248 9.33814 21.5859 9.41069 21.928 9.41154C20.7012 8.64534 19.6066 7.68511 18.6863 6.5689C18.9752 6.52649 19.1533 6.44163 19.2465 6.50104C19.6281 6.6754 19.971 6.92342 20.2565 7.23084C20.9858 8.0577 21.8979 8.70286 22.9208 9.11451C23.2672 9.30209 23.6312 9.45533 24.0072 9.57294C24.194 9.64076 24.4313 9.70043 24.5163 9.32698L21.9194 7.81646C21.8516 7.77397 21.7584 7.7568 21.7159 7.69756C21.3257 7.16293 20.9437 6.61985 20.4685 5.94945C20.6505 5.97795 20.8278 6.03226 20.9948 6.11068C21.3511 6.37372 21.6906 6.65376 22.0297 6.95926C22.692 7.50144 23.4295 7.94438 24.2193 8.27447C24.491 8.40196 24.8219 8.35087 25.0679 8.72432C25.3139 9.09776 25.5602 8.54618 25.7809 8.32555C24.16 7.00171 22.1744 6.26341 20.8759 4.47289C20.2732 4.76988 19.5688 4.98206 19.2379 5.74578C19.1293 5.92679 18.9777 6.07831 18.7966 6.18704L17.1844 7.40052L17.7784 7.96069C17.7784 7.65507 17.7784 7.49388 17.7784 7.2563C17.9394 7.27866 18.0948 7.33043 18.2369 7.40902ZM7.53574 15.8271C7.53574 16.0902 7.53574 16.3615 7.59541 16.6246H7.69714L7.96886 16.0224C7.81604 15.946 7.6804 15.861 7.53574 15.7932L6.99274 15.2669C6.55148 15.9546 6.55148 15.9546 6.99274 16.3022L7.57008 15.7932L7.53574 15.8271ZM12.0845 18.5597L10.9216 18.6275C10.8199 19.1027 10.7349 19.4761 10.6418 19.9852L11.9231 19.7899C11.9656 19.4336 12.0167 19.0516 12.0845 18.5597ZM12.755 19.6714C13.1537 19.4336 13.1705 19.3486 13.0009 18.4661C12.7039 18.9923 12.7039 18.9923 12.755 19.6714ZM18.2708 25.5349L19.2975 25.4332L18.4489 26.1543C18.4489 26.4007 18.5253 26.6553 18.576 27.0029L20.1887 26.341C19.8998 27.0287 19.1872 27.1897 18.7545 27.6648C18.7545 27.9872 18.8391 28.31 18.9069 28.7255L21.1051 27.5631L19.9169 23.7784C19.3654 24.0583 18.8649 24.2789 18.3978 24.5507C17.9312 24.8224 18.1266 25.1533 18.2708 25.5349ZM16.9976 26.2904L17.7617 25.8912C17.7617 25.6113 17.6853 25.3654 17.6509 25.119C16.6924 25.2125 16.5903 25.4079 16.9976 26.2904ZM17.8973 26.6295C16.9809 26.884 16.9723 26.884 17.1844 27.8009L18.033 27.3596C17.9905 27.0454 17.9398 26.8248 17.8973 26.6295ZM18.118 28.0215L17.2693 28.3864C17.3543 28.7002 17.4475 29.0144 17.5492 29.3874C17.8548 29.2432 18.1094 29.1247 18.3978 28.9719C18.3214 28.607 18.2283 28.3267 18.118 27.9958V28.0215ZM17.3372 23.1251C16.7006 23.2269 16.616 23.2947 16.5989 23.8463C16.5989 24.1772 16.5989 24.5082 16.5989 24.9494C17.6342 24.2536 17.6342 24.2536 17.3372 23.0994V23.1251ZM18.1347 23.9737C18.8138 23.7613 18.8391 23.6256 18.5081 22.4375L17.8295 22.6839L18.1347 23.9737ZM19.34 23.4642C19.6538 23.5067 19.832 23.4222 19.8066 23.1504C19.6963 21.6146 19.5774 20.0783 19.4504 18.4322C18.9408 18.7039 19.0511 19.0262 19.0344 19.2808C19.0683 19.8006 19.0683 20.3221 19.0344 20.8424C18.958 21.3176 19.3061 21.691 19.204 22.1915C19.1838 22.6036 19.2293 23.0161 19.34 23.4136V23.4642ZM17.2522 22.2001C17.2522 21.7502 16.8959 21.7674 16.5396 21.6146C16.5396 21.9623 16.5396 22.2765 16.5396 22.6499C16.9131 22.531 17.2183 22.5225 17.2522 22.149V22.2001ZM17.9398 22.0387C18.6099 21.8691 18.7884 21.5807 18.5506 20.7827C17.6767 21.1055 17.6681 21.1308 17.9398 21.9881V22.0387ZM17.2268 19.7817C16.3782 20.1294 16.3782 20.1466 16.6753 21.1648C17.4986 20.893 16.8873 20.138 17.2268 19.7306V19.7817ZM17.8123 20.4857C18.4828 20.4857 18.5678 20.3672 18.5167 19.8238C18.5167 19.5439 18.4403 19.264 18.3893 18.9245C17.6003 19.3405 17.5406 19.3233 17.8123 20.435V20.4857ZM17.1676 18.4493C16.7006 18.4493 16.6328 18.7378 16.6414 19.1958C17.0826 18.9923 17.3457 18.8648 17.1676 18.3983V18.4493ZM17.8295 18.6786L18.5167 18.3643C18.4742 18.1098 18.4403 17.8892 18.4064 17.66C17.7106 17.8213 17.7106 17.8214 17.8295 18.6275V18.6786ZM16.8367 16.9813L16.7517 17.9145C17.3033 17.414 17.3033 17.414 16.8367 16.9216V16.9813ZM17.617 17.3123C17.784 17.2844 17.9484 17.2449 18.1094 17.1934C18.2034 17.1517 18.294 17.1036 18.3811 17.0491C18.3893 16.9191 18.3893 16.7886 18.3811 16.6585C18.3472 16.498 18.3047 16.3396 18.2536 16.1833C17.6428 16.2598 17.7359 16.7435 17.617 17.2951V17.3123ZM19.0683 18.0334H19.2379C19.2379 17.2612 19.1533 16.4976 19.0936 15.5639C18.8576 16.3486 18.849 17.1843 19.0683 17.9742V18.0334ZM18.3893 13.2134H18.1944C17.9536 14.0397 17.8475 14.899 17.8802 15.7592C18.0755 15.6318 18.2622 15.5725 18.2708 15.4961C18.33 14.7492 18.3893 13.9603 18.3893 13.2134ZM18.9327 15.2755C19.1276 15.1398 19.2804 15.0973 19.2804 15.0295C19.3473 14.2934 19.2636 13.5512 19.0344 12.8485C18.7425 13.6263 18.7095 14.4775 18.9408 15.2755H18.9327ZM17.405 13.9006C17.0895 14.5634 16.9744 15.3038 17.074 16.0305C17.4033 15.3725 17.5187 14.6278 17.405 13.9006ZM15.7077 13.4254C15.1819 13.2559 14.9441 13.4254 14.8591 13.9431L15.3854 14.2062C15.2922 14.308 15.2497 14.393 15.1987 14.393C15.0536 14.3887 14.9119 14.4372 14.7999 14.529C14.6874 14.6213 14.6123 14.7505 14.5878 14.8935C14.3672 15.8781 14.1208 16.8624 13.8663 17.9484L14.7913 18.1184C15.0798 16.5482 15.3854 15.0209 15.691 13.4512L15.7077 13.4254ZM20.3071 10.5066C20.0783 11.0156 19.8744 11.4908 19.6624 11.966L19.8066 12.0591L20.8162 10.71L20.3071 10.5066ZM23.8372 10.6422C23.5574 10.4748 23.2436 10.3731 22.9191 10.3434C22.5946 10.3142 22.2675 10.358 21.9619 10.4726C22.2241 10.6787 22.5392 10.8066 22.8706 10.8427C23.202 10.8787 23.5372 10.8212 23.8372 10.6761V10.6422ZM15.9962 12.6107C16.1151 12.263 16.3018 11.8896 15.852 11.4569L15.1987 12.7043C15.7756 13.0945 15.8438 13.052 15.9962 12.6451V12.6107ZM12.9498 12.9927C12.5086 12.8314 12.3897 13.1623 12.2034 13.6122C12.6021 13.6122 12.9245 13.9092 13.052 13.4254C13.1026 13.3409 13.0348 13.052 12.9498 13.052V12.9927ZM13.9002 13.9006C14.2655 13.8414 14.2822 13.5615 14.3161 13.2812C13.7817 13.3237 13.7817 13.3237 13.9002 13.9006ZM10.5061 14.8428C11.032 14.8428 11.0238 14.4608 11.1934 14.2741C11.1934 14.4608 11.1934 14.6561 11.117 14.9445L12.6189 15.1059L12.8309 14.2573C12.3983 14.2573 12.0587 13.9517 11.7024 14.3419C11.6346 14.4183 11.3715 14.3419 11.1934 14.2826L10.8796 14.1212L10.5061 14.8428ZM10.0816 14.2401C9.76783 14.444 9.75924 14.4355 9.51328 14.8853C9.90347 14.7492 9.90347 14.7492 10.0391 14.2741L10.0816 14.2401ZM12.2115 16.3615L12.4832 15.6828C11.1762 15.1823 10.7096 15.3266 10.4636 16.2683C10.9474 16.5315 10.8963 15.9713 11.1848 15.7932C11.2427 15.9992 11.3762 16.1756 11.5591 16.2876C11.7415 16.3993 11.9596 16.4379 12.169 16.3958L12.2115 16.3615ZM13.0941 16.4465C13.213 16.4465 13.3997 16.4465 13.425 16.4465C13.5224 16.2503 13.6023 16.046 13.6628 15.8357C13.4422 15.6318 13.2808 15.6575 13.2044 15.8781C13.1516 16.064 13.1147 16.2542 13.0941 16.4465ZM13.7985 15.1738C13.8856 14.9368 13.9508 14.6926 13.9938 14.444C13.5525 14.5204 13.2383 15.0038 13.4336 15.2077C13.492 15.2334 13.5555 15.2446 13.6195 15.2403C13.683 15.236 13.7444 15.2158 13.7985 15.1823V15.1738ZM9.47079 15.5047C8.95312 15.5725 8.94453 15.5811 8.91921 16.2937C9.51329 16.3276 9.51328 16.3276 9.47079 15.5133V15.5047ZM13.298 16.9131C13.1932 16.9547 13.1005 17.0208 13.028 17.1067C12.955 17.1921 12.9039 17.2942 12.8799 17.4037C12.8554 17.5136 12.8584 17.6273 12.8885 17.7359C12.9185 17.8441 12.9747 17.9433 13.052 18.0248C13.1649 17.8656 13.2447 17.6848 13.2868 17.4938C13.3293 17.3032 13.3331 17.1058 13.298 16.9131ZM10.2937 18.7631C9.58969 18.3729 9.19907 18.5425 8.99561 19.9852C9.95455 20.2058 10.1074 20.0702 10.3194 18.7631H10.2937ZM8.24872 19.7392C8.30796 19.4675 8.41828 19.2044 8.53718 18.8395L7.93494 18.6786C7.66108 19.1009 7.51128 19.592 7.50184 20.0955C7.91778 20.2311 8.20623 20.2058 8.27405 19.7392H8.24872ZM12.1098 18.1437C12.1098 17.6857 12.169 17.3715 12.1948 16.9641L11.2612 16.8792C11.1934 17.2784 11.1341 17.6007 11.0659 18.042L12.1098 18.1437ZM10.6929 16.9727C10.5611 16.9083 10.4104 16.8933 10.2688 16.9307C10.1271 16.9684 10.0035 17.0556 9.92064 17.1762C9.60643 17.5668 9.58111 17.6007 9.69142 18.1609H10.3619C10.4722 17.7364 10.5825 17.3462 10.6929 16.9302V16.9727ZM8.89388 18.1437C9.01235 17.7703 9.13126 17.3801 9.25016 16.9813C8.40154 16.8371 8.07059 17.1594 8.08733 18.2626L8.89388 18.1437ZM6.42442 16.7096C5.86426 17.4646 5.87284 17.6007 6.54289 17.7703C6.92493 16.9556 6.92493 16.9556 6.42442 16.7268V16.7096ZM8.12167 15.3944C8.62217 14.8089 8.39295 14.4101 7.43401 14.1895C7.14556 14.8681 7.14555 14.8681 8.09591 15.4111L8.12167 15.3944ZM8.80889 14.2998C8.80889 13.9431 8.80889 13.6718 8.74107 13.5697C8.67325 13.4679 8.19765 13.1202 7.79887 13.6461L8.80889 14.2998ZM10.7096 13.3576C11.4393 13.6379 11.5582 13.6036 11.8806 12.9163L11.1762 12.6026C10.9813 12.8996 10.8285 13.1284 10.6843 13.3748L10.7096 13.3576ZM9.21624 12.7043C8.98917 12.5682 8.75394 12.4463 8.51185 12.3394C8.51185 12.5687 8.41012 12.8314 8.46077 12.8571C8.68613 13.0138 8.95054 13.1052 9.22483 13.1202C9.39438 13.1202 9.3858 12.8399 9.19049 12.721L9.21624 12.7043ZM13.6967 11.7282C13.7731 11.2277 14.4689 10.9646 14.0105 10.3623C13.3997 10.9478 13.298 11.2616 13.6714 11.7454L13.6967 11.7282ZM12.8481 10.5147L11.6007 12.0591C11.5968 12.1072 11.5968 12.1557 11.6007 12.2034C11.7788 12.2034 12.0334 12.2544 12.1184 12.1527C12.4686 11.6775 12.7751 11.1723 13.0348 10.6422L12.8481 10.5147ZM14.851 11.9999C14.9441 11.7539 15.0205 11.5247 15.1562 11.1513C14.4604 11.5076 14.4264 11.6436 14.8677 12.0171L14.851 11.9999ZM18.3893 11.5586C18.576 11.7964 18.7799 11.9149 18.9833 11.6518C19.1872 11.3891 19.5268 10.8457 19.8319 10.4044C19.7049 10.328 19.5774 10.2177 19.5435 10.2348C19.0606 10.58 18.6657 11.0332 18.3893 11.5586ZM21.3596 10.1923L20.2565 9.92922C20.3033 10.0331 20.3732 10.1245 20.4612 10.1966C20.5496 10.2687 20.6531 10.3194 20.7638 10.3447C20.875 10.3705 20.9901 10.3701 21.1008 10.3434C21.2116 10.3168 21.3146 10.2653 21.4021 10.1923H21.3596ZM26.1118 7.5957C26.2561 6.79803 26.1118 6.39922 25.5006 6.15309C24.8898 5.907 24.3382 5.70337 23.8033 5.44878C23.5102 5.29361 23.2269 5.12075 22.9547 4.93115C22.5899 4.72747 22.2336 4.50684 21.8601 4.33712C21.6597 4.28406 21.4468 4.30205 21.2575 4.38803C22.7259 5.68852 24.3755 6.76897 26.1539 7.5957H26.1118ZM61.1076 60.2086C60.4979 59.8802 59.8143 59.7141 59.1219 59.7249L61.0737 60.3782L61.1076 60.2086ZM54.0303 64.8758L54.3613 64.0272L52.9442 63.4842L51.0009 64.7316C51.9732 65.0831 53.029 65.1334 54.0303 64.8758ZM58.7061 63.2636L58.1291 63.8066C58.1539 63.8435 58.1739 63.8834 58.1885 63.9255L59.5377 63.7216L58.7061 63.2636ZM60.4033 63.5688L60.887 63.4756V63.3314L60.3948 63.4078C60.4159 63.4602 60.4329 63.5138 60.4457 63.5688H60.4033ZM43.0496 57.5438C42.8629 57.6713 42.6762 57.7898 42.4725 57.9087C43.3211 58.6303 43.389 58.7573 44.3819 57.6035L43.6606 57.1451C43.4823 57.2979 43.2872 57.4249 43.092 57.5438H43.0496ZM43.0496 56.848L42.201 56.3218L41.1148 57.0348C41.9719 57.7984 42.2689 57.7645 43.0496 56.848ZM44.9929 57.9765C44.6279 58.1551 44.2885 58.3925 43.9321 58.6131C44.3649 59.063 44.3649 59.063 45.4256 58.2057C45.2304 58.104 45.0607 57.9426 44.9929 57.9765ZM52.0446 61.5663C50.636 60.5735 50.636 60.9212 49.7874 61.5917L51.1706 62.2707C51.4846 62.0243 51.7646 61.8037 52.0446 61.5663ZM51.8325 62.4149C52.5793 63.009 52.8423 63.0004 53.6909 62.3132C52.8084 61.6513 52.8084 61.6513 51.8325 62.4317V62.4149ZM47.9629 60.6499L49.2019 61.3032L49.991 60.6752L48.9388 60.0305L47.9629 60.6499ZM48.209 59.8013C47.3604 59.2411 47.3604 59.2411 46.5118 60.0133L47.4029 60.4378L48.209 59.8013ZM48.6163 61.702C47.9629 61.1757 47.6744 61.074 47.1483 61.1165L45.9942 60.4035L45.2983 60.7688C45.2983 60.5224 45.2983 60.3614 45.2983 60.1747L44.2631 59.7249L43.686 60.1747C45.0934 61.0929 46.5886 61.8689 48.1496 62.4913L48.6163 61.702ZM46.741 59.1054C45.8923 58.4178 45.8075 58.4264 45.0438 59.1986C45.5444 59.9622 46.1554 59.8944 46.741 59.1054ZM46.69 58.1972C47.2925 58.732 47.2925 58.732 47.9374 58.3586L49.3376 57.561C49.3376 57.4846 49.3376 57.4168 49.3376 57.3485L48.489 56.8734L46.69 58.1972ZM48.0478 59.0458L48.7776 59.4364L50.636 58.2822L49.6771 57.8323C49.3971 58.4517 48.5909 58.4942 48.0478 59.0205V59.0458ZM49.3801 59.6738L50.636 60.285L52.1465 59.4364L51.2979 58.6723L49.3801 59.6738ZM51.6713 60.5224C52.9526 61.2182 52.5793 61.371 53.92 60.3696C52.9951 59.7759 52.3332 59.8098 51.6713 60.5735V60.5224ZM53.4703 61.5067L54.3189 61.9479L55.3457 61.2779C54.8365 60.5138 54.3867 60.5735 53.4703 61.5238V61.5067ZM56.4743 61.2182L54.879 62.2707C55.2693 62.5253 55.5409 62.7201 55.8209 62.8815C55.8679 62.9069 55.9203 62.9202 55.9736 62.9202C56.0269 62.9202 56.0794 62.9069 56.1264 62.8815C56.8223 62.4403 57.5011 61.9823 58.1885 61.5238C58.1885 61.5238 58.2309 61.4307 58.2818 61.3118L57.0513 60.6499L56.4743 61.2182ZM53.6145 63.17C54.2425 63.17 54.8026 63.8491 55.5239 63.255C54.4037 62.5338 54.1322 62.4656 53.6145 63.1872V63.17ZM58.5619 62.1265C58.9352 62.5253 58.9692 62.5167 59.6056 61.7698C59.5129 61.7243 59.4119 61.6977 59.3086 61.6921C59.2054 61.6861 59.1021 61.7011 59.0048 61.7359C58.9074 61.7706 58.818 61.8247 58.742 61.8947C58.6659 61.9647 58.6046 62.0492 58.5619 62.1432V62.1265ZM59.9705 62.4235C60.4627 62.5253 60.4627 62.5253 60.607 62.0162L59.9705 62.4235ZM56.7034 63.3228L57.4247 63.7812C57.7557 63.4584 58.0527 63.1532 58.3836 62.839C57.6708 62.5167 57.3653 62.6184 56.678 63.3228H56.7034ZM54.7856 64.7144L55.9397 64.6041C55.2269 63.968 55.1336 63.968 54.7602 64.7144H54.7856ZM44.891 64.7144C46.4624 65.0917 48.0812 65.2317 49.694 65.1304C48.7267 64.8758 47.7423 64.6638 46.8003 64.3496C46.4833 64.1976 46.1268 64.1478 45.7803 64.207C45.4336 64.2663 45.114 64.432 44.8655 64.6805L44.891 64.7144ZM42.3452 64.3328L42.6932 64.3835C42.689 64.3328 42.689 64.2817 42.6932 64.2307H42.3452C42.3377 64.253 42.332 64.2757 42.3283 64.2989L42.3452 64.3328ZM45.0353 63.8997C44.9219 63.7692 44.7827 63.6636 44.6265 63.5894C44.4703 63.5151 44.3004 63.4739 44.1275 63.4683C43.9546 63.4627 43.7825 63.4928 43.6218 63.5567C43.4611 63.6207 43.3154 63.7173 43.1938 63.8405C43.7878 64.2564 44.3564 64.5277 45.0183 63.8658L45.0353 63.8997ZM41.1232 64.18C41.2845 64.2307 41.5136 64.0019 41.7767 63.8576C41.1402 63.3992 40.5886 63.0854 39.8419 63.6452C40.2013 63.9392 40.6431 64.1143 41.1063 64.1461L41.1232 64.18ZM31.5002 58.2397C31.9839 58.9865 32.1028 59.029 32.7729 58.6895L33.4352 58.3075L33.036 57.9173C32.9257 57.807 32.8072 57.7052 32.6458 57.5692L31.5002 58.2397ZM32.1792 57.179L31.5512 56.5763L30.8722 56.8734L30.2699 57.179C30.9658 58.0276 30.9658 58.0276 32.1792 57.179ZM29.7943 59.1394C30.2867 59.7248 30.5245 59.7248 31.3474 59.1394C30.728 58.5453 30.5837 58.5453 29.7943 59.1308V59.1394ZM34.2666 58.3414C35.0388 59.0797 35.1152 59.0797 35.8874 58.5878C35.268 57.8242 35.0813 57.7898 34.2666 58.3332V58.3414ZM33.9443 58.5539L32.739 59.1561C33.3249 59.818 33.5369 60.0047 34.6061 59.1054L33.9443 58.5539ZM32.1196 59.4025L31.5766 59.5974L31.0589 59.8013C31.9075 60.4378 31.9075 60.531 32.7561 59.9622L32.1196 59.4025ZM33.9185 60.0472C34.8607 60.7688 34.8607 60.7688 35.6668 60.1322L35.0473 59.4617L33.9185 60.0472ZM32.5355 60.6499C32.9429 60.8366 33.2485 60.9894 33.5623 61.0997C33.6558 61.0997 33.7829 61.0401 33.9185 60.9976C33.3163 60.3443 33.3163 60.3443 32.5355 60.6666V60.6499ZM35.4377 60.9044C35.9808 61.5324 35.9808 61.5324 36.736 61.0487C36.2099 60.4378 36.0741 60.4207 35.4377 60.9212V60.9044ZM38.1871 60.9976C38.9594 61.8462 39.0781 61.8462 40.3171 61.2182L39.0697 60.4885L38.1871 60.9976ZM37.3385 61.2946L36.5494 61.7105C37.1603 62.4235 37.3046 62.4403 38.2974 61.9226L37.3385 61.2946ZM39.8843 62.0754C40.5038 62.8223 41.2081 62.542 41.9973 62.2875C41.0978 61.4813 40.7923 61.4899 39.8334 62.0926L39.8843 62.0754ZM38.0683 62.6098C39.1884 63.5859 39.1545 63.4584 40.0795 62.9069C39.3921 62.5081 38.8066 61.9479 38.0174 62.627L38.0683 62.6098ZM41.9124 62.9579C42.2094 63.4584 42.2094 63.4584 43.5078 63.0343C42.8798 62.5678 42.3792 62.7884 41.8615 62.9751L41.9124 62.9579ZM38.6539 63.8658C37.941 63.3739 37.3131 62.8901 36.6427 62.4995C36.1981 62.3033 35.7346 62.1527 35.2595 62.0501C35.2595 61.9823 35.2595 61.7955 35.3104 61.6002C35.0473 61.4307 34.8352 61.0997 34.3684 61.3371L34.9116 61.8209C34.3234 61.8136 33.7443 61.6775 33.2146 61.4221C32.7411 61.1877 32.2535 60.9838 31.7547 60.8109C32.7729 62.1007 37.0585 64.3496 38.6029 63.883L38.6539 63.8658ZM28.0379 61.6513C28.9517 62.0492 29.9042 62.351 30.8808 62.5506C30.2189 62.1179 29.557 61.702 28.8779 61.2693C28.4791 61.0654 28.3263 61.4221 27.9872 61.6681L28.0379 61.6513ZM27.4013 61.244C28.0761 60.9765 28.6925 60.5821 29.2174 60.0811C29.7523 60.2932 29.3531 60.616 29.3277 60.8448C31.9839 62.8901 34.8946 64.2392 36.2014 63.9169C36.1114 63.8478 36.0148 63.7881 35.9129 63.7387C34.0625 63.0043 32.3432 61.9758 30.8215 60.6924C30.3631 60.3189 29.7351 60.1661 29.4213 59.5892C29.3887 59.5377 29.3423 59.4969 29.2874 59.4707C29.2325 59.4446 29.1715 59.4347 29.1114 59.4416C29.0509 59.4488 28.9938 59.4729 28.9466 59.5107C28.8994 59.5489 28.8637 59.5995 28.844 59.657C28.7169 60.2172 28.2757 60.4292 27.885 60.7177C27.6739 60.8628 27.4923 61.0469 27.3506 61.2607L27.4013 61.244ZM24.618 58.2482C24.3721 58.0104 24.2704 57.8409 24.1768 57.8409C23.6591 57.8409 23.3282 58.2057 22.9041 58.5706C23.6505 59.114 23.8969 58.2654 24.5674 58.2654L24.618 58.2482ZM21.385 58.1293C21.5545 58.486 21.7412 58.6809 22.2336 58.5028C21.8941 58.2229 21.7245 58.0276 21.3339 58.1465L21.385 58.1293ZM20.4093 57.5353L21.0368 57.8409C20.7909 57.391 20.7909 57.391 20.3582 57.5524L20.4093 57.5353ZM19.1447 56.551C19.713 57.1622 19.713 57.1622 20.1122 56.7463C19.7641 56.5935 19.5774 56.1608 19.0936 56.5682L19.1447 56.551ZM17.7698 55.7024C18.5081 56.3136 18.5081 56.3136 18.9494 55.8385C18.3892 55.2272 18.3892 55.2272 17.7192 55.7449L17.7698 55.7024ZM16.6667 54.8538C17.1504 55.3714 17.1504 55.3714 17.8802 54.9387C17.2947 54.3193 17.2947 54.3193 16.616 54.8709L16.6667 54.8538ZM15.3343 53.827C15.7335 54.4975 15.8691 54.5228 16.7178 54.0648C16.2593 53.3179 15.7502 53.8695 15.2836 53.8442L15.3343 53.827ZM14.6557 53.2668L14.893 53.5896L15.8352 53.1398C15.4193 53.0947 14.9986 53.1441 14.6046 53.284L14.6557 53.2668ZM13.807 52.4182C14.2483 52.8852 14.4518 52.8766 15.9962 52.3251C15.8945 52.1216 15.8013 51.9349 15.7077 51.7649L13.807 52.4182ZM12.5682 51.2811C13.2383 52.0791 13.3319 52.1298 14.2655 51.6885L14.893 51.4C14.2058 51.2983 13.6714 51.8499 13.0941 51.3408C13.4083 50.8995 13.9427 51.0605 14.3414 50.8399C14.7458 50.66 15.163 50.5098 15.5893 50.3904C15.7163 50.645 15.8099 50.8231 15.8859 51.0013H16.9551L16.2679 51.731C16.5903 52.2826 17.2693 52.2658 17.787 52.6646L16.9384 53.5132C17.1676 53.8781 17.4475 53.9287 17.8377 53.6742C18.1111 53.536 18.3948 53.4196 18.6863 53.3265C19.1108 54.1751 17.9819 53.8523 17.9819 54.4382C18.1265 54.6842 18.3214 54.8877 18.7202 54.5906C18.9919 54.4228 19.2756 54.2751 19.5688 54.1494C19.798 54.5906 19.798 54.5906 19.0005 55.2019C19.2465 55.8213 19.5521 55.7449 19.9594 55.4564C20.3668 55.168 20.8081 54.9216 21.1897 54.6589C21.2373 54.7276 21.2691 54.8061 21.2832 54.8885C21.297 54.9709 21.2931 55.0551 21.2712 55.1358C21.2493 55.2165 21.2103 55.2916 21.157 55.356C21.1034 55.4199 21.0364 55.4714 20.9609 55.5075C20.6638 55.711 20.3496 55.8891 20.0358 56.0758C20.426 56.7716 20.5363 56.8055 21.1304 56.3475C21.2747 56.2372 21.385 56.0672 21.5464 55.9994C21.7035 55.9732 21.864 55.9732 22.0215 55.9994C22.0215 56.1694 22.0215 56.3815 21.9194 56.4832C21.652 56.7223 21.3682 56.9438 21.0712 57.1451C21.2068 57.2554 21.3086 57.3571 21.4189 57.4589L22.938 56.2965C23.0015 56.3621 23.0483 56.442 23.0741 56.53C23.0998 56.6175 23.1037 56.7103 23.0852 56.8C23.0668 56.8897 23.0268 56.9734 22.9685 57.0438C22.9101 57.1142 22.8358 57.1695 22.7513 57.2043C22.4795 57.391 22.1825 57.5524 21.8009 57.7731L22.437 58.3332C23.0225 58.0448 23.5235 57.7477 23.5063 56.9244C23.7608 57.0687 24.0497 57.1279 24.1854 57.3065C24.2532 57.4361 24.3485 57.5499 24.4644 57.6391C24.5807 57.7284 24.7151 57.7915 24.8576 57.8237C25.0005 57.8559 25.149 57.8568 25.292 57.8259C25.4353 57.7954 25.5701 57.734 25.6873 57.6456C25.5942 58.0362 25.5259 58.2907 25.4753 58.4942C24.7412 58.6556 24.0819 59.0552 23.5999 59.6313C23.8205 59.8605 24.0072 59.903 24.2193 59.6909C24.6352 59.2836 25.0679 58.8934 25.4753 58.4942H25.6109C25.8062 58.4436 26.0354 58.2907 26.1457 58.5878C26.2561 58.8848 26.0015 58.9016 25.8315 59.029C25.3989 59.36 24.9829 59.7334 24.6013 60.0725C24.7623 60.4885 24.9743 60.4799 25.246 60.2932C25.7637 59.9283 26.2814 59.5806 26.8076 59.2411C27.0068 59.1325 27.2137 59.0389 27.427 58.9612C27.6644 59.4956 27.3167 59.657 27.0364 59.8098C26.5784 60.0897 26.0947 60.3443 25.4413 60.6585L26.5106 61.0911C27.3004 60.6293 27.958 59.9717 28.4199 59.1819C27.8172 58.7148 27.1807 58.2568 26.5698 57.7645C26.2466 57.5018 25.9401 57.2181 25.6534 56.9159C25.4413 56.6866 25.4581 56.6699 25.6534 56.2115C25.7693 56.3016 25.8796 56.3978 25.9843 56.5004C26.7961 57.4013 27.7473 58.1663 28.8015 58.7659C28.9075 58.8402 29.0333 58.8797 29.1625 58.8797C29.2913 58.8797 29.4175 58.8402 29.5231 58.7659C29.8115 58.5964 30.1171 58.4603 30.4395 58.2822C30.3464 58.0813 30.1978 57.9104 30.0115 57.7902C29.8252 57.6701 29.6089 57.6052 29.3874 57.6035C29.0264 57.6825 28.68 57.8169 28.3602 58.0023L28.2757 57.8581L28.9968 57.179C28.8697 56.933 28.4538 56.721 28.8187 56.254L29.769 56.9244L31.1181 56.2286C30.5245 55.6771 29.9811 55.1594 29.4213 54.6417C29.335 54.5391 29.2157 54.4696 29.0839 54.4464C28.9517 54.4232 28.8157 54.4473 28.6998 54.5147L27.461 55.2272C27.9361 55.7281 28.3602 55.9655 28.9715 55.6178C29.0839 55.529 29.2226 55.4805 29.366 55.4805C29.5093 55.4805 29.6484 55.529 29.7604 55.6178C29.2758 55.9243 28.7577 56.175 28.216 56.3643C27.7241 56.4746 27.3674 57.0519 26.7055 56.7802C26.9008 56.2965 27.4524 56.4579 27.6902 56.1012C27.3335 55.7874 27.0111 55.4311 26.4767 55.8213C26.2561 55.9827 26.0436 55.923 25.8569 55.626L26.4256 55.2272C25.9243 54.4657 25.3564 53.7502 24.7284 53.0887C24.5077 52.9277 24.2107 52.6813 24.4227 52.2401C24.5841 52.3165 24.788 52.3504 24.8898 52.4779C25.5096 52.9973 26.0552 53.5999 26.5106 54.2683C26.8076 54.8623 27.0703 54.9216 27.6391 54.5992C27.9533 54.4297 28.2499 54.2344 28.5727 54.0309C27.9786 53.4111 27.4438 52.8852 26.9433 52.3336C26.7819 52.1469 26.5106 51.8666 26.9944 51.5953C27.4863 52.1216 27.97 52.6732 28.4791 53.1823C29.3956 54.0815 30.3206 54.9727 31.2628 55.8385C31.4465 55.9668 31.65 56.0642 31.865 56.1269C31.9706 56.3458 32.0985 56.5536 32.2471 56.7463C32.5866 57.0773 32.9514 57.3829 33.3163 57.6795C33.834 58.1126 33.834 58.1126 34.5212 57.5949C34.2136 57.3915 33.9293 57.1554 33.6726 56.8905C33.4859 56.6527 33.0193 56.4407 33.4095 55.9316C33.7576 56.2626 34.0629 56.5763 34.3939 56.8566C34.7248 57.1365 34.8097 57.3571 35.1916 57.2807C35.2262 57.2829 35.2599 57.2923 35.2907 57.3086C35.3214 57.3245 35.3483 57.3468 35.3698 57.3743C35.4292 58.0023 36.0826 57.9765 36.3372 58.3586L37.2452 57.9937C36.9736 58.9612 36.0232 58.7831 35.548 59.2836C35.6923 59.6738 36.1081 59.7163 36.3966 59.9283C37.0275 59.6304 37.6872 59.3973 38.3653 59.2325C38.0768 59.8352 37.4064 59.8777 36.9397 60.2764C36.9722 60.3623 37.0232 60.4395 37.0893 60.5031C37.1553 60.5666 37.2346 60.6147 37.3214 60.6439C37.4083 60.6731 37.5005 60.6829 37.5915 60.6722C37.6825 60.6615 37.77 60.6306 37.8477 60.5821C38.1082 60.4653 38.358 60.3262 38.5945 60.1661C38.765 60.0442 38.9748 59.9897 39.1832 60.0129C39.3916 60.0365 39.584 60.1365 39.7231 60.2932C39.8419 60.4288 39.9824 60.5434 40.1389 60.6327C41.4542 61.3457 42.7526 62.0668 44.0848 62.7459C45.4791 63.4735 46.971 63.9967 48.5145 64.2989C48.5909 64.2989 48.6757 64.2989 48.7436 64.2989C49.2528 64.4345 49.7959 64.7655 50.2456 64.6719C50.7752 64.4513 51.2632 64.1409 51.6882 63.7555L52.3756 63.255C51.5864 62.7545 51.2894 62.7545 50.6784 63.255C50.4663 63.4164 50.2965 63.6198 50.0844 63.7641C49.8723 63.9083 49.728 63.9508 49.7365 63.6198C49.792 63.4954 49.8633 63.3782 49.9486 63.2717C50.1608 63.0511 50.3984 62.8648 50.6954 62.6098L49.3122 61.9823L48.523 62.5759C48.8964 63.009 49.6092 63.0004 49.7365 63.6198C48.1492 63.0841 46.6105 62.4141 45.1371 61.617C44.2376 61.1336 43.3551 60.6241 42.481 60.1069C42.2593 59.9438 42.052 59.7622 41.8615 59.5635C42.3283 59.3428 42.5998 59.6231 42.8798 59.7588C43.1599 59.8944 43.4739 59.8519 43.7284 59.4617L41.8106 58.3586C41.4881 58.3586 41.1742 59.0376 40.7499 58.4011L41.3015 57.9259L40.6565 57.4082L39.7485 57.8581L40.2238 58.3839C40.0329 58.3908 39.8419 58.3736 39.6552 58.3332C38.3249 57.7138 37.0811 56.9236 35.9553 55.9827C35.6668 55.7196 35.3274 55.5242 35.0134 55.2869C34.9285 55.2186 34.8607 55.1169 34.7164 54.9641C34.8712 54.9542 35.0265 54.9761 35.1725 55.0285C35.3185 55.0813 35.4521 55.1632 35.565 55.2697C36.4899 55.8724 37.4234 56.4493 38.3229 57.0858C38.5543 57.2666 38.8396 57.3649 39.1333 57.3649C39.4271 57.3649 39.7123 57.2666 39.9437 57.0858C39.3667 56.6527 38.8151 56.2372 38.2465 55.8213C37.678 55.4053 37.1348 54.9727 36.5494 54.4975C36.2778 54.2597 36.2778 54.1919 36.3117 53.7339C36.7275 53.7339 36.9567 54.0223 37.2282 54.2429C38.1532 54.9641 39.0697 55.7024 40.0031 56.4239C40.1928 56.5484 40.3913 56.6592 40.5971 56.7549L41.6239 56.008C40.9031 55.1353 40.0464 54.3846 39.0866 53.7845C38.0514 53.2226 37.1049 52.5105 36.2778 51.6718C36.2014 51.5782 36.0826 51.485 36.0571 51.3661C36.0439 51.3069 36.0447 51.2455 36.0594 51.1863C36.0741 51.1275 36.1024 51.073 36.142 51.0266C36.1939 50.9978 36.2523 50.9824 36.3117 50.9824C36.3711 50.9824 36.4296 50.9978 36.4814 51.0266C36.7753 51.3601 37.0869 51.6773 37.4149 51.9769C38.6114 52.9106 39.8334 53.8103 41.0639 54.7009C41.9124 55.3289 42.8204 55.9144 43.703 56.5257L45.2474 55.3375C45.3832 56.2879 44.5006 56.2965 44.2545 56.7802C44.8316 57.2301 45.0013 57.2215 45.519 56.7802C45.8144 56.563 46.1234 56.3643 46.4439 56.1861C46.5033 56.6527 46.5033 56.6527 45.5953 57.4082C45.7057 57.7052 45.9263 57.8323 46.1978 57.6881C46.7579 57.3657 47.284 57.0009 47.895 56.6107C47.1398 56.008 46.4609 55.4564 45.7651 54.9134C44.9164 54.2429 44.0679 53.6235 43.2193 52.9277C42.8704 52.574 42.5603 52.1843 42.2943 51.7649C42.2684 51.7048 42.255 51.6396 42.255 51.5739C42.255 51.5082 42.2684 51.4434 42.2943 51.3833C44.3106 53.2784 46.498 54.983 48.8285 56.4746C51.1162 58.0233 53.4905 59.4398 55.9397 60.7177L56.4998 60.3357C56.033 60.0811 55.6512 59.8605 55.2184 59.6313C54.7856 59.4025 54.548 59.2243 54.2255 58.9951C53.9031 58.7659 53.4194 58.4264 53.029 58.1465C52.8492 57.9808 52.6819 57.8023 52.5284 57.6117L52.6302 57.476C52.7624 57.4975 52.891 57.5374 53.012 57.5949C54.0558 58.2482 55.0487 59.0037 56.1434 59.5467C57.5181 60.2425 58.9692 60.7769 60.3863 61.3624C60.5903 61.4058 60.7975 61.4311 61.0058 61.4388C61.5319 61.5577 62.0496 61.6934 62.703 61.8462C62.2193 62.542 61.6592 62.1518 61.1585 62.2029V62.7287L63.0679 63.1447C63.3674 63.513 63.6936 63.8594 64.0438 64.18C64.6039 64.6127 65.2148 64.969 65.8088 65.3596C65.8937 65.4188 66.021 65.4527 66.0634 65.5291C66.6744 66.5134 67.7606 66.4288 68.6601 66.522C69.5481 66.543 70.4364 66.4919 71.3162 66.3692L66.8865 65.9537C66.9799 65.4527 67.2514 65.5038 67.5569 65.5377C68.7789 65.6648 70.0094 65.7669 71.2313 65.894C71.4644 65.9335 71.6942 65.9901 71.9187 66.064C71.7829 66.2082 71.7405 66.2846 71.6726 66.3099C71.5495 66.3357 71.4248 66.3529 71.2992 66.361C71.6254 66.3391 71.953 66.3563 72.2751 66.4117C72.6587 66.5447 73.0282 66.7151 73.3783 66.9207C73.8008 67.2568 74.3041 67.4762 74.8379 67.5573C74.6985 67.4135 74.5512 67.2775 74.3966 67.15C73.6074 66.5898 72.8097 66.0301 72.0036 65.4527C71.8354 65.3343 71.6396 65.2613 71.435 65.2407C70.7074 65.1158 69.9606 65.1621 69.2541 65.3763C68.7619 65.5888 68.3461 65.2578 67.8879 65.2321C67.8649 65.2287 67.843 65.2201 67.8239 65.2068C67.8048 65.1935 67.789 65.1763 67.7776 65.1557C67.5569 64.3581 66.8441 63.968 66.318 63.4584C65.785 62.8931 65.2182 62.3604 64.6208 61.8634C64.2592 61.6187 63.879 61.4032 63.4837 61.2182L62.8387 61.5749C62.414 61.4504 62.0042 61.2796 61.6168 61.0654C60.876 60.6911 60.0839 60.428 59.2662 60.285C58.4741 60.018 57.6978 59.7064 56.941 59.3514C56.4678 59.0853 56.0166 58.7818 55.5918 58.4436C55.1041 58.1409 54.639 57.8035 54.2001 57.4335C53.3515 56.5849 52.5029 55.6599 51.6543 54.7859C51.8495 54.4382 52.0531 54.5653 52.2059 54.7009C52.7829 55.1933 53.36 55.6856 53.9031 56.2033C54.4462 56.721 54.8705 57.1537 55.3457 57.6374L55.49 57.5271C55.398 57.3679 55.296 57.2146 55.1845 57.0687C54.7347 56.5935 54.268 56.1269 53.8182 55.6599C52.895 54.6048 52.1108 53.4355 51.4846 52.1808C50.9432 51.2494 50.4531 50.2891 50.0165 49.304C49.2867 47.6579 48.6418 45.9692 47.9035 44.323C47.2501 42.8718 46.5203 41.4544 45.8245 40.0203C45.4087 39.1721 45.0268 38.3235 44.5855 37.4748C43.9406 36.2189 43.3296 34.929 42.5658 33.7494C41.276 31.7805 39.8249 29.9137 38.535 27.9451C37.347 26.1204 35.9893 24.4489 34.7164 22.6499C33.4434 20.8505 32.366 19.2555 31.2456 17.5582C30.6515 16.6332 30.151 15.6489 29.6334 14.6814C29.1921 13.8328 28.7847 13.052 28.3688 12.2291C28.2246 11.9321 28.1057 11.6179 27.97 11.2955C27.6563 11.3466 27.5799 11.5161 27.6983 11.7454L29.3024 14.7492L29.4891 15.0973L30.694 17.4904C31.1181 18.339 31.5427 19.1876 31.9753 20.0363C32.32 20.7059 32.7085 21.3523 33.1382 21.9709C33.8254 22.947 34.4109 23.9991 35.0473 25.043C34.9867 25.0919 34.9151 25.1258 34.8385 25.1417C34.762 25.1572 34.6828 25.1542 34.6077 25.1323C34.5327 25.1108 34.4639 25.0713 34.4075 25.0172C34.3511 24.9632 34.3086 24.8962 34.2836 24.8224C33.6898 23.7531 32.7561 22.8706 32.4419 21.6399C32.4188 21.5361 32.369 21.4395 32.2977 21.3601C31.6058 20.6436 31.0327 19.8216 30.6009 18.9245C30.1648 18.1716 29.7712 17.3955 29.4213 16.5993C28.7255 15.1566 28.0636 13.7139 27.376 12.2716C27.376 12.1866 27.2403 12.1355 27.0283 11.9407C27.4185 13.8585 28.5388 15.2502 29.1668 16.8538C29.7943 18.4579 30.5073 20.0105 31.2117 21.6485C31.0761 21.6485 30.9318 21.6485 30.8554 21.5888C30.5352 21.3558 30.2755 21.0489 30.0982 20.6947C29.921 20.3402 29.8317 19.9487 29.8368 19.5525C29.8544 19.4121 29.8398 19.2696 29.7943 19.1361C29.7488 19.0022 29.6733 18.8807 29.5737 18.7803C28.8169 17.9033 28.2662 16.8684 27.9615 15.7507C27.8005 15.2669 27.4524 14.8256 27.5627 14.2655C27.5691 14.2406 27.5691 14.2144 27.5627 14.1895L26.4934 12.7043C26.4342 12.806 26.29 12.9335 26.3153 13.0181C26.3857 13.4851 26.5441 13.9345 26.7819 14.3419C26.9313 14.5677 27.0403 14.8175 27.1047 15.0802C27.4013 15.9288 27.7241 16.7774 28.0975 17.5496C29.0363 19.6431 30.015 21.7219 31.0336 23.787C31.5173 24.746 32.0857 25.6538 32.6205 26.5874L34.4363 29.8033C33.9331 29.6046 33.5155 29.235 33.2566 28.7598C32.3097 27.3154 31.4594 25.8101 30.7112 24.2536C30.0407 22.7178 29.2007 21.2497 28.4452 19.7474C28.2924 19.4422 28.1993 19.1112 28.055 18.8056C27.9108 18.5 27.7919 18.3133 27.6563 18.0587C26.8583 18.4236 26.6462 19.2044 26.0947 19.756C26.1711 20.0363 26.2561 20.3247 26.3664 20.6982L27.8426 19.3744L27.97 19.4508C27.9439 19.5997 27.8919 19.7431 27.8172 19.8749C27.5966 20.1294 27.3167 20.3415 27.0961 20.596C26.5273 21.2497 26.5188 21.4446 26.9858 22.2507C27.5541 21.8434 27.5541 21.8434 27.5034 21.1308L28.5727 21.1648C28.0211 21.6485 28.301 22.0812 28.5727 22.5478C28.7676 22.8873 28.9037 23.2522 29.1157 23.7106C28.3688 23.4389 28.0718 23.9905 27.7155 24.3725C27.1386 24.9833 26.6037 25.6366 26.0775 26.2904C25.9049 26.5471 25.7517 26.8166 25.6195 27.0965C25.4753 27.3425 25.6195 27.47 25.8062 27.682L28.6573 24.7627L28.7762 24.8224C28.7762 24.8983 28.7762 25.0172 28.7337 25.0597C28.1057 25.586 28.1821 26.1801 28.6152 26.8587L29.2174 26.3496C29.3617 26.7995 28.929 26.9098 28.8187 27.2747L29.0985 27.9194C29.2007 28.1319 29.2938 28.3439 29.3956 28.5645L29.9472 28.4289C29.3617 29.3621 29.9472 29.9901 30.3292 30.7284L31.0422 30.1004C30.9555 30.5717 30.7344 31.0078 30.4056 31.3564C29.8403 32.1775 29.2286 32.9652 28.5727 33.7155C28.41 33.8619 28.3109 34.0658 28.295 34.2838C28.2791 34.5023 28.3482 34.7178 28.4877 34.8865L28.7337 35.2685C29.7042 34.3624 30.6009 33.3807 31.4152 32.332L31.9668 33.5794L31.3388 33.1382C31.2847 33.1528 31.2332 33.1755 31.1864 33.2064L29.311 35.8115C29.0818 36.1253 29.2174 36.3459 29.5655 36.6005L31.8397 33.9868L31.9753 34.0889C31.3315 35.232 30.6262 36.3399 29.8626 37.4066L30.2442 37.8225L32.6458 35.2767C32.5866 35.9896 32.0178 36.3631 31.6869 36.8808C31.3559 37.3984 30.8975 37.9243 30.5073 38.4252C34.2157 44.6115 38.3823 50.3904 43.9321 55.0916C43.7275 55.0267 43.531 54.9383 43.3466 54.8284C42.7576 54.4086 42.1912 53.9584 41.6494 53.4793C40.682 52.6307 39.7146 51.6971 38.832 50.7296C37.8137 49.6096 36.8718 48.4215 35.9214 47.2333C34.971 46.0456 34.1393 45.0356 33.3245 43.8393C32.5102 42.6425 31.6277 41.2084 30.779 39.8932C30.3039 39.1635 29.7943 38.4591 29.3617 37.7122C28.929 36.9653 28.6744 36.3631 28.3349 35.6926C27.8511 34.6998 27.3167 33.7408 26.8922 32.7227C26.4681 31.704 26.2303 30.7876 25.8994 29.8205C25.3988 28.3778 24.8473 26.9604 24.406 25.501C23.8712 23.7445 23.3878 21.9623 22.9633 20.1719C22.7208 19.052 22.5452 17.9184 22.437 16.7774C22.3353 15.8696 22.3525 14.9445 22.3014 13.8667L21.8176 14.3165C21.8601 13.977 21.8941 13.7396 21.9365 13.4679L21.1982 13.2387C21.1132 14.0873 21.0201 14.8089 20.9776 15.5639C21.0154 16.8495 21.1605 18.1295 21.4103 19.3911C21.5803 20.7746 21.8773 22.1323 22.1061 23.5153C22.1061 23.7531 22.2847 24.0158 22.0044 24.2622C21.6799 23.7776 21.479 23.2213 21.4189 22.6414C21.1897 21.1055 21.0626 19.5611 20.7741 18.042C20.5793 16.6963 20.511 15.3356 20.5703 13.977C20.5548 13.7229 20.5179 13.4701 20.4599 13.222C20.0697 13.222 20.1037 13.4426 20.1037 13.6379C20.1037 14.2148 20.1037 14.7917 20.1037 15.3347C20.0998 15.6197 20.071 15.9035 20.0187 16.1833C19.8693 16.8088 19.8929 17.4629 20.0865 18.0759C20.2028 18.536 20.2543 19.0099 20.2393 19.4847C20.2904 20.4775 20.3157 21.4785 20.3668 22.48C20.3668 22.7856 20.3668 23.159 20.9012 23.0826C20.769 23.2848 20.666 23.5046 20.5956 23.7359C20.6085 23.9437 20.657 24.1476 20.7402 24.3386C21.2832 26.1204 21.767 27.928 22.437 29.6844C22.8191 30.7537 23.0736 31.8487 23.4046 32.9175C23.8033 34.1907 24.406 35.4042 24.9151 36.643C25.0168 36.8975 25.1357 37.1521 25.2885 37.4916C25.1228 37.4375 24.9726 37.3444 24.8498 37.2207C24.7275 37.0967 24.6365 36.9451 24.5841 36.779C23.7608 35.2209 23.1067 33.5794 22.6324 31.8826C22.3847 30.9997 22.0842 30.1326 21.7331 29.2857C21.5717 28.8444 21.3936 28.437 21.2154 27.9365C21.0626 27.9954 20.9154 28.0662 20.7741 28.1486C19.9255 28.6916 19.0005 29.2603 18.1094 29.8458C17.6681 30.1176 17.6595 30.109 17.8802 30.7794C18.9657 30.2884 20.0148 29.7214 21.0201 29.0822C20.8673 29.566 20.8759 29.566 19.6791 30.406C19.1872 30.7455 18.6695 31.0679 18.1347 31.4156L18.245 32.1797C19.4671 31.8569 20.2732 30.7962 21.5545 30.703C20.6127 31.3478 19.6963 32.0097 18.7374 32.6291C18.6489 32.6651 18.5704 32.7218 18.5081 32.7943C18.4459 32.8669 18.4017 32.9532 18.3794 33.0459C18.3571 33.1386 18.3571 33.2356 18.3794 33.3283C18.4017 33.421 18.4459 33.5073 18.5081 33.5794L20.5024 32.5698C20.2814 33.0553 19.9131 33.4588 19.4504 33.7241C19.3229 33.8172 19.1615 33.8597 19.0258 33.9447C18.6017 34.2246 18.6017 34.2418 18.873 34.8951C19.5349 34.4963 20.1968 34.1143 20.8759 33.7155C20.8759 34.1654 20.5788 34.4366 19.0683 35.557C19.0572 35.6497 19.0572 35.7437 19.0683 35.8368C19.119 35.9227 19.1756 36.0051 19.2379 36.0828C19.8916 35.8879 20.2307 35.2346 21.0368 35.0899C20.6965 35.581 20.2848 36.0188 19.8152 36.3884C19.4079 36.7026 19.4164 36.7108 19.6877 37.3645L21.6481 36.0914C21.5631 36.3459 21.5545 36.5073 21.47 36.5837C21.0368 36.9572 20.6213 37.3134 20.1376 37.6697C19.8744 37.8822 19.7388 38.0942 20.0865 38.408L21.0287 37.7375L21.1815 37.8989L20.2818 39.0107C20.2818 39.206 20.3329 39.4009 20.3749 39.664L19.4079 39.4009C19.5315 38.9914 19.5426 38.5561 19.4396 38.141C19.3366 37.7255 19.1233 37.3461 18.8224 37.0417C18.8224 36.9739 18.6949 36.9061 18.7035 36.8469C18.8816 35.8368 18.245 34.9968 18.1094 34.055C17.9737 33.1128 17.787 32.4084 17.6089 31.5856C17.5763 31.3765 17.5136 31.1735 17.4222 30.9829C17.0084 30.0291 16.7233 29.0247 16.5735 27.9958C16.3692 27.1334 16.2104 26.2612 16.0984 25.3821C15.9829 24.2545 15.9318 23.1213 15.9455 21.9881C15.9455 20.2908 16.0473 18.5339 16.1237 16.8027C16.1237 16.2344 16.234 15.6743 16.3018 15.1059C15.8777 15.1059 15.8352 15.3858 15.8013 15.5978C15.5863 17.2612 15.3798 18.9245 15.1819 20.5878C15.1858 20.6668 15.1858 20.7462 15.1819 20.8252C15.0227 22.0147 14.9604 23.2153 14.9952 24.415C15.0068 24.5751 14.9797 24.7361 14.9162 24.8837C14.8527 25.0314 14.7548 25.1615 14.6303 25.2636C14.4106 24.6902 14.3548 24.0673 14.4689 23.4642C14.5539 21.937 14.6557 20.4179 14.7574 18.8992C14.7574 18.7717 14.7574 18.6442 14.7574 18.4493H13.8156C13.7199 19.577 13.4748 20.6874 13.0859 21.7502H12.9245C12.9245 21.2326 12.882 20.7063 12.8567 20.053C12.3588 21.1862 12.0849 22.4053 12.0506 23.6428C12.5425 24.1944 13.052 23.3539 13.6289 23.6428C13.1537 24.1858 12.4832 23.9819 11.9317 24.2536C11.7024 25.8066 11.4651 27.385 11.2273 29.0144L12.0759 29.0908L12.127 29.235L11.414 29.5149C11.414 29.9222 11.414 30.3635 11.414 30.8387H12.3558C12.2879 31.4834 11.711 31.1782 11.5071 31.4753C11.5754 31.7212 11.6346 31.9929 11.7196 32.2814C11.083 32.3745 11.2783 31.7551 10.9813 31.5684L9.01235 31.6873C9.08018 32.1372 9.13984 32.5359 9.21624 33.0622L11.2865 32.7566C11.032 33.2317 10.6589 33.1892 10.3619 33.2485C10.0649 33.3081 9.69142 33.3506 9.2669 33.4185C9.36047 33.8258 9.43687 34.1735 9.53861 34.5894L10.7182 34.4113C10.5061 34.9457 10.0224 34.7508 9.78457 34.9968C9.6236 35.5737 9.97987 35.9811 10.3108 36.4562L10.8877 36.3717C10.9083 36.4064 10.9255 36.4434 10.9388 36.482L10.3022 36.9572L10.9727 39.2141L12.3137 38.909C12.0081 39.2991 11.4651 39.5537 10.158 39.9443C10.3048 41.2247 10.6937 42.4657 11.3037 43.6015C11.9857 45.0515 12.8404 46.4135 13.8495 47.6579C14.2492 48.2528 14.593 48.8834 14.8763 49.5418C14.0277 50.0256 12.8314 49.8981 12.0248 50.6956C12.2115 50.9163 12.3901 51.103 12.5511 51.3069L12.5682 51.2811ZM25.4242 26.0779L28.3096 23.2947C28.1568 22.9637 28.004 22.6242 27.8344 22.2765C27.0961 22.6075 27.1807 23.1251 27.3845 23.8377L26.7651 23.4728L24.9915 25.5602C24.9915 25.6791 25.1018 25.8998 25.1868 26.129C25.2684 26.1268 25.3491 26.1097 25.4242 26.0779ZM26.5784 22.9212C26.417 22.5396 26.29 22.2254 26.1539 21.9116C25.744 22.21 25.4452 22.6371 25.3053 23.1251C25.2641 23.2187 25.2031 23.3024 25.1271 23.3711C24.9743 23.5325 24.703 23.6681 24.6777 23.8377C24.6824 24.1721 24.7369 24.5039 24.8387 24.8224L26.5784 22.9212ZM24.7116 21.4785C24.0497 21.9623 24.0411 21.988 24.3043 22.777C25.0168 22.4546 25.0426 22.3868 24.7116 21.4785ZM25.3478 21.7163C25.9333 21.2665 25.9333 21.2665 25.6109 20.4011C24.8983 20.766 25.3224 21.2497 25.3478 21.7163ZM24.3296 19.4928C24.1905 19.5765 24.069 19.6869 23.9725 19.8178C23.8763 19.9487 23.8068 20.0972 23.7681 20.2552C23.7295 20.4127 23.7222 20.5767 23.7475 20.7372C23.7724 20.8978 23.8291 21.0514 23.9137 21.1901C24.072 21.1261 24.2124 21.0252 24.324 20.8965C24.4356 20.7673 24.515 20.6136 24.5554 20.4479C24.5962 20.2822 24.597 20.1092 24.5575 19.9431C24.5185 19.7774 24.4403 19.6229 24.3296 19.4928ZM24.9151 19.9427C25.5431 19.892 25.3903 19.298 25.7637 19.0941C26.0577 18.891 26.341 18.673 26.6123 18.4408L26.0354 17.5921C25.5345 17.9145 25.8148 18.4408 25.6362 18.8142L25.2293 18.5511C24.5249 18.9331 25.0001 19.4589 24.8898 19.9427H24.9151ZM26.6973 17.5157C26.7763 17.6969 26.8669 17.8724 26.9686 18.042C27.1214 17.7874 27.3335 17.5835 27.291 17.4646C27.106 16.7186 26.7772 16.0155 26.3239 15.3944C26.2728 15.6489 26.1797 15.8099 26.2303 15.9035C26.4286 16.4254 26.5763 16.9654 26.6716 17.5157H26.6973ZM25.6448 16.3108C25.331 16.6843 25.5178 16.871 25.7551 17.0577C25.6959 16.8452 25.6706 16.6332 25.6195 16.3108H25.6448ZM24.1515 18.1437C23.3878 18.67 23.3878 18.67 23.5574 19.298C24.024 18.9923 24.3888 18.7125 24.1515 18.1437ZM24.7537 18.1437C25.0426 17.7535 24.8387 17.5157 24.7537 17.117C24.4652 17.5668 24.652 17.7789 24.7537 18.1437ZM23.6338 16.1069C22.853 16.4976 23.2011 17.0916 23.2436 17.6346C24.024 17.2951 24.0411 17.2019 23.6338 16.1155V16.1069ZM24.4824 16.701C24.9151 16.158 24.4824 15.7507 24.4824 15.233C24.1343 15.7678 24.1343 15.8017 24.4991 16.7096L24.4824 16.701ZM25.331 15.8524C25.6023 15.2244 25.1868 14.936 25.1696 14.5372L24.9065 14.6136C25.0593 15.0124 25.1782 15.3858 25.3564 15.8863L25.331 15.8524ZM26.0522 15.0888C26.1372 14.9192 26.1797 14.8681 26.1711 14.8342C26.0607 14.5372 25.9418 14.2401 25.7723 13.8075C25.6023 14.4354 25.9251 14.6986 26.0775 15.1227L26.0522 15.0888ZM23.1247 14.4015C23.1247 14.69 23.1247 14.9784 23.1247 15.3433C23.481 14.9956 23.481 14.9956 23.15 14.4354L23.1247 14.4015ZM24.2532 14.6308C24.194 14.2316 24.1429 13.8925 24.0918 13.4851C23.7441 14.1637 23.7608 14.2741 24.2785 14.6647L24.2532 14.6308ZM24.7369 13.8667H24.9404C24.9404 13.5954 24.864 13.3237 24.8134 13.0181C24.4738 13.349 24.8048 13.6207 24.7623 13.9006L24.7369 13.8667ZM28.7594 29.5402C28.8594 29.4531 28.9281 29.3346 28.9543 29.2041C28.9805 29.0736 28.9625 28.9384 28.9037 28.8191C28.7762 28.5306 28.683 28.2336 28.4963 27.7245C28.0379 28.31 27.6477 28.7513 27.3421 29.1925C27.16 29.4325 26.9901 29.6819 26.833 29.939C26.5445 30.406 26.833 30.7876 27.0875 31.246L28.7594 29.5402ZM27.3421 32.2303C27.4695 32.6209 27.5966 33.0025 27.7666 33.5374L30.2356 30.9915C29.9811 30.7284 29.7943 30.5502 29.6248 30.3549C29.4552 30.1596 29.3277 29.9901 29.1582 29.778C28.4272 30.4944 27.8142 31.3224 27.3421 32.2303ZM26.8244 28.8955C27.0283 28.7255 27.1978 28.5306 27.4013 28.3692C28.0975 27.8176 28.4877 27.215 27.7241 26.3157L26.2728 28.013C25.9672 28.3778 26.1457 28.7427 26.3153 29.2011C26.502 29.099 26.6802 29.0058 26.8244 28.8955ZM9.59785 20.5539C8.59684 20.5539 8.49468 20.6643 8.19765 21.9962L11.6007 21.7927C11.6685 21.3176 11.7449 20.8849 11.8042 20.4689C11.6441 20.3775 11.4659 20.3213 11.2822 20.3041C11.0985 20.2865 10.9131 20.308 10.7384 20.3676C10.5637 20.4269 10.4035 20.5226 10.2683 20.6484C10.1331 20.7737 10.0262 20.927 9.95454 21.0969L9.59785 20.5539ZM8.062 20.7402L7.53574 20.6385L6.82319 22.0898H7.67181C7.82463 21.5382 7.93494 21.1815 8.062 20.7402ZM6.36476 21.4785C6.72147 21.1223 6.67038 20.8677 6.36476 20.6299C6.25444 20.9609 6.25444 20.9609 6.39867 21.4785H6.36476ZM4.9564 21.1815C4.76968 22.0301 4.76968 22.0301 5.34658 22.0301C5.4569 21.691 5.66037 21.309 4.99031 21.1815H4.9564ZM8.20622 24.1347L11.3462 23.9227C11.3968 23.32 11.4565 22.7856 11.5157 22.1323L7.92636 22.3529C7.80746 22.6474 7.77097 22.9689 7.81991 23.2827C7.86927 23.5964 8.00276 23.8909 8.20622 24.1347ZM6.37334 23.3964C6.37334 23.6342 6.37334 23.8634 6.37334 24.1347C6.53174 24.1433 6.69012 24.1433 6.84852 24.1347C7.53574 24.0755 7.55291 24.033 7.49368 23.2861C7.47565 23.0036 7.47565 22.7203 7.49368 22.4375C6.50898 22.48 6.44975 22.5396 6.40726 23.3964H6.37334ZM8.20622 26.0951C8.39294 26.0951 8.57967 25.8152 8.80889 25.6199C8.96986 25.9676 9.32656 25.9848 9.72533 25.9084C10.1241 25.832 10.6504 25.7641 11.1509 25.6877C11.2273 25.2636 11.3037 24.8391 11.3887 24.4403C10.813 24.2862 10.2074 24.2862 9.63175 24.4403C9.08876 24.4403 8.54576 24.5931 7.99418 24.6696L7.69714 25.416H7.53574C7.47651 25.1701 7.41727 24.9327 7.36619 24.712C7.31339 24.6803 7.25631 24.6575 7.19664 24.6438C6.08489 24.746 6.0424 24.8224 6.34801 26.1968C6.98416 26.1968 6.98416 26.1968 7.32369 25.8152C7.60142 25.9543 7.89931 26.0487 8.20622 26.0951ZM7.57008 27.8348L8.70716 27.8855C8.63891 27.4275 8.57967 26.9862 8.50327 26.4685L7.57008 26.6042V27.8348ZM6.89101 26.7231L6.27161 26.9265C6.27161 27.2832 6.27161 27.6142 6.27161 28.0215L7.02666 27.9705C7.04382 27.5378 6.98416 27.139 6.92493 26.7231H6.89101ZM10.3362 27.6395C10.7096 27.5717 10.9641 27.4189 10.9302 26.969C10.9551 26.6827 11.0036 26.399 11.0745 26.1204L9.15658 26.4007C9.12825 26.4861 9.10851 26.5741 9.09734 26.6634C9.18233 27.7666 9.28407 27.8516 10.3701 27.6395H10.3362ZM8.37621 28.3014C7.73964 28.437 7.08632 28.4967 6.39867 28.5984C6.39867 29.1075 6.45834 29.4471 6.48366 29.8883L8.50327 29.4046C9.2729 29.5527 10.0692 29.4728 10.7946 29.1754C10.7946 28.7598 10.7946 28.3267 10.7946 27.9872C9.75924 27.928 9.47938 28.0555 9.25874 28.7088C9.16989 28.5693 9.04197 28.4589 8.8913 28.3911C8.74064 28.3233 8.57323 28.301 8.41012 28.3267L8.37621 28.3014ZM7.79071 31.1868C7.83492 31.2053 7.88258 31.2147 7.93065 31.2147C7.97873 31.2147 8.02637 31.2053 8.07059 31.1868C8.11094 31.1615 8.1457 31.1284 8.17188 31.0885C8.19807 31.049 8.21568 31.0044 8.2234 30.9576C8.2234 30.652 8.2234 30.3463 8.16373 30.0411L7.97701 29.9137C7.83278 30.0326 7.57008 30.1515 7.57008 30.2699C7.60614 30.5871 7.69199 30.8962 7.82463 31.1868H7.79071ZM6.83994 30.4227C6.50899 30.9237 6.50898 30.9743 6.96742 31.3224C6.95883 31.0421 6.91634 30.7537 6.87385 30.4227H6.83994ZM8.85954 31.2714L10.871 31.0846C10.871 30.6009 10.8285 30.1854 10.8032 29.693L8.67325 30.0072C8.7664 30.3721 8.82563 30.7709 8.89388 31.2628L8.85954 31.2714ZM7.93494 32.7991C7.93494 33.0536 8.09591 33.2485 8.48653 33.045C8.39294 32.6377 8.29122 32.1964 8.1809 31.7384C7.65465 32.0608 7.9431 32.4595 7.96886 32.7905L7.93494 32.7991ZM7.08633 32.205C6.56007 32.4342 6.91634 32.8669 6.7807 33.2656C7.40868 33.0789 7.40869 33.0789 7.14556 32.1964L7.08633 32.205ZM6.90775 33.9022C7.02666 34.2585 7.16273 34.6573 7.31512 35.0899L8.91062 34.7423C8.85096 34.4701 8.77712 34.201 8.68999 33.9361C8.63891 33.8005 8.49468 33.6052 8.41827 33.6219C8.26418 33.676 8.12853 33.773 8.02809 33.9022C7.96027 33.97 7.95168 34.0804 7.90103 34.2074C7.604 34.1482 7.519 33.4949 6.96742 33.8936L6.90775 33.9022ZM8.28264 35.4552C8.46936 35.9047 8.64749 36.3545 8.8428 36.8383L9.52145 36.7365C9.67426 35.2853 9.44547 35.0393 8.3423 35.4466L8.28264 35.4552ZM8.85139 38.8493L8.20622 39.121C8.36762 39.5198 8.44403 39.9185 9.09734 39.7318C9.05485 39.4434 9.0042 39.1888 8.91062 38.8411L8.85139 38.8493ZM10.1327 39.4687C10.1752 39.4309 10.2091 39.3837 10.231 39.3305C10.2533 39.2777 10.2632 39.2206 10.2597 39.1635C10.2597 38.7136 10.0391 38.6201 9.41113 38.7986C9.51758 39.0193 9.63948 39.2317 9.77641 39.4348C9.83393 39.4824 9.90519 39.5103 9.97987 39.5146C10.0546 39.5193 10.1288 39.5005 10.1919 39.4605L10.1327 39.4687ZM11.1594 49.6521C11.3887 50.0934 11.5329 50.2376 11.9063 50.0337C12.4553 49.7367 13.0224 49.4731 13.6036 49.2448C13.8663 49.1345 13.8242 49.0156 13.7306 48.8628L11.1594 49.6521ZM10.4465 48.6932C10.8624 49.2873 11.1341 49.304 11.9317 48.7949C11.5157 48.1584 11.2784 48.1416 10.4465 48.6932ZM10.1241 47.1994L9.59785 47.3694C9.59785 47.3694 9.59785 47.3694 9.4622 47.4711L9.88673 48.0905L11.117 47.7682C10.701 46.996 10.701 46.996 10.1241 47.1913V47.1994ZM8.33371 46.1473L9.05485 46.996L10.2516 46.5122C9.82706 45.5872 9.60643 45.5447 8.33371 46.1473ZM7.54433 44.9425L8.09591 45.6383L9.3858 45.1798L8.94453 44.4076C8.43416 44.4312 7.94396 44.6154 7.54433 44.9339V44.9425ZM6.69571 43.3641L7.22196 44.357L7.96886 44.1445C8.16373 44.0767 8.35904 43.9835 8.54576 43.9071C8.04526 42.8039 7.87527 42.7529 6.65321 43.3555L6.69571 43.3641ZM5.92349 42.0231L6.28835 42.8039L7.00134 42.6086L7.57824 42.4219C7.30695 41.6411 6.89101 41.5394 5.881 42.0146L5.92349 42.0231ZM5.15128 40.3259C5.33801 40.7079 5.47364 40.9964 5.65221 41.3441L6.8996 41.0556L6.38193 40.0121L5.15128 40.3259ZM4.6761 39.1888L5.07487 39.9271C5.2191 39.4266 4.93065 39.2991 4.8375 39.0785L4.6761 39.1888ZM3.71716 36.8129L4.99847 36.6176C5.2792 36.5648 5.56249 36.5279 5.84708 36.5073C6.06729 36.5236 6.28234 36.5781 6.48366 36.6687C6.48366 36.6687 6.48366 36.9147 6.48366 36.94C6.24586 37.0842 5.90675 37.3474 5.75394 37.2709C5.13454 36.9572 4.5997 37.2709 4.0567 37.3559C4.14985 38.0685 4.14985 38.0685 4.54905 38.4758C4.90532 38.196 4.54904 37.7719 4.76968 37.4577C5.31268 37.3899 5.17703 37.9753 5.48223 38.2131H6.33084C6.55148 38.2131 6.81461 38.2131 6.75538 38.5355C6.71717 38.6231 6.66051 38.7016 6.58839 38.7647C6.51671 38.8278 6.43129 38.8742 6.33943 38.9004C6.08274 38.9304 5.82391 38.9304 5.56721 38.9004C5.6183 39.5623 5.63504 39.5709 6.10163 39.503L7.49368 39.3584C7.49368 39.8507 7.49368 39.8507 7.08633 40.207C7.15414 40.377 7.18805 40.6315 7.32369 40.7418C7.50655 40.8629 7.65422 41.0303 7.7508 41.2273C7.84781 41.4239 7.89073 41.6433 7.87527 41.8617C7.87527 42.0146 8.18948 42.2266 8.39294 42.3455C8.57366 42.4039 8.76339 42.4296 8.95312 42.4219C9.23299 42.9057 8.7664 42.9143 8.605 43.1263L8.95312 43.6951L9.90347 43.5422C10.0048 43.553 10.1044 43.5762 10.2005 43.6101C10.2005 43.8221 10.2005 44.0342 10.1494 44.2805L9.39439 44.1956C9.40941 44.3625 9.4592 44.5244 9.54118 44.6707C9.62317 44.8171 9.73477 44.9442 9.86956 45.0442C10.1666 44.9678 10.5486 44.6197 10.8032 45.0442C11.0577 45.4683 10.574 45.5447 10.3022 45.7739C10.5486 46.1641 10.7946 46.3933 11.2358 46.283C11.3359 46.2577 11.441 46.2577 11.5415 46.283C11.6067 46.2924 11.6677 46.3199 11.7183 46.362C11.769 46.404 11.8072 46.4594 11.8282 46.5216C11.8492 46.5843 11.8527 46.6513 11.8381 46.7152C11.8235 46.7796 11.7913 46.8384 11.7449 46.8856C11.7115 46.9384 11.6604 46.9775 11.6007 46.996C11.4818 47.0466 11.3548 47.081 11.2187 47.1316C11.329 47.5729 11.5582 47.7085 12.0081 47.5476C12.4579 47.3862 12.5343 47.4033 12.6275 47.9888L11.957 48.1923C12.3729 49.1006 12.9584 48.3451 13.595 48.4554C13.5036 48.2193 13.3958 47.9897 13.2726 47.7682C12.7464 47.0213 12.1437 46.3169 11.6939 45.5279C11.0659 44.4334 10.54 43.2959 9.99704 42.1335C9.92708 41.8828 9.876 41.6278 9.84424 41.3698C9.74637 41.0457 9.62145 40.7307 9.47079 40.4276C9.3433 40.1731 9.13126 40.2327 8.90204 40.4276C8.90204 41.0217 9.35188 41.4462 9.57252 42.0146L9.05485 42.091C8.65393 41.6235 8.33801 41.0895 8.12167 40.5126C8.00105 39.9542 7.93022 39.3863 7.90919 38.8154L9.12267 38.1449L9.97129 38.3488C9.87814 37.8822 9.81032 37.568 9.71674 37.1353L7.17088 37.9839C7.17088 37.4324 7.17088 37.4323 8.29121 36.94L7.95168 35.5737C7.56149 35.4973 7.43401 35.6759 7.49368 36.0407C7.55291 36.4056 7.76496 36.728 7.49368 37.1014C6.8996 36.9314 7.09447 36.3545 6.93351 36.0407C5.76639 35.8261 4.57523 35.7772 3.3948 35.8965C3.5137 36.1764 3.60685 36.482 3.71716 36.8129ZM3.11493 34.3941C3.17417 34.759 3.21667 35.0732 3.2759 35.4466L3.96355 35.2428C3.91247 34.9376 3.87856 34.6573 3.81889 34.301L3.11493 34.3941ZM2.98745 33.8511L3.67467 33.7919C3.54762 33.0789 3.54761 33.0789 2.82605 33.0622L2.98745 33.8511ZM4.58295 33.6558C4.69328 33.6558 4.88815 33.4691 4.87141 33.3845C4.87141 33.0197 4.54904 33.0703 4.19234 33.13C4.19234 33.461 4.20951 33.7155 4.59969 33.6558H4.58295ZM5.43158 33.5116L6.2802 33.8765L5.54189 34.844C5.02422 34.9457 5.16845 33.9954 4.47264 34.2671C4.51514 34.5302 4.55721 34.8187 4.59969 35.1157L6.69571 35.2428C6.69571 35.141 6.76353 35.0479 6.69571 34.9968C6.16688 33.6275 5.94366 32.159 6.04239 30.6945C6.05527 30.4597 6.05527 30.2249 6.04239 29.9901C5.88958 28.8191 5.72861 27.6481 5.55863 26.4853C5.53588 26.2852 5.46591 26.0934 5.35517 25.9255C5.35517 26.842 4.92206 27.6987 5.27876 28.6577C5.38522 29.1582 5.36504 29.6776 5.21909 30.1682C5.16201 30.3244 5.1384 30.491 5.14999 30.6571C5.16158 30.8228 5.20837 30.9846 5.28692 31.1314C5.36547 31.2778 5.47407 31.4062 5.60585 31.5079C5.73763 31.6096 5.88915 31.6822 6.05098 31.7212C5.81318 31.8654 5.63504 31.9165 5.55863 32.035C5.48222 32.1539 5.41441 32.4423 5.48223 32.502C5.87284 32.833 5.79644 33.1725 5.48223 33.5116H5.43158ZM3.81075 28.4881C3.62402 29.5913 3.65793 29.6424 4.49796 29.5999C4.63361 28.7513 4.63361 28.7513 3.86139 28.4881H3.81075ZM2.67367 32.4681L4.81174 32.5698C4.81174 32.2556 4.76109 32.0607 4.73577 31.7212L2.63976 31.3478C2.67366 31.7723 2.69899 32.0861 2.72432 32.4681H2.67367ZM4.53188 31.1696C4.82891 30.321 4.76109 30.2532 3.77682 30.1854V30.9576L4.53188 31.1696ZM2.45303 30.9237H3.30165C3.10677 30.1532 3.05483 29.3535 3.14884 28.5645C3.14884 28.14 3.14884 28.14 2.48695 28.0722C2.52086 29.0225 2.51227 29.9476 2.50368 30.9237H2.45303ZM4.53188 28.1486C4.59111 27.7752 4.64219 27.4528 4.70143 27.0965L3.85324 26.7145C3.85324 26.969 3.76824 27.1472 3.75108 27.3253C3.73434 27.5039 3.75108 27.6309 3.75108 27.8176L4.53188 28.1486ZM2.50368 27.0708C2.50368 27.5292 2.8093 27.5459 3.19134 27.5884C3.25487 27.3502 3.26602 27.1004 3.22353 26.857C3.18103 26.6136 3.08617 26.3827 2.94495 26.1801L3.66652 25.7809L4.69328 26.4174C4.69328 26.0015 4.74392 25.7388 4.76968 25.3654L2.7329 24.6185C2.67367 25.5263 2.60542 26.2985 2.55476 27.0708H2.50368ZM2.75007 24.1858L4.86282 24.8477C4.86282 24.5335 4.86282 24.2622 4.93923 23.9991L4.26875 23.7613L3.99747 24.3468C3.88715 23.9905 3.81889 23.787 3.74292 23.5578L2.99603 23.405C2.96212 23.6428 2.88571 23.9055 2.80072 24.1858H2.75007ZM5.11736 23.1419C5.28735 22.7942 5.04096 22.6328 4.68468 22.5225L4.37048 23.1165C4.74393 23.2779 4.99031 23.4986 5.16845 23.1419H5.11736ZM3.14884 21.8267C3.14884 22.1576 3.14884 22.4885 3.14884 22.8959L3.99747 23.0315C4.04683 22.9521 4.07774 22.8624 4.08717 22.7693C4.09662 22.6757 4.08417 22.5817 4.05154 22.4941C4.01849 22.4061 3.96613 22.3272 3.89787 22.2628C3.82962 22.1988 3.74764 22.1512 3.65793 22.1237C3.50169 22.0344 3.35145 21.9352 3.20808 21.8267L4.25201 21.7674C4.30266 21.4704 4.36233 21.1987 4.41298 20.9188L3.79357 20.6896L3.19949 21.8434L3.14884 21.8267ZM3.96355 19.1451C4.06528 20.3161 4.21809 20.4518 5.66036 20.6557C5.75394 20.4011 5.84708 20.138 5.96599 19.807C5.60928 19.71 5.25816 19.5941 4.9139 19.4589C4.64219 19.3319 4.37048 19.0602 3.96355 19.1451ZM6.89101 19.6714C6.89101 19.4083 6.83178 19.264 6.80602 19.1112H6.39867C6.29694 18.7464 6.39867 18.2201 5.75394 18.1609C5.66895 18.3558 5.56722 18.5764 5.43974 18.882L6.89101 19.6714ZM4.18418 18.5511L4.9139 18.8648C5.01434 18.6236 5.08002 18.3695 5.10878 18.1098C5.10878 17.9231 4.87999 17.7703 4.65936 17.4732C4.48938 17.8892 4.35374 18.1437 4.19234 18.5511H4.18418ZM4.81174 17.1337L5.42299 17.4226C5.59254 17.0998 5.76253 16.7946 5.91491 16.4976C5.19377 15.8949 5.10879 15.946 4.81174 17.1337ZM5.34658 15.5472L6.09348 15.9546L6.50899 15.0463L5.72003 14.5543C5.56722 14.9192 5.46548 15.1991 5.32941 15.5472H5.34658ZM5.87284 13.6207C5.93208 14.0448 6.13554 14.3251 6.48366 14.359C6.67038 14.359 6.88243 14.147 7.07774 14.0195C6.77211 13.4254 6.35617 13.5104 5.85567 13.6207H5.87284ZM6.72146 12.891L7.37478 13.4512L7.53574 13.3662C7.53574 13.222 7.53574 13.0352 7.46792 12.9417C7.4001 12.8485 7.06057 12.5687 6.70429 12.891H6.72146ZM7.2048 12.2034L7.73964 12.5429C8.04527 12.2969 8.04527 12.0763 7.73964 11.8896C7.43401 11.7029 7.3576 11.9235 7.2048 12.2034ZM12.4493 6.55194C10.9654 7.72203 9.61115 9.04754 8.41012 10.5066C8.41012 10.5066 8.31654 10.5911 8.31654 10.6336C8.31654 10.6761 8.31654 10.9478 8.31654 11.1088C8.47794 11.1088 8.70716 11.1088 8.78356 11.0156C9.11451 10.6083 9.3858 10.167 9.69142 9.72575C9.85239 9.49653 10.0224 9.24199 10.489 9.38622C9.96915 10.3151 9.37893 11.2032 8.7239 12.0424L9.70001 12.5176C10.158 11.72 10.5486 10.9478 11.0491 10.1923C11.2577 9.92278 11.4874 9.66995 11.7364 9.4373C12.1862 8.97028 12.585 8.47836 13.0773 8.02851C13.1958 7.92506 13.2735 7.78298 13.2971 7.62759C13.3203 7.47212 13.2876 7.31343 13.2044 7.17989L10.7521 9.09776C10.6989 8.91405 10.7092 8.71745 10.7817 8.54017C10.8538 8.36333 10.9843 8.21566 11.1509 8.12166C11.796 7.56179 12.4322 6.99321 13.0687 6.42467L12.9417 6.26341C12.77 6.34642 12.6056 6.44292 12.4493 6.55194ZM14.9952 6.00886C14.9514 6.07437 14.9227 6.14875 14.9111 6.22662C14.8995 6.30453 14.9055 6.38398 14.9282 6.4594C14.9506 6.53477 14.99 6.60423 15.0424 6.66278C15.0952 6.72133 15.16 6.76751 15.2326 6.79803C15.3004 7.30721 14.6303 7.64648 14.8763 8.17274L15.5043 8.46119C15.2583 8.80072 15.7163 8.78356 15.7249 8.87713C15.7116 9.11322 15.6511 9.34415 15.5468 9.55577C15.988 10.0481 16.1576 9.02136 16.6414 9.40339L16.3529 10.1074L16.7431 10.5486L18.033 9.70043H18.0755C18.2708 9.9803 18.0755 10.1417 17.8887 10.328C17.702 10.5147 17.7956 10.7014 18.1266 10.8117C18.3047 10.5486 18.4996 10.2602 18.7627 9.85281L18.0755 9.70043C18.0579 9.58324 17.9999 9.47593 17.9115 9.39695C17.8231 9.31797 17.7102 9.27204 17.5917 9.26732C16.9384 9.19091 16.5821 8.63933 16.0898 8.31696C15.9498 8.19248 15.8623 8.01993 15.8438 7.8332C15.7764 7.39524 15.7421 6.95273 15.7417 6.50953C15.7713 6.30989 15.8601 6.12369 15.9962 5.97491C16.3615 5.48273 16.7431 4.99902 17.1504 4.46439C16.6748 4.46409 16.2113 4.61295 15.8245 4.88999C15.4377 5.16702 15.1476 5.55832 14.9952 6.00886ZM19.1447 4.05708C18.5592 4.12498 18.2961 4.63411 17.9312 4.99052C17.6046 5.33975 17.296 5.70513 17.0062 6.08523C17.041 6.13699 17.0809 6.18533 17.1251 6.2295C17.7059 6.05007 18.218 5.69779 18.5931 5.21965C18.8975 4.6976 19.3336 4.26457 19.8577 3.96376C20.0835 3.79936 20.299 3.62079 20.5024 3.42913C19.7216 3.2085 19.6285 3.99767 19.1447 4.05708ZM21.6906 2.22411C21.6258 2.28643 21.579 2.36503 21.5549 2.45161C21.5313 2.53819 21.5309 2.62962 21.5545 2.71632C21.6228 2.8436 21.8855 2.903 22.064 2.88601C22.2422 2.86905 22.3014 2.70782 22.4117 2.59751L23.3792 1.66407C22.6324 1.8762 22.1486 2.02047 21.6567 2.22411H21.6906ZM47.912 47.5051C48.2016 48.1103 48.5604 48.6799 48.9812 49.2023L49.1255 49.1345C49.125 48.9958 49.1021 48.858 49.0576 48.7271C48.3363 47.123 47.598 45.5365 46.8937 43.9324C46.5542 43.1688 46.2912 42.3794 45.9942 41.599C45.8944 41.2745 45.7607 40.9616 45.5953 40.6654C44.8486 39.5537 44.5261 38.2131 43.6266 37.186C43.3682 36.3335 42.9249 35.5484 42.3283 34.8865C41.4797 33.7155 40.996 32.3406 40.1049 31.2207C38.8915 29.6844 37.7543 28.0894 36.5918 26.511C36.3966 26.2565 36.2099 26.0273 35.879 26.0187C35.6074 26.2479 35.7771 26.4174 35.879 26.5788C36.9142 27.8941 37.9665 29.1925 38.9678 30.5331C39.4345 31.1525 39.8164 31.8569 40.1983 32.5106C40.385 32.7991 40.5971 33.0536 40.7923 33.3588C41.7597 34.7762 42.4895 36.312 43.4145 37.78C44.2955 39.2652 45.0642 40.814 45.7142 42.4133C46.4609 44.0767 47.1907 45.7911 47.912 47.5051ZM15.5807 44.654C16.3714 46.4234 17.4788 48.0339 18.8477 49.4058C19.0172 49.5672 19.1958 49.7028 19.3739 49.8556L19.5521 49.7285C19.4079 49.4993 19.2718 49.2615 19.1194 49.0409C18.4403 48.0141 17.702 47.0213 17.0826 45.9692C16.2765 44.5943 15.5721 43.1602 14.7999 41.7261C14.3333 40.9071 13.9659 40.0353 13.7053 39.1296C13.4868 38.4608 13.2027 37.8157 12.8567 37.2031C12.4596 36.6747 12.2665 36.021 12.3137 35.3617C11.8299 35.4295 11.8638 35.7604 11.9484 36.015C12.1334 36.5322 12.3579 37.034 12.6189 37.5169C13.0181 38.2093 13.2507 38.9849 13.298 39.7829C13.3362 40.1177 13.443 40.4414 13.6117 40.7333C14.2483 42.0403 14.9527 43.3298 15.5807 44.654ZM35.9893 28.0808C35.7941 28.7255 36.2014 29.0483 36.4136 29.4299C36.8718 30.2279 37.3725 30.9915 37.8732 31.7551C38.3738 32.5188 38.9848 33.2656 39.477 34.0632C40.3256 35.4209 41.4457 36.6091 41.9549 38.1449C41.9651 38.1981 41.9884 38.2475 42.0228 38.2891C43.0835 39.2227 43.2193 40.6401 43.8557 41.7939C43.8881 41.8647 43.9343 41.9283 43.9915 41.9806C43.9915 41.9806 44.0849 41.9806 44.2461 41.9806C44.226 41.3136 44.0298 40.6637 43.6775 40.0967C43.0665 38.875 42.464 37.653 41.7597 36.4987C41.0554 35.3449 40.3256 34.4705 39.6043 33.4185C39.0442 32.5698 38.5266 31.7212 37.9665 30.8726C37.4064 30.024 36.8378 29.235 36.2693 28.4117C36.2099 28.3267 36.1335 28.14 35.9893 28.0808ZM35.9468 48.6932C35.9019 48.5151 35.8334 48.3438 35.7432 48.1841C34.8946 47.0385 33.9782 45.9095 33.1463 44.7896C32.3149 43.6693 31.6358 42.5236 30.8636 41.3951C30.2614 40.5465 29.6334 39.6473 29.0221 38.7647C28.8951 38.578 28.7762 38.3655 28.6573 38.1707L28.0718 37.1778L27.8258 37.2795C27.9125 37.6487 28.0318 38.0093 28.1821 38.3574C28.4452 38.8411 28.7933 39.2738 29.0904 39.7404C29.3874 40.207 29.5737 40.589 29.8454 41.0131C30.1171 41.4376 30.5326 42.0656 30.8975 42.5747C31.2628 43.0838 31.7461 43.771 32.2213 44.323C32.2788 44.3694 32.326 44.4274 32.3608 44.4926C32.3951 44.5578 32.4162 44.6295 32.4226 44.7029C32.4286 44.7768 32.4205 44.8506 32.3973 44.921C32.3745 44.9914 32.3381 45.0562 32.2896 45.112C33.0871 45.2648 33.3588 45.9181 33.7404 46.453C34.1223 46.9874 34.3769 47.4119 34.7164 47.8871C34.8551 48.0987 35.0359 48.2794 35.2476 48.4181C35.4593 48.5567 35.6973 48.6503 35.9468 48.6932ZM37.1943 46.4358C35.3698 43.8054 33.9696 40.8946 32.0178 38.3574L31.8822 38.4166C31.8775 38.4389 31.8775 38.4621 31.8822 38.4844C31.8697 38.5347 31.8697 38.587 31.8822 38.6372C32.1518 39.2601 32.4578 39.8666 32.7986 40.4534C34.1648 42.5576 35.3443 44.7982 37.0415 46.6564C37.0839 46.7075 37.1773 46.7157 37.2961 46.7668C37.2853 46.6427 37.2507 46.5216 37.1943 46.4105V46.4358ZM26.1625 39.9864C26.5531 40.5379 27.0111 41.0728 27.3421 41.633C27.5374 41.93 27.6305 42.303 27.8344 42.5919C28.3946 43.5328 29.0453 44.4166 29.7776 45.2309C30.5326 45.9692 31.11 46.8432 31.8225 47.5982C31.9844 47.7519 32.1543 47.8961 32.3316 48.0313L32.5016 47.8613C31.6955 46.8517 30.8722 45.8503 30.1 44.8064C29.3277 43.7629 28.5388 42.6 27.7833 41.4801C27.376 40.8689 27.0197 40.2327 26.6377 39.6133C26.5716 39.4996 26.4853 39.3987 26.3831 39.3163C26.3153 39.2652 26.1539 39.2313 26.1032 39.2738C26.0522 39.3163 25.9165 39.4944 25.9333 39.5876C25.9702 39.7232 26.0337 39.8503 26.12 39.961L26.1625 39.9864ZM27.9615 51.103C29.2853 52.5032 30.7026 53.827 32.0857 55.1766C32.2204 55.274 32.3655 55.3568 32.5183 55.4225C32.824 55.1422 32.9343 54.9216 32.6119 54.667C32.1367 54.3022 31.6869 53.8948 31.1945 53.5639C29.6222 52.474 28.2572 51.1116 27.1639 49.5418C26.417 48.5151 25.7976 47.3947 25.0087 46.1473C25.1357 46.5375 25.195 46.7667 25.2799 46.996C25.8972 48.5271 26.8081 49.9221 27.9615 51.103ZM17.0401 43.101C16.5697 42.1618 16.1559 41.1956 15.8013 40.207C15.7717 40.0473 15.6884 39.9027 15.5648 39.7975C15.4408 39.6923 15.2845 39.6335 15.1222 39.6301C15.1858 40.0692 15.291 40.501 15.4365 40.92C15.7674 41.633 16.2001 42.2949 16.5478 42.9907C16.8109 43.4998 16.9723 44.0599 17.2522 44.5518C17.7445 45.4005 18.2961 46.2491 18.8391 47.0977C18.9576 47.2986 19.0971 47.4862 19.255 47.6579C19.4585 47.8699 19.6877 48.0652 19.8998 48.2687L20.0358 48.167C20.0019 48.0373 19.9534 47.9124 19.8916 47.7935C18.9408 46.2238 17.9312 44.6961 17.0401 43.101ZM30.8722 49.805C30.2274 49.0495 29.684 48.3284 29.0479 47.6918C27.9164 46.4706 26.9047 45.1433 26.0268 43.729C25.8912 43.5251 25.7384 43.3298 25.5856 43.1349L25.4242 43.2195C25.5577 43.6328 25.7341 44.0312 25.9504 44.4076C26.7754 45.7988 27.767 47.084 28.9037 48.2348C29.0234 48.3713 29.1638 48.4889 29.3192 48.5829C29.4891 48.6486 29.6432 48.7499 29.7703 48.8804C29.8978 49.0104 29.9957 49.1667 30.0575 49.3379C30.1073 49.5058 30.2193 49.6479 30.3712 49.735C30.5232 49.8217 30.7026 49.847 30.8722 49.805ZM20.9351 54.209C21.0368 54.3103 21.1253 54.4245 21.1982 54.5486C22.1628 55.0049 22.9998 55.6929 23.6338 56.551C24.0411 56.4154 24.0579 56.1269 23.8544 55.8891C23.5698 55.52 23.2221 55.204 22.8277 54.9559C21.115 54.0433 19.5821 52.8269 18.3047 51.3661C18.2111 51.8924 18.2111 51.9349 18.6524 52.3079C19.3739 52.9359 20.1462 53.5725 20.9351 54.209ZM40.1898 39.2652C38.8405 37.1945 37.4997 35.1157 36.0741 32.9094C36.0549 33.1283 36.0722 33.3493 36.125 33.5627C36.6003 34.4963 37.0924 35.4209 37.6016 36.3378C37.8052 36.7026 38.0853 37.0164 38.2974 37.3727C38.7557 38.2131 39.5618 38.6458 40.1558 39.3077L40.1898 39.2652ZM24.9237 55.0237L21.1815 51.4936C21.0368 51.7142 21.1218 51.9263 21.2832 52.1469C21.5545 52.5285 21.8176 52.9277 22.0808 53.3093C22.1572 53.4111 22.2422 53.5471 22.3439 53.5896C23.0994 53.9562 23.7746 54.4696 24.3296 55.1001C24.5077 55.3122 24.737 55.4311 24.9237 55.0237ZM13.2555 31.8062H13.4336C13.4748 31.5251 13.495 31.2413 13.4933 30.9576C13.3529 29.4986 13.3529 28.0293 13.4933 26.5703C13.4933 26.5703 13.4336 26.4939 13.3572 26.4089C12.8481 26.5449 12.8056 27.0708 12.8142 27.3935C12.791 28.8762 12.9391 30.3571 13.2555 31.8062ZM16.947 39.7915L16.4632 38.3994L15.1647 34.6658C15.0205 34.8002 14.9209 34.9758 14.8802 35.1685C14.839 35.3612 14.8583 35.5621 14.9355 35.7437C15.3467 37.0379 15.8661 38.2956 16.4885 39.503C16.5383 39.5824 16.6053 39.6498 16.6847 39.6996C16.7637 39.7499 16.8534 39.7812 16.947 39.7915ZM31.7041 49.0327C31.2117 48.4893 30.694 47.9635 30.1935 47.4286C30.1201 47.317 30.0248 47.2218 29.9132 47.1488C29.7776 47.081 29.5316 46.9706 29.4634 47.0299C29.2513 47.2166 29.4042 47.4033 29.5655 47.5561L30.1339 48.0991L33.0021 50.8824C33.1635 51.0352 33.2906 51.2219 33.4434 51.3915L33.6215 51.2391C32.9854 50.5089 32.3488 49.7625 31.7041 49.0327ZM24.7623 49.6436C25.2035 50.0423 25.4242 50.7042 26.205 50.891L21.4867 45.1712C21.6292 45.7378 21.9056 46.262 22.2928 46.6989C22.6916 47.1827 23.065 47.6918 23.4642 48.1755C23.8647 48.6919 24.2987 49.1825 24.7623 49.6436ZM34.4193 54.7774C34.4193 54.6503 34.4193 54.5314 34.36 54.4889C33.0528 53.5686 31.8315 52.532 30.7112 51.3915C30.7112 51.3915 30.609 51.3915 30.4906 51.3322C30.7958 52.3422 32.5694 53.8867 34.4193 54.7774ZM20.3921 46.5294C20.7926 47.8643 21.6408 49.0212 22.7938 49.805C22.1683 48.5945 21.3579 47.4896 20.3921 46.5294ZM14.9355 38.7815C14.6857 37.5521 14.3427 36.3438 13.9088 35.1664C13.4933 35.2599 13.425 35.4467 13.5014 35.6759C13.6203 36.0746 13.7645 36.4648 13.9174 36.8469C14.0702 37.2285 14.2822 37.8225 14.4861 38.2977C14.581 38.5025 14.7385 38.6716 14.9355 38.7815ZM19.1786 44.7811C18.8297 43.6152 18.3304 42.5 17.6934 41.463C17.2861 42.0403 17.617 42.4558 17.7698 42.8039C18.0484 43.5779 18.5326 44.2612 19.1701 44.7811H19.1786ZM12.585 43.4233L11.4904 41.5394H11.3123C11.2775 41.739 11.2775 41.9424 11.3123 42.142C11.6007 42.7529 11.796 43.2959 12.5764 43.4233H12.585ZM35.3613 54.3447C34.888 53.5948 34.1858 53.0179 33.3588 52.6985C33.9044 53.3802 34.5866 53.9412 35.3613 54.3447ZM35.2765 51.2391C35.0005 50.624 34.5083 50.1316 33.8932 49.8556C34.2205 50.4334 34.6986 50.9116 35.2765 51.2391ZM21.1133 49.5418L20.9776 49.6436L21.9958 50.9249C21.928 50.3308 21.928 50.3308 21.1133 49.5418ZM27.2317 8.97028L27.3592 9.01277C27.3592 8.91104 27.4185 8.80931 27.4524 8.70758L27.3253 8.66508C27.291 8.80931 27.2571 8.86855 27.2317 8.97028ZM56.5761 61.2015C56.5339 61.2066 56.4933 61.2212 56.4573 61.244C56.4573 61.2946 56.4573 61.3543 56.4573 61.3796L56.8732 61.7273C56.9241 61.6427 57.0174 61.5492 57.0004 61.4813C56.9937 61.4337 56.9769 61.3882 56.9512 61.3474C56.9255 61.3071 56.8914 61.2723 56.8514 61.2457C56.8112 61.2195 56.766 61.2019 56.7185 61.1942C56.6711 61.1864 56.6226 61.189 56.5761 61.2015Z" fill="#101A24"/>
</g>
</svg>
