<svg width="283" height="38" viewBox="0 0 283 38" fill="none" xmlns="http://www.w3.org/2000/svg">
<path d="M62.2063 9.90417C64.1756 9.90417 65.9579 10.3594 67.553 11.2699C69.1679 12.161 70.4381 13.4106 71.3636 15.0185C72.2893 16.607 72.752 18.4087 72.752 20.4235C72.752 22.4382 72.2794 24.2495 71.3341 25.8575C70.4085 27.4654 69.1383 28.7246 67.5235 29.6351C65.9283 30.5262 64.1559 30.9718 62.2063 30.9718C60.2567 30.9718 58.4745 30.5262 56.8596 29.6351C55.2645 28.7246 53.9943 27.4654 53.049 25.8575C52.1234 24.2495 51.6606 22.4382 51.6606 20.4235C51.6606 18.4087 52.1234 16.607 53.049 15.0185C53.9943 13.4106 55.2645 12.161 56.8596 11.2699C58.4745 10.3594 60.2567 9.90417 62.2063 9.90417ZM62.2063 14.5245C60.5521 14.5245 59.2326 15.0573 58.2479 16.1228C57.283 17.1689 56.8005 18.6025 56.8005 20.4235C56.8005 22.2251 57.283 23.6587 58.2479 24.7242C59.2326 25.7896 60.5521 26.3224 62.2063 26.3224C63.8409 26.3224 65.1504 25.7896 66.1351 24.7242C67.1198 23.6587 67.6122 22.2251 67.6122 20.4235C67.6122 18.6218 67.1198 17.1882 66.1351 16.1228C65.1701 15.0573 63.8605 14.5245 62.2063 14.5245Z" fill="#414042"/>
<path d="M96.9472 14.3792C98.9756 14.3792 100.571 14.9992 101.733 16.239C102.895 17.4594 103.475 19.1642 103.475 21.3533V30.7684H98.4537V21.9345C98.4537 20.9077 98.1681 20.1135 97.597 19.5517C97.0457 18.9705 96.2874 18.6799 95.3225 18.6799C94.3181 18.6799 93.5206 18.9898 92.9297 19.6098C92.3587 20.2103 92.0731 21.0627 92.0731 22.167V30.7684H87.0218V21.9345C87.0218 20.9077 86.7461 20.1135 86.1946 19.5517C85.6433 18.9705 84.8851 18.6799 83.9201 18.6799C82.9157 18.6799 82.1181 18.9802 81.5273 19.5807C80.9366 20.1813 80.6412 21.0434 80.6412 22.167V30.7684H75.5898V14.5536H80.6412V17.3142C81.0745 16.4036 81.7341 15.6869 82.6203 15.1638C83.5263 14.6407 84.5799 14.3792 85.7811 14.3792C87.0415 14.3792 88.1541 14.6698 89.1191 15.251C90.0841 15.8128 90.8128 16.6265 91.3051 17.6919C91.8762 16.6846 92.6541 15.8805 93.6387 15.28C94.643 14.6795 95.7458 14.3792 96.9472 14.3792Z" fill="#414042"/>
<path d="M117.288 14.3792C119.179 14.3792 120.676 14.9992 121.779 16.239C122.901 17.4788 123.462 19.1836 123.462 21.3533V30.7684H118.411V21.9345C118.411 20.8496 118.116 20.0069 117.525 19.4064C116.954 18.7864 116.186 18.4765 115.22 18.4765C114.197 18.4765 113.38 18.7962 112.769 19.4354C112.178 20.0747 111.883 20.9853 111.883 22.167V30.7684H106.832V14.5536H111.883V17.5176C112.356 16.5489 113.054 15.7838 113.98 15.2219C114.925 14.6601 116.029 14.3792 117.288 14.3792Z" fill="#414042"/>
<path d="M126.321 9.99133C126.321 9.2358 126.597 8.61588 127.148 8.13157C127.7 7.62788 128.429 7.37604 129.334 7.37604C130.24 7.37604 130.969 7.62788 131.52 8.13157C132.072 8.61588 132.347 9.2358 132.347 9.99133C132.347 10.7275 132.072 11.3474 131.52 11.8511C130.969 12.3354 130.24 12.5776 129.334 12.5776C128.429 12.5776 127.7 12.3354 127.148 11.8511C126.597 11.3474 126.321 10.7275 126.321 9.99133ZM131.845 14.5536V30.7684H126.794V14.5536H131.845Z" fill="#414042"/>
<path d="M150.789 10.0204C153.446 10.0204 155.643 10.7081 157.376 12.0836C159.128 13.459 160.261 15.3188 160.773 17.6628H155.426C155.032 16.7136 154.422 15.9677 153.594 15.4253C152.787 14.8829 151.822 14.6117 150.699 14.6117C149.223 14.6117 148.031 15.1445 147.125 16.2099C146.22 17.2754 145.766 18.6992 145.766 20.4816C145.766 22.2639 146.22 23.6877 147.125 24.7532C148.031 25.7993 149.223 26.3224 150.699 26.3224C151.822 26.3224 152.787 26.0511 153.594 25.5087C154.422 24.9663 155.032 24.2301 155.426 23.3003H160.773C160.261 25.625 159.128 27.4847 157.376 28.8795C155.643 30.255 153.446 30.9427 150.789 30.9427C148.76 30.9427 146.977 30.5068 145.442 29.6351C143.905 28.744 142.714 27.5041 141.868 25.9156C141.04 24.327 140.627 22.5157 140.627 20.4816C140.627 18.4474 141.04 16.6361 141.868 15.0476C142.714 13.459 143.905 12.2288 145.442 11.3571C146.977 10.466 148.76 10.0204 150.789 10.0204Z" fill="#414042"/>
<path d="M174.06 14.3792C175.951 14.3792 177.447 14.9991 178.55 16.2389C179.673 17.4787 180.234 19.1836 180.234 21.3533V30.7684H175.183V21.9345C175.183 20.8496 174.887 20.0069 174.297 19.4063C173.726 18.7864 172.958 18.4765 171.992 18.4765C170.968 18.4765 170.151 18.7961 169.541 19.4354C168.95 20.0747 168.655 20.9852 168.655 22.1669V30.7684H163.603V9.26483H168.655V17.5175C169.126 16.5489 169.826 15.7837 170.751 15.2219C171.697 14.66 172.8 14.3792 174.06 14.3792Z" fill="#414042"/>
<path d="M183.093 9.99133C183.093 9.2358 183.369 8.61588 183.92 8.13157C184.472 7.62788 185.201 7.37604 186.106 7.37604C187.012 7.37604 187.741 7.62788 188.292 8.13157C188.843 8.61588 189.119 9.2358 189.119 9.99133C189.119 10.7275 188.843 11.3474 188.292 11.8511C187.741 12.3354 187.012 12.5776 186.106 12.5776C185.201 12.5776 184.472 12.3354 183.92 11.8511C183.369 11.3474 183.093 10.7275 183.093 9.99133ZM188.617 14.5536V30.7684H183.566V14.5536H188.617Z" fill="#414042"/>
<path d="M201.439 26.4967V30.7684H199.165C197.235 30.7684 195.728 30.3034 194.645 29.3736C193.582 28.4243 193.05 26.8648 193.05 24.6951V18.738H190.835V14.5536H193.05V10.5725H198.102V14.5536H201.41V18.738H198.102V24.7823C198.102 25.4216 198.229 25.8672 198.485 26.119C198.761 26.3708 199.214 26.4967 199.844 26.4967H201.439Z" fill="#414042"/>
<path d="M219.734 10.0204C222.392 10.0204 224.588 10.7081 226.321 12.0836C228.074 13.459 229.206 15.3188 229.718 17.6628H224.371C223.978 16.7136 223.367 15.9677 222.54 15.4253C221.732 14.8829 220.768 14.6117 219.645 14.6117C218.168 14.6117 216.977 15.1445 216.07 16.2099C215.165 17.2754 214.711 18.6992 214.711 20.4816C214.711 22.2639 215.165 23.6877 216.07 24.7532C216.977 25.7993 218.168 26.3224 219.645 26.3224C220.768 26.3224 221.732 26.0511 222.54 25.5087C223.367 24.9663 223.978 24.2301 224.371 23.3003H229.718C229.206 25.625 228.074 27.4847 226.321 28.8795C224.588 30.255 222.392 30.9427 219.734 30.9427C217.705 30.9427 215.923 30.5068 214.387 29.6351C212.85 28.744 211.659 27.5041 210.813 25.9156C209.986 24.327 209.572 22.5157 209.572 20.4816C209.572 18.4474 209.986 16.6361 210.813 15.0476C211.659 13.459 212.85 12.2288 214.387 11.3571C215.923 10.466 217.705 10.0204 219.734 10.0204Z" fill="#414042"/>
<path d="M243.006 14.3792C244.897 14.3792 246.393 14.9991 247.496 16.2389C248.618 17.4787 249.179 19.1836 249.179 21.3533V30.7684H244.129V21.9345C244.129 20.8496 243.834 20.0069 243.242 19.4063C242.671 18.7864 241.904 18.4765 240.938 18.4765C239.914 18.4765 239.097 18.7961 238.487 19.4354C237.896 20.0747 237.601 20.9852 237.601 22.1669V30.7684H232.549V9.26483H237.601V17.5175C238.073 16.5489 238.772 15.7837 239.697 15.2219C240.643 14.66 241.746 14.3792 243.006 14.3792Z" fill="#414042"/>
<path d="M258.775 14.3502C260.034 14.3502 261.117 14.631 262.024 15.1929C262.929 15.7547 263.598 16.5198 264.032 17.4885V14.5536H269.054V30.7684H264.032V27.8335C263.598 28.8021 262.929 29.5673 262.024 30.1291C261.117 30.6909 260.034 30.9718 258.775 30.9718C257.416 30.9718 256.194 30.6424 255.111 29.9838C254.048 29.3057 253.201 28.3372 252.571 27.0779C251.96 25.8187 251.655 24.3464 251.655 22.661C251.655 20.9562 251.96 19.4838 252.571 18.244C253.201 16.9848 254.048 16.0258 255.111 15.3672C256.194 14.6891 257.416 14.3502 258.775 14.3502ZM260.399 18.709C259.316 18.709 258.439 19.0577 257.77 19.7551C257.119 20.4525 256.795 21.4212 256.795 22.661C256.795 23.9008 257.119 24.8695 257.77 25.5669C258.439 26.2643 259.316 26.613 260.399 26.613C261.463 26.613 262.329 26.2546 262.998 25.5378C263.688 24.8211 264.032 23.8621 264.032 22.661C264.032 21.4405 263.688 20.4816 262.998 19.7842C262.329 19.0674 261.463 18.709 260.399 18.709Z" fill="#414042"/>
<path d="M281.866 26.4967V30.7684H279.592C277.661 30.7684 276.155 30.3034 275.072 29.3736C274.009 28.4243 273.477 26.8648 273.477 24.6951V18.738H271.262V14.5536H273.477V10.5725H278.528V14.5536H281.837V18.738H278.528V24.7823C278.528 25.4216 278.656 25.8672 278.912 26.119C279.188 26.3708 279.641 26.4967 280.271 26.4967H281.866Z" fill="#414042"/>
<path d="M28.8399 20.6939C28.1455 20.6939 27.565 21.1979 27.4836 21.8594C26.8868 26.768 22.5737 30.574 17.3436 30.574C11.7012 30.574 7.13308 26.1485 7.13308 20.6939C7.13308 15.6331 11.0665 11.4595 16.1392 10.882C16.8282 10.8033 17.3436 10.2415 17.3436 9.56955V5.60069C17.3436 4.82897 16.66 4.21999 15.8625 4.28299C7.1548 5.00746 0.318848 12.079 0.318848 20.6939C0.318848 29.7919 7.94146 37.1626 17.3382 37.1626C26.2412 37.1626 33.5491 30.5479 34.2978 22.1218C34.3684 21.3502 33.7336 20.6887 32.9361 20.6887H28.8399V20.6939Z" fill="#D3335E"/>
<path d="M37.2432 2.33974V14.6769C37.2432 15.5115 36.5433 16.1835 35.6861 16.1835H31.7364C31.0149 16.1835 30.38 15.7005 30.2173 15.0181C29.4741 11.9101 27.2171 9.36399 24.244 8.14604C23.7124 7.92555 23.1535 7.75229 22.5839 7.6263C21.8785 7.4688 21.3794 6.85457 21.3794 6.15635V2.34499C21.3794 1.51026 22.0793 0.838287 22.9365 0.838287H35.6861C36.5433 0.833038 37.2432 1.51026 37.2432 2.33974Z" fill="#FF9E00"/>
<path d="M23.9156 10.9028L21.0942 13.2652C20.8933 13.4332 20.5787 13.4122 20.405 13.218L20.3833 13.1971C20.2097 13.0028 20.2315 12.6982 20.4322 12.5303L23.2536 10.1679C23.4543 9.99987 23.769 10.0209 23.9427 10.2151L23.9644 10.2361C24.138 10.4356 24.1163 10.7348 23.9156 10.9028Z" fill="#D3335E"/>
<path d="M27.2155 11.5751L20.6834 17.0455C20.4826 17.2135 20.1679 17.1924 19.9943 16.9983L19.9727 16.9773C19.7991 16.783 19.8208 16.4785 20.0215 16.3105L26.5536 10.8402C26.7543 10.6722 27.069 10.6932 27.2426 10.8875L27.2643 10.9085C27.438 11.1027 27.4163 11.4019 27.2155 11.5751Z" fill="#D3335E"/>
<path d="M27.4956 14.9085L24.6742 17.2709C24.4735 17.4389 24.1587 17.4179 23.9851 17.2236L23.9634 17.2026C23.7898 17.0084 23.8115 16.7039 24.0122 16.5359L26.8336 14.1736C27.0343 14.0055 27.3491 14.0265 27.5227 14.2207L27.5444 14.2417C27.7235 14.4412 27.6963 14.7405 27.4956 14.9085Z" fill="#D3335E"/>
</svg>
