<svg width="262" height="288" viewBox="0 0 262 288" fill="none" xmlns="http://www.w3.org/2000/svg">
<g opacity="0.1">
<path d="M51.3748 68.709C50.7821 70.2808 50.2913 71.8686 49.9058 73.4646C48.5074 79.7857 47.2019 86.0744 45.8838 92.4463C45.5668 94.1634 45.4855 95.8767 45.6408 97.547C45.7914 100.335 45.5392 103.183 44.8919 106.022C44.0604 110.159 43.1527 114.289 42.3421 118.431C41.9516 120.929 42.1208 123.397 42.8393 125.685C43.5862 129.15 44.0312 132.702 44.1711 136.309C44.3195 138.385 44.5889 140.444 44.7737 142.516C45.1622 146.111 44.7429 149.848 43.5394 153.516C42.0355 157.739 39.3846 161.379 37.0715 165.21C36.9781 165.349 36.7375 165.382 36.2474 165.787C36.5372 164.814 36.7226 164.137 36.8999 163.482C38.3137 159.763 39.2387 155.97 39.6554 152.188C39.833 149.532 39.8052 146.906 39.9328 144.261C40.0249 142.153 40.2371 140.028 40.3568 137.937C40.7773 134.624 40.4969 131.366 39.532 128.334C38.9729 126.243 38.6026 124.091 38.4249 121.898C37.5674 117.409 36.7384 112.906 35.7165 108.457C35.3269 107.14 34.6983 105.919 33.853 104.837C33.5797 104.306 32.6925 104.153 31.9675 103.747C31.5497 104.328 31.1038 104.711 30.9908 105.135C29.6452 109.094 28.8066 113.112 28.4914 117.106C28.3846 119.863 27.7823 122.661 27.4699 125.447C27.2747 127.211 27.2272 128.976 27.0463 130.732C26.8293 133.027 26.5278 135.334 26.2754 137.631C26.3445 138.825 26.1863 140.052 25.8083 141.261C25.2985 142.395 25.0198 143.574 24.9862 144.736C24.8378 146.013 24.4046 147.289 23.7129 148.487C23.0215 149.685 22.0852 150.78 20.9611 151.708C20.3102 152.281 19.7197 152.907 19.2016 153.576C17.1426 156.216 15.3791 159.007 13.9417 161.9C12.9201 163.952 11.571 165.868 10.4681 167.871C9.68205 169.263 8.99588 170.686 8.41393 172.133C7.07959 175.614 5.88313 179.114 4.58636 182.56C3.62813 184.987 2.58955 187.398 1.47009 189.796C0.0485485 192.627 -1.06571 195.538 -1.8561 198.484C-2.7274 202.077 -3.78218 205.673 -4.51518 209.286C-4.92904 211.291 -5.05903 213.297 -4.90076 215.253C-4.75452 217.354 -5.52699 219.548 -7.05892 221.386C-9.33901 224.423 -11.5184 227.514 -13.9068 230.483C-16.1933 233.187 -18.5481 235.758 -20.8283 238.473C-21.6676 239.557 -22.4209 240.685 -23.083 241.846C-23.3057 242.175 -23.4089 242.544 -23.3779 242.896C-23.3473 243.247 -23.1827 243.562 -22.9111 243.788C-22.503 244.188 -22.1023 244.608 -21.6792 245.001C-19.8489 246.7 -17.5293 245.917 -15.8025 243.914C-12.3792 239.846 -9.31165 235.657 -6.01303 231.562C-4.85735 230.211 -3.63456 228.904 -2.34692 227.646C-2.17248 227.449 -1.89595 227.306 -1.7774 227.108C-0.123727 224.532 2.43159 222.743 4.75873 220.691C6.3995 219.41 8.28762 218.438 10.2829 217.847C13.2172 216.794 16.1511 215.74 19.0308 214.548C22.7531 213.116 26.4092 211.499 29.9813 209.704C37.1231 205.968 43.7232 201.313 49.5324 195.915C52.1276 193.419 54.3767 190.642 56.8399 188.031C58.7063 186.048 60.6536 184.114 62.6013 182.181C64.5476 180.247 66.522 178.33 68.4214 176.375C68.8145 175.959 68.9459 175.358 69.3164 174.541C68.6762 174.611 68.0358 174.746 67.4082 174.943C65.5103 175.829 63.6161 176.758 61.7553 177.716C57.7716 179.767 53.7359 181.753 49.8663 183.99C44.6909 186.975 39.6594 190.206 34.5335 193.288C33.2022 194.095 31.7563 194.718 30.3609 195.436C29.2902 196.024 28.2813 196.713 27.3526 197.489C25.073 199.486 22.6222 201.315 20.0319 202.952C17.7375 204.508 15.5194 206.16 13.3839 207.901C13.0927 208.051 12.8396 208.272 12.3323 208.61C12.4695 207.69 12.9918 206.797 13.7908 206.119C16.5654 203.835 18.8037 201.079 20.3305 198.067C21.1194 196.752 22.2289 195.584 23.5622 194.663C25.307 193.262 26.9591 191.769 28.5078 190.193C31.0889 187.598 33.5704 184.916 36.065 182.258C37.0623 181.195 37.9516 180.065 38.943 178.99C40.6314 177.027 42.7388 175.369 45.1073 174.138C47.2907 172.983 49.2629 171.486 50.9124 169.729C55.7837 164.902 60.5919 160.167 65.2292 155.17C67.54 152.729 69.4526 149.943 71.6293 147.419C73.8057 144.894 76.1463 142.223 78.2565 139.534C80.6733 136.443 82.9565 133.268 85.2194 130.088C87.0259 127.632 88.6712 125.076 90.363 122.54C90.5216 122.229 90.6404 121.907 90.7154 121.581C90.5431 121.479 90.344 121.412 90.1301 121.385C89.9171 121.356 89.6926 121.367 89.4697 121.418C89.2481 121.468 89.0335 121.556 88.8374 121.678C88.6408 121.799 88.4675 121.95 88.3276 122.123C86.8795 123.419 85.4038 124.697 83.9212 125.995C79.7729 129.657 75.5548 133.217 71.4158 136.859C65.6126 141.984 59.8689 147.153 54.0928 152.295C52.3318 153.883 50.4887 155.397 48.5745 156.83C49.0986 155.812 49.5814 154.786 50.1827 153.774C52.3187 150.278 54.5709 146.828 56.6594 143.312C58.4297 140.355 60.0087 137.313 61.7244 134.324C62.3446 133.38 63.0778 132.49 63.9096 131.673C66.7988 128.709 69.9611 125.962 73.351 123.469C75.7784 121.723 78.4718 120.337 81.3037 119.375C83.9987 118.323 86.804 117.52 89.4396 116.316C92.6461 114.976 95.6979 113.27 98.5095 111.249C98.859 111.069 99.1661 110.773 99.511 110.551C101.667 109.166 103.914 107.886 105.988 106.377C108.47 104.571 111.302 103.248 114.262 102.514C117.384 101.602 120.327 100.055 122.846 98.0026C123.017 97.8887 123.171 97.7535 123.3 97.6009C125.413 94.9872 128.068 92.7499 129.889 89.9651C130.266 89.3743 130.765 88.8426 131.189 88.2737C131.613 87.7047 131.597 87.1016 130.757 86.9699C130.154 86.8876 129.518 86.9342 128.895 87.1046C126.962 87.6722 125.02 88.26 123.121 88.963C121.221 89.6661 119.256 90.6011 117.335 91.4069C116.492 91.8411 115.545 92.039 114.69 92.4489C113.168 93.0535 111.704 93.807 110.328 94.6944C108.28 96.1547 106.044 97.363 103.694 98.2775C101.429 99.1993 99.1273 100.125 96.8701 100.921C95.6622 101.359 94.3936 101.539 93.1597 101.93C91.4327 102.469 89.7135 103.094 87.9746 103.684C87.7575 103.795 87.5023 103.836 86.9702 104.018C87.7961 102.586 88.8193 101.233 90.0121 99.9941C92.1325 97.4681 94.2849 94.9707 96.3459 92.3987C98.1913 90.0899 99.9298 87.7146 101.707 85.3807C102.021 85.036 102.293 84.6649 102.518 84.2762C103.801 82.0638 105.306 79.9393 107.014 77.9317C109.257 74.8233 111.453 71.693 113.669 68.5686C115.886 65.443 117.919 62.5338 120.044 59.5168C119.087 57.6589 118.251 57.5702 116.414 59.1109C115.218 60.1089 114.127 61.2045 112.917 62.1789C110.805 63.8614 108.725 65.5733 106.494 67.1337C103.285 69.3184 100.437 71.9258 98.0679 74.8454C95.6289 77.932 92.8582 80.8388 90.2917 83.8551C88.3712 86.1258 86.5577 88.4631 84.6498 90.758C83.6812 91.913 82.6442 93.0429 81.6214 94.1644C79.9449 96.0836 78.1322 97.9103 76.195 99.6294C76.2887 99.0863 76.4209 98.5439 76.5919 98.0051C77.9518 94.466 79.3586 90.9488 80.7247 87.4218C81.225 86.142 81.5855 84.842 82.1573 83.6317C83.4856 80.4595 84.8618 77.3087 86.2583 74.1638C88.7273 68.5274 91.243 62.912 93.6704 57.2663C93.8579 56.5083 93.9187 55.7461 93.8497 55.0067C93.0062 55.0095 92.1454 55.1849 91.3299 55.5199C90.5154 55.8543 89.7679 56.3404 89.1447 56.9413C85.3706 59.9281 82.3281 63.5892 80.2743 67.6133C78.3606 71.0409 76.1622 74.4156 74.0623 77.8021C71.1648 82.4987 67.7495 86.9744 65.6378 91.9842C65.3442 92.5912 65.1233 93.2172 64.9804 93.8489C64.0662 97.8015 62.7269 101.723 60.9823 105.553C60.666 106.422 60.5017 107.311 60.4978 108.184C60.4432 110.863 59.9856 113.578 59.1365 116.257C58.507 118.485 58.0079 120.724 57.6422 122.964C57.2416 126.282 56.0302 129.59 54.095 132.651C53.87 132.965 53.7871 133.373 53.2799 133.711C53.4515 132.509 53.5815 131.297 53.8387 130.081C54.7659 125.665 55.7158 121.249 56.6903 116.829C57.0238 114.704 57.5809 112.582 58.3563 110.492C58.9318 109.093 59.1138 107.637 58.8848 106.267C58.6308 103.986 59.0565 101.599 58.8609 99.2884C58.6685 95.7562 58.2313 92.2703 57.5513 88.8511C56.8146 85.8649 56.5661 82.7358 56.8119 79.5546C56.9209 77.3209 56.707 75.1278 56.1741 73.0303C55.888 71.6514 55.6592 70.2428 55.2416 68.9315C55.0045 68.3083 54.5525 67.7917 53.9442 67.4475C53.7248 67.3182 53.4619 67.2502 53.1832 67.2495C52.9039 67.2502 52.6182 67.3175 52.3558 67.4465C52.0933 67.5755 51.8642 67.7598 51.6918 67.9825C51.519 68.2044 51.4101 68.4547 51.3748 68.709ZM75.6529 165.128C76.7141 162.279 78.0899 159.494 79.7602 156.816C80.5478 155.633 81.3923 154.449 82.0829 153.255C83.9062 150.041 85.9917 146.926 88.3212 143.938C92.0298 138.866 96.4166 134.17 101.363 129.973C101.923 129.503 102.567 129.124 103.255 128.862C103.807 128.738 104.363 128.706 104.897 128.765C104.821 129.261 104.919 129.807 104.658 130.23C102.926 133.153 101.247 136.108 99.2756 138.924C98.2625 140.287 97.4253 141.733 96.7837 143.228C95.8241 145.829 94.1295 148.182 93.7003 150.921C93.6761 151.087 93.5232 151.257 93.4426 151.421C92.2149 153.716 90.9051 155.993 89.8077 158.329C88.324 161.52 87.0337 164.763 85.5882 167.995C84.9165 169.547 84.2714 171.115 83.4621 172.616C82.3189 174.546 81.4033 176.553 80.7314 178.6C80.2876 180.069 79.7473 181.525 79.1126 182.96C78.1095 185.368 77.0505 187.776 75.9755 190.191C75.3434 191.684 74.629 193.158 73.8345 194.606C72.4829 196.981 71.0079 199.297 69.6084 201.651C69.6084 201.651 69.7016 201.832 69.8073 202.037C70.1527 201.842 70.4824 201.621 70.7916 201.377C73.7551 198.737 76.7055 196.074 79.5896 193.46C83.1869 190.376 85.8414 186.535 87.2202 182.418C88.1308 179.614 89.3141 176.838 90.2404 173.995C91.1678 171.152 91.7491 168.029 92.7465 165.073C93.7448 162.117 95.1582 158.825 96.4051 155.711C97.0219 154.157 97.7708 152.611 98.2688 151.042C99.4558 147.332 100.988 143.674 102.846 140.107C103.45 139.039 104.149 138.005 104.934 137.018C105.853 135.766 106.922 134.59 107.855 133.332C110.238 130.136 112.593 126.924 114.934 123.719C115.623 122.769 116.257 121.787 116.999 120.87C118.75 118.733 120.547 116.616 122.331 114.508C124.114 112.399 125.823 110.359 127.623 108.319C128.253 107.612 128.939 106.801 130.064 106.878C130.99 108.249 131.011 108.253 130.268 109.598C129.843 110.381 129.33 111.134 128.868 111.845C127.687 113.979 126.432 116.044 125.301 118.168C124.334 119.893 123.492 121.658 122.779 123.451C121.295 127.465 120.07 131.515 118.601 135.522C116.869 140.23 114.997 144.918 113.161 149.603C112.279 151.857 111.42 154.116 110.358 156.342C108.704 159.819 106.957 163.262 105.12 166.67C103.726 169.25 102.206 171.727 100.617 174.285C99.9052 175.475 99.117 176.66 98.3638 177.841L98.6849 178.072C99.39 177.511 100.061 176.921 100.798 176.389C105.21 173.202 109.167 169.514 112.543 165.444C113.058 164.84 113.606 164.258 114.183 163.699C116.922 160.946 119.686 158.24 122.404 155.482C124.921 152.905 127.384 150.293 129.84 147.67C130.717 146.73 131.922 145.927 131.909 144.545C131.918 144.311 132.267 144.024 132.467 143.769C133.562 142.611 134.578 141.369 135.573 140.049C136.383 139.085 137.089 138.062 137.679 136.996C139.716 132.91 140.76 128.601 140.733 124.388C140.76 122.298 141.058 120.16 141.156 118.065C141.36 116.941 141.317 115.828 141.032 114.785C140.404 113.033 139.959 111.202 139.513 109.371C139.214 107.14 138.472 105.033 137.318 103.143C137.166 102.975 137.063 102.774 137.014 102.553C136.596 99.8833 136.107 97.219 135.831 94.5378C135.484 90.5799 135.297 86.571 135.08 82.5771C134.914 79.3961 134.827 76.1901 134.695 73.0066C134.661 72.368 134.577 71.7398 134.591 71.0912C134.633 68.2761 134.85 65.4481 134.692 62.675C134.6 61.104 135.043 59.3201 133.765 58.0539C133.66 57.8494 133.676 57.4892 133.675 57.1995C133.681 55.7468 133.681 54.282 133.751 52.8105C133.699 52.3047 133.807 51.7736 134.065 51.276C134.511 50.6395 134.711 49.9138 134.63 49.2297C134.649 48.8377 135.001 48.4133 135.189 47.9951C135.659 48.0853 136.103 48.237 136.507 48.4464C136.726 48.7068 136.882 49.0098 136.967 49.3394C138.004 51.354 139.035 53.3565 140.072 55.372C140.804 56.3091 141.469 57.2918 142.065 58.3146C142.921 60.4023 143.447 62.6257 143.63 64.9267C144.085 69.9995 145.358 74.879 147.412 79.4174C147.543 79.6711 147.673 79.9241 147.891 80.1327C149.123 82.2762 150.542 84.3537 151.571 86.6028C153.984 92.2869 155.097 98.497 154.853 104.908L154.867 105.435C154.915 109.35 154.494 113.322 153.611 117.284C153.536 117.675 153.49 118.049 153.395 118.724C153.746 118.474 154.081 118.205 154.397 117.918C156.447 115.58 158.52 113.246 160.524 110.886C162.528 108.526 164.617 105.726 166.933 103.329C169.708 100.55 172.898 98.1239 176.383 96.1427C177.095 95.7468 177.762 95.2803 178.371 94.7535C180.965 92.3958 183.584 90.0544 186.058 87.6064C188.843 84.9128 192.008 82.5574 195.446 80.6209C196.176 80.2504 196.872 79.8204 197.525 79.337C201.091 76.4432 204.396 73.2949 207.397 69.9341C209.371 67.7281 211.66 65.7101 213.817 63.5761C213.948 63.4352 214.106 63.3161 214.281 63.2259C214.456 63.1362 214.645 63.0755 214.836 63.051C215.026 63.0256 215.215 63.0358 215.389 63.08C215.563 63.1242 215.72 63.2018 215.849 63.3091C216.453 63.7303 216.019 64.3514 215.729 64.8971C215.155 66.0323 214.575 67.1549 214.098 68.301C212.954 71.0111 212.067 73.7885 210.719 76.4206C209.13 79.5128 207.168 82.4915 205.324 85.5174C203.832 88.1264 202.109 90.6483 200.173 93.053C198.122 95.3917 195.832 97.5635 193.338 99.533C188.434 103.584 183.637 107.732 178.833 111.87C177.188 113.282 175.669 114.797 173.97 116.357C175.024 116.044 175.977 115.752 176.915 115.468C180.577 114.563 184.161 113.231 187.568 111.51C189.323 110.583 191.148 109.797 193.017 109.162C193.321 109.061 193.636 109.018 193.94 109.035C194.244 109.053 194.53 109.131 194.779 109.262C195.32 109.67 194.84 110.345 194.405 110.858C194.077 111.276 193.706 111.667 193.295 112.025C190.24 114.376 187.223 116.769 184.044 119.062C182.289 120.332 180.287 121.302 178.465 122.515C175.725 124.338 173.128 126.223 170.494 128.145C170.276 128.257 170.116 128.446 169.671 128.797L170.849 128.832C173.081 128.676 175.292 128.729 177.442 128.993C177.944 129.05 178.47 129.013 178.986 128.885C179.902 128.735 180.828 128.426 181.724 128.346C185.29 127.886 188.85 127.102 192.346 126.007C194.925 125.3 197.519 124.635 200.13 124.014C204.842 122.823 209.439 121.038 213.771 118.716C215.225 117.967 216.884 117.296 217.597 115.753C219.337 115.773 219.784 116.032 219.286 116.853C218.009 119.082 216.31 121.137 214.276 122.912C211.561 125.046 208.527 126.799 205.303 128.097C203.301 128.979 201.472 130.217 199.944 131.726C197.547 134.159 194.544 136.049 191.261 137.188C187.461 138.382 183.662 139.574 179.801 140.508C176.652 141.321 173.466 141.847 170.098 142.559C172.619 143.596 174.825 144.597 177.124 145.489C181.593 147.202 184.508 150.434 187.356 153.714C189.559 156.545 192.118 159.12 194.99 161.399C196.916 162.819 198.677 164.416 200.453 165.974C200.812 166.278 201.22 166.998 201.075 167.18C200.595 167.675 199.987 168.057 199.324 168.28C198.804 168.433 198.271 168.484 197.762 168.428C196.274 168.351 194.886 167.946 193.714 167.245C191.403 166.008 189.077 164.702 186.648 163.557C182.37 161.613 178.397 159.246 174.788 156.491C171.473 153.892 167.574 151.92 163.274 150.666C159.132 149.569 154.799 148.904 150.351 148.68C148.21 148.383 145.985 148.367 143.743 148.633C142.769 148.813 141.786 148.724 140.796 148.837C140.216 148.895 139.638 149.062 139.099 149.33C133.536 152.346 129.456 156.782 124.952 161.466C125.871 161.252 126.37 161.149 126.849 161.008C129.756 160.153 132.665 159.266 135.585 158.434C138.791 157.517 142.021 156.647 145.131 155.794C145.854 155.59 146.554 155.306 147.272 155.165C148.603 154.892 148.968 155.314 148.485 156.448C148.326 156.82 148.307 157.211 148.134 157.591C147.962 157.969 147.768 158.557 147.4 158.808C146.046 159.75 144.555 160.639 143.086 161.502C141.617 162.365 140.44 162.865 139.212 163.695C133.88 167.234 128.601 170.806 123.302 174.373C122.793 174.636 122.431 175.112 121.645 175.762L122.817 175.539C126.994 174.686 130.876 172.795 134.929 171.486C137.556 170.544 140.225 169.761 142.919 169.143C145.148 168.724 147.363 168.155 149.546 167.441C151.78 166.596 154.112 166.137 156.409 166.09C158.545 166.166 160.682 166.21 162.796 166.313C166.295 166.465 169.78 166.624 173.254 166.835C176.441 166.941 179.401 167.838 181.818 169.432C182.275 169.785 182.836 170.019 183.458 170.114C184.154 170.213 184.781 170.481 185.274 170.893C185.766 171.304 186.108 171.843 186.262 172.456C186.79 173.481 185.916 174.496 184.533 174.49C183.504 174.46 182.498 174.328 181.535 174.096C180.009 173.622 178.347 173.44 176.643 173.561C175.192 173.744 173.741 173.926 172.315 174.264C170.849 174.513 169.389 174.852 167.945 175.277C164.076 176.551 160.249 177.942 156.389 179.196C152.528 180.451 149.037 181.455 145.299 182.662C139.428 184.6 133.378 185.648 127.418 185.762C125.386 185.817 123.348 185.966 121.324 186C120.157 186.021 119.018 185.844 117.871 185.794C115.657 185.516 113.332 185.673 111.045 186.255C109.563 186.753 108.052 187.132 106.534 187.387C104.622 187.633 102.72 188.148 100.901 188.913C99.191 189.509 97.5235 190.24 95.9186 191.097C92.6663 193.092 89.3116 194.927 85.8724 196.59C84.9513 197.141 84.088 197.775 83.2967 198.48C82.7715 198.889 82.3424 199.414 81.8355 199.858C79.2944 202.067 76.7408 204.252 74.1935 206.449C74.0286 206.636 73.8778 206.831 73.7407 207.033C74.2173 207.04 74.7012 207.011 75.185 206.946C77.9933 206.4 80.828 205.903 83.6306 205.238C88.352 204.12 93.0459 202.879 97.7423 201.712C98.722 201.466 99.7104 201.295 100.697 201.199C104.647 200.798 108.589 200.631 112.533 200.004C115.314 199.48 118.104 199.325 120.811 199.543C126.196 200.143 131.527 200.925 136.877 201.635C137.942 201.774 139.062 201.807 140.086 202.044C143.057 202.743 146.034 203.561 148.942 204.277C150.749 204.75 152.525 205.271 154.286 205.799C155.092 206.041 155.323 206.67 154.718 207.103C153.258 208.16 152.179 209.707 150.208 210.096C149.303 210.375 148.409 210.702 147.532 211.078C144.689 212.113 141.802 212.983 138.886 213.682C135.541 214.205 132.195 214.532 128.868 214.658C125.788 214.854 122.756 214.752 119.652 214.976C114.384 215.459 109.159 216.028 103.852 216.76C100.48 217.363 97.0995 217.799 93.7283 218.065C91.5057 218.141 89.2512 218.478 87.0406 218.577C84.6698 218.811 82.3156 218.815 80.0215 218.59C75.8618 218.009 71.5896 217.795 67.2615 217.955C62.3249 217.989 57.2976 219.64 53.1024 222.604C52.4394 223.077 51.7512 223.518 51.0415 223.924C46.3871 226.457 41.6999 228.963 37.0508 231.508C33.8758 233.235 30.7577 235.039 27.5938 236.789C26.8444 237.197 25.9963 237.373 25.2001 237.286C24.4045 237.198 23.7117 236.853 23.2464 236.31C21.8925 233.681 22.8479 229.892 26.432 228.565C27.979 227.997 29.5964 227.318 31.1645 226.648C32.6935 226.067 34.1835 225.377 35.6191 224.583C38.1716 223.04 40.6048 221.299 43.0932 219.667C44.1803 218.955 45.27 218.287 46.3633 217.587C50.1189 215.165 54.1746 213.077 56.6348 209.246C58.0999 207.479 59.4011 205.618 60.5236 203.687C62.2255 199.793 63.6623 195.842 64.8239 191.858C66.0492 187.808 67.4373 183.776 68.9888 179.762C70.2596 175.959 71.8815 172.214 73.8358 168.566C74.536 167.452 75.1428 166.302 75.6529 165.128Z" fill="white"/>
<path d="M53.9442 67.4475C54.5525 67.7917 55.0045 68.3083 55.2416 68.9315C55.6592 70.2428 55.888 71.6514 56.1741 73.0303C56.707 75.1278 56.9209 77.3209 56.8119 79.5546C56.5661 82.7358 56.8146 85.8649 57.5513 88.8511C58.2313 92.2703 58.6685 95.7562 58.8609 99.2884C59.0441 101.575 58.6308 103.986 58.8848 106.267C59.1097 107.634 58.9252 109.085 58.35 110.48C57.5746 112.57 57.0175 114.692 56.684 116.817C55.7137 121.244 54.7638 125.661 53.8324 130.068C53.5752 131.284 53.4453 132.496 53.2736 133.699C53.8121 133.422 53.8637 132.953 54.0888 132.638C56.024 129.578 57.2354 126.27 57.635 122.952C58.0016 120.712 58.5007 118.472 59.1302 116.245C59.9794 113.566 60.4369 110.851 60.4916 108.172C60.4955 107.299 60.6598 106.41 60.976 105.541C62.753 101.74 64.131 97.8459 65.0873 93.9155C65.2312 93.2833 65.4516 92.6586 65.7457 92.0503C67.8272 87.056 71.2727 82.5648 74.1693 77.8687C76.2706 74.4826 78.4268 71.0978 80.3823 67.6794C82.4364 63.6562 85.479 59.995 89.2517 57.0079C89.8762 56.4073 90.6238 55.9212 91.4383 55.5867C92.2524 55.2515 93.1145 55.0764 93.9581 55.0735C94.0261 55.8134 93.9662 56.5752 93.7787 57.3332C91.3513 62.9788 88.8353 68.5934 86.3662 74.2299C84.9691 77.3761 83.5939 80.5264 82.2652 83.6978C81.7184 84.9566 81.3579 86.2565 80.8326 87.4879C79.4665 91.0148 78.0591 94.5334 76.6993 98.0725C76.5289 98.61 76.3967 99.1524 76.303 99.6955C78.2392 97.9769 80.0533 96.1504 81.7293 94.2305C82.7521 93.1089 83.7885 91.9804 84.7581 90.8249C86.6369 88.545 88.449 86.2074 90.3997 83.9212C92.9665 80.9057 95.7372 77.9989 98.1749 74.9119C100.544 71.9932 103.393 69.3853 106.601 67.2011C108.833 65.6394 110.912 63.928 113.025 62.245C114.235 61.2715 115.325 60.1755 116.522 59.1778C118.359 57.6371 119.168 57.8157 120.152 59.5828C118.027 62.6007 115.902 65.6177 113.777 68.6347C111.652 71.6518 109.365 74.8902 107.121 77.9991C105.414 80.0054 103.908 82.1304 102.626 84.3422C102.4 84.7315 102.128 85.1026 101.815 85.4468C100.037 87.7819 98.2997 90.1568 96.4532 92.466C94.3995 95.0497 92.2395 97.5347 90.1195 100.061C88.8899 101.274 87.8257 102.607 86.9556 104.025C87.4877 103.843 87.7246 103.767 87.961 103.691C89.6989 103.102 91.4181 102.476 93.1451 101.938C94.379 101.547 95.6476 101.367 96.8555 100.928C99.1565 100.109 101.472 99.1773 103.679 98.285C106.029 97.3705 108.265 96.1622 110.313 94.7019C111.69 93.8145 113.153 93.061 114.675 92.4564C115.518 92.0223 116.446 91.7888 117.32 91.4144C119.241 90.6086 121.148 89.7037 123.106 88.9705C125.064 88.2374 126.948 87.6797 128.881 87.1116C129.493 86.9644 130.113 86.9366 130.696 87.0317C131.531 87.1509 131.647 87.6261 131.129 88.3355C130.611 89.0444 130.206 89.4362 129.83 90.0264C128.118 92.7399 125.431 95.0235 123.277 97.6281C123.148 97.7807 122.994 97.9158 122.823 98.0298C120.305 100.081 117.361 101.629 114.239 102.541C111.294 103.289 108.478 104.618 106.012 106.425C103.939 107.935 101.692 109.214 99.5355 110.599C99.1723 110.786 98.8528 111.057 98.5344 111.298C95.7229 113.319 92.6711 115.024 89.4646 116.364C86.8285 117.568 84.0232 118.371 81.3287 119.423C78.4968 120.385 75.8034 121.772 73.376 123.517C69.9857 126.01 66.8237 128.757 63.9345 131.721C63.1027 132.539 62.3696 133.429 61.7493 134.372C60.0337 137.362 58.4547 140.403 56.6839 143.36C54.5959 146.877 52.3436 150.326 50.2077 153.822C49.5939 154.81 49.1423 155.897 48.5994 156.879C50.5137 155.446 52.3567 153.931 54.1173 152.343C59.8939 147.202 65.6371 142.032 71.4408 136.907C75.5735 133.253 79.7791 129.669 83.9458 126.043C85.4288 124.745 86.904 123.467 88.3526 122.172C88.4925 121.999 88.6657 121.847 88.8619 121.726C89.0585 121.605 89.2731 121.517 89.4946 121.466C89.7175 121.416 89.9417 121.404 90.1546 121.432C90.3685 121.46 90.5681 121.527 90.7403 121.63C90.665 121.955 90.5465 122.277 90.388 122.589C88.6957 125.123 87.0383 127.656 85.2444 130.137C82.9811 133.316 80.6983 136.491 78.2815 139.583C76.1401 142.211 73.8453 144.827 71.6539 147.466C69.4634 150.105 67.5649 152.777 65.2542 155.218C60.5857 160.155 55.7649 164.973 50.9374 169.778C49.2878 171.534 47.3156 173.032 45.1319 174.186C42.7638 175.417 40.6563 177.076 38.968 179.039C37.9765 180.114 37.0872 181.243 36.09 182.307C33.595 184.964 31.1139 187.646 28.5328 190.242C26.9744 191.801 25.3133 193.279 23.5622 194.663C22.2524 195.62 21.1765 196.818 20.43 198.153C18.9023 201.165 16.664 203.921 13.8904 206.205C13.0909 206.884 12.5691 207.775 12.4319 208.696C12.9704 208.418 13.2173 208.185 13.4835 207.987C15.6181 206.247 17.8375 204.595 20.1314 203.038C22.7217 201.4 25.1726 199.571 27.4522 197.575C28.3799 196.8 29.3901 196.111 30.4605 195.522C31.8773 194.702 33.2887 194.158 34.6331 193.374C39.7589 190.292 44.7905 187.061 49.9663 184.076C53.8359 181.84 57.8774 179.865 61.8548 177.802C63.7157 176.844 65.5911 175.879 67.5082 175.03C68.1358 174.832 68.7758 174.697 69.416 174.627C69.0017 175.466 68.8707 176.068 68.5214 176.462C66.6216 178.416 64.641 180.321 62.6999 182.267C60.7598 184.212 58.8058 186.133 56.9398 188.117C54.4766 190.729 52.2271 193.504 49.632 196.001C43.7907 201.358 37.1682 205.969 30.0131 209.658C26.4406 211.452 22.7844 213.07 19.0622 214.501C16.1829 215.694 13.2485 216.747 10.3142 217.8C8.31892 218.391 6.43083 219.364 4.79005 220.644C2.44325 222.661 -0.111098 224.449 -1.74605 227.061C-1.8646 227.259 -2.14113 227.402 -2.31557 227.599C-3.60321 228.857 -4.82698 230.165 -5.9817 231.516C-9.2813 235.611 -12.3917 239.822 -15.7712 243.867C-17.4875 245.927 -19.8468 246.668 -21.6479 244.954C-22.0715 244.562 -22.4717 244.142 -22.8797 243.741C-23.1514 243.515 -23.3156 243.201 -23.3465 242.849C-23.3775 242.497 -23.2743 242.128 -23.0512 241.8C-22.3896 240.638 -21.6358 239.511 -20.7969 238.426C-18.5105 235.723 -16.137 233.188 -13.8755 230.436C-11.4871 227.467 -9.30866 224.376 -7.02757 221.339C-5.49523 219.502 -4.72314 217.307 -4.86942 215.207C-5.02765 213.251 -4.89768 211.244 -4.48477 209.24C-3.75083 205.626 -2.68242 202.024 -1.82477 198.437C-1.03743 195.488 0.0747407 192.573 1.49518 189.738C2.61881 187.348 3.65741 184.936 4.61148 182.501C5.96709 179.026 7.16215 175.526 8.43946 172.075C9.00819 170.636 9.67975 169.22 10.4494 167.834C11.5523 165.832 12.8955 163.905 13.9229 161.864C15.3604 158.971 17.1239 156.18 19.1819 153.54C19.701 152.871 20.2915 152.245 20.9428 151.672C22.0664 150.744 23.0028 149.649 23.6945 148.451C24.3859 147.253 24.8191 145.977 24.9675 144.7C25.0011 143.538 25.2797 142.359 25.7896 141.224C26.1675 140.015 26.3258 138.789 26.257 137.596C26.5091 135.298 26.8105 132.99 27.0275 130.696C27.2085 128.94 27.256 127.175 27.4516 125.411C27.764 122.625 28.3658 119.827 28.4727 117.07C28.7879 113.076 29.6269 109.059 30.9721 105.099C31.0851 104.675 31.5314 104.293 31.9488 103.711C32.6738 104.117 33.5035 104.3 33.8343 104.801C34.6796 105.883 35.3082 107.104 35.6978 108.421C36.7197 112.87 37.549 117.374 38.4062 121.862C38.5843 124.055 38.9542 126.207 39.5133 128.298C40.4782 131.33 40.759 134.589 40.3371 137.902C40.225 140.005 40.0125 142.128 39.9141 144.225C39.7865 146.87 39.8143 149.496 39.6367 152.151C39.22 155.934 38.295 159.726 36.8812 163.445C36.66 164.124 36.4747 164.8 36.2287 165.75C36.7434 165.393 36.9843 165.361 37.0528 165.174C39.3262 161.409 42.0106 157.691 43.5394 153.516C44.7656 149.846 45.2074 146.103 44.8373 142.499C44.6535 140.426 44.3842 138.367 44.2358 136.291C44.0949 132.684 43.6499 129.133 42.9039 125.667C42.1854 123.379 42.0163 120.911 42.4058 118.414C43.2164 114.272 44.1251 110.141 44.9566 106.004C45.6035 103.164 45.8551 100.318 45.7055 97.529C45.5498 95.8579 45.6315 94.1455 45.9485 92.4283C47.1935 86.0941 48.6149 79.7458 49.97 73.4458C50.3349 71.8575 50.8041 70.2756 51.3748 68.709C51.4101 68.4547 51.519 68.2044 51.6918 67.9825C51.8642 67.7598 52.0933 67.5755 52.3558 67.4465C52.6182 67.3175 52.9039 67.2502 53.1832 67.2495C53.4619 67.2502 53.7248 67.3182 53.9442 67.4475ZM56.9709 106.55C57.4159 105.878 57.0683 104.882 57.091 104.031C55.2251 106.217 53.7693 108.631 52.7955 111.157L53.1417 111.329C54.5088 109.79 55.7876 108.194 56.9709 106.55ZM55.183 112.614C56.1944 111.437 57.2361 110.245 56.7922 108.595C55.2659 110.526 53.7667 112.366 52.3561 114.268C52.2096 114.546 52.1251 114.839 52.1067 115.128C52.0887 115.419 52.1376 115.7 52.2493 115.956C53.2074 114.852 54.2019 113.745 55.183 112.614ZM55.7431 113.989C54.366 115.368 53.0843 116.819 51.9081 118.329C51.3429 119.124 51.4436 120.248 51.2446 121.221C52.5316 120.337 53.61 119.221 54.3921 117.964C55.1739 116.707 55.6374 115.344 55.7431 113.989ZM79.0483 87.4149L78.7178 87.2038C77.9217 88.086 77.0659 88.9242 76.3876 89.8224C75.7108 90.7209 74.3312 91.2931 74.5434 93.0618C76.0611 90.9371 77.9063 89.3769 79.0483 87.4149ZM72.7364 93.4115C73.743 90.1769 75.0031 86.9775 76.5073 83.8385C77.1701 82.2306 77.909 80.6296 78.6267 79.0231C78.8807 78.4803 79.1763 77.9468 79.6045 76.9934C79.9028 77.5728 80.0829 77.9227 80.076 78.1246C79.6808 79.4148 79.1831 80.6924 78.5859 81.9444C77.6264 83.7367 76.9409 85.6067 76.5504 87.4946C77.69 86.3129 78.835 85.1438 79.9465 83.9459C80.1799 83.6335 80.342 83.2904 80.4216 82.9377C81.4111 80.0145 82.6815 77.139 84.2176 74.3444C85.7039 71.2279 87.0733 68.0663 88.5424 64.8829C89.3169 63.1715 90.056 61.4631 90.7889 59.7425C90.9546 59.3515 91.0447 58.9544 91.2993 58.1977C89.5297 59.4717 88.0468 61.0489 86.9613 62.812C84.7867 65.7329 82.6742 68.7742 80.7347 71.7569C79.6897 73.3019 78.9946 74.8804 78.132 76.4542C78.0182 76.7428 77.8885 77.0293 77.7447 77.3099C75.7378 80.5564 73.7309 83.8029 71.699 87.001C70.2259 89.2744 69.0584 91.6655 68.226 94.1162C66.8657 98.0828 65.1796 101.988 63.7359 105.936C63.4826 106.799 63.3445 107.669 63.3241 108.529C63.3107 109.635 63.2273 110.749 63.0727 111.865C62.5678 114.169 61.8945 116.47 61.3119 118.769C61.0935 119.63 60.9301 120.492 60.79 121.328L61.3376 121.427C62.143 120.204 63.0428 119.023 63.7669 117.75C65.9164 114.311 67.3919 110.638 68.12 106.915C68.9051 103.183 70.1375 99.4776 71.7937 95.8657C72.177 95.0622 72.4933 94.241 72.7364 93.4115ZM76.4505 92.8733C74.9121 94.8859 72.0592 96.3097 72.3123 99.1247C73.944 97.1857 76.323 95.5182 76.4505 92.8733ZM73.881 99.9201C72.8704 100.852 72.0331 101.619 71.2171 102.391C70.9776 102.605 70.6184 102.836 70.5593 103.08C69.8697 105.076 69.4258 107.101 69.2363 109.119C71.629 106.086 73.5133 103.314 73.881 99.9201ZM97.3645 102.666L97.1969 102.34C94.5079 103.19 91.8267 104.021 89.1751 104.944C87.9146 105.333 86.6717 105.795 85.454 106.325C84.4231 106.71 83.4602 107.273 82.627 107.978C80.7772 109.812 79.0791 111.759 77.5497 113.798C78.2543 113.504 78.936 113.153 79.5849 112.751C80.9029 111.777 82.3656 110.993 83.9089 110.432C86.1019 109.548 88.2434 108.491 90.4136 107.526C90.8282 107.31 91.2648 107.136 91.7113 107.01C94.3538 106.322 95.6585 104.353 97.2915 102.703L97.3645 102.666ZM100.595 101.582C98.992 102.042 98.7254 103.201 98.0267 104.095C99.1135 103.479 100.01 102.601 100.595 101.582ZM104.607 99.9439C103.15 100.221 102.455 101.052 102.253 102.515L104.607 99.9439ZM81.8573 115.808C85.5066 114.356 89.157 112.874 92.7147 111.211C97.2304 108.992 101.592 106.472 105.754 103.673C107.759 102.541 109.822 101.514 111.933 100.599C114.419 99.3191 116.905 98.0393 119.334 96.6816C119.62 96.5042 119.922 96.3488 120.234 96.2178C122.623 95.4615 124.045 93.7225 125.501 91.9798C126.279 91.0612 127.131 90.1799 127.956 89.2819L127.794 88.9683C125.434 89.8475 123.067 90.7153 120.709 91.6389C118.284 92.4981 115.894 93.4734 113.551 94.5613C110.995 95.6553 108.657 97.2141 106.704 99.124C106.551 99.2562 106.417 99.4079 106.31 99.5713C104.851 102.597 102.008 104.075 98.905 105.337C97.144 106.061 95.4798 107.009 93.751 107.792C92.0207 108.576 90.384 109.22 88.7085 109.93C87.0329 110.641 85.4546 111.255 83.859 112.015C82.5366 112.696 81.2627 113.473 79.9133 114.138C78.1099 115.066 76.2267 115.837 74.3852 116.725C73.8406 116.966 73.3425 117.301 72.9223 117.707C70.9873 119.878 69.1118 122.095 67.2315 124.3C67.1312 124.421 67.0606 124.556 67.0244 124.697C66.9882 124.837 66.9882 124.978 67.0226 125.11C67.4782 124.786 67.9142 124.439 68.3271 124.071C72.199 120.48 76.8361 117.648 81.8573 115.808ZM69.4592 146.704C71.5189 144.452 73.6114 142.231 75.6379 139.951C76.8063 138.648 77.8085 137.307 78.858 135.989C80.7521 133.487 82.6315 130.993 84.511 128.499C85.1196 127.779 85.6294 127.004 86.0273 126.193C85.5648 126.5 85.1215 126.831 84.6974 127.182C78.0236 133.045 71.4029 138.942 64.8 144.799C62.1362 147.162 59.2983 149.402 56.674 151.806C53.3613 154.839 50.1814 157.987 46.9546 161.114C45.2277 162.796 43.554 164.512 41.8546 166.212C41.542 166.478 41.2771 166.785 41.071 167.119C39.8493 169.534 37.4879 171.269 35.8201 173.425C34.1532 175.58 32.4463 177.589 30.7399 179.703C30.2482 180.327 29.9077 181.025 29.7475 181.74C30.9956 180.693 32.1727 179.577 33.2697 178.401C34.4681 176.924 35.7992 175.528 37.2469 174.232C38.8511 172.811 40.2316 171.169 41.7357 169.661C43.4544 167.891 45.1523 166.116 46.871 164.346C48.8962 162.442 50.8015 160.441 52.5784 158.355C53.4274 157.526 54.3676 156.775 55.3813 156.119C57.3058 154.533 59.2768 152.968 61.1262 151.345C63.6615 149.124 66.2581 146.81 68.7581 144.486C69.918 143.415 70.9388 142.218 72.0253 141.079L72.5335 141.458L66.4375 148.015C66.9857 148.035 67.5521 147.924 68.0818 147.694C68.6114 147.464 69.0861 147.123 69.4592 146.704ZM33.5297 174.084L35.8107 171.155C34.0389 172.25 33.7397 172.633 33.5005 174.099L33.5297 174.084ZM66.7984 149.752C64.8756 150.59 62.8998 150.645 61.7286 152.622C63.5293 151.832 65.5712 151.941 66.7692 149.767L66.7984 149.752ZM63.6558 153.293C62.0533 153.432 61.0821 154.618 59.822 155.099C58.3922 155.538 57.0722 156.324 56.0212 157.362C57.7533 156.958 59.4664 156.423 61.1389 155.765C62.1127 155.06 62.9655 154.223 63.6558 153.293ZM30.2215 185.877C33.2707 182.475 36.1457 178.95 39.3206 175.651C41.0103 174.033 42.8691 172.564 44.8643 171.271C48.3053 168.64 51.5348 165.782 54.5178 162.73C55.8804 161.448 57.1448 160.08 58.4349 158.729C58.7197 158.38 58.9745 158.014 59.1959 157.635C57.1695 158.236 55.3883 158.741 53.6258 159.282C53.3316 159.45 53.0737 159.672 52.8732 159.928C49.3905 163.416 45.8531 166.87 42.4095 170.398C40.2257 172.621 38.1675 174.948 36.0232 177.212C34.7017 178.61 33.3314 179.987 31.9766 181.356C29.1215 184.168 26.728 187.312 24.8891 190.668C25.387 190.436 25.8591 190.152 26.293 189.822C27.68 188.513 29.0551 187.255 30.2799 185.847L30.2215 185.877ZM36.5455 195.839C38.3097 195.694 39.4532 194.343 40.1747 191.849C37.8515 192.48 37.6949 194.392 36.6039 195.809L36.5455 195.839ZM44.0211 189.426C43.3531 189.77 42.6841 190.114 41.9713 190.481L41.6781 192.876L42.0019 192.969L44.2743 189.738L44.0211 189.426ZM-20.7332 243.018L-18.1635 243.221C-17.2945 241.98 -17.5937 241.112 -18.4789 240.072L-20.7332 243.018ZM36.4486 145.459C38.1772 143.091 38.9759 140.364 38.6962 137.784C38.6919 137.027 38.7407 136.263 38.8413 135.496C38.9769 133.604 38.7523 131.754 38.176 130.024C37.5953 127.896 37.1232 125.727 36.6917 123.569C35.9214 118.928 35.2794 114.253 34.4736 109.615C34.1952 108.914 33.7848 108.275 33.26 107.722L32.6996 107.918C32.5833 108.308 32.4956 108.699 32.4388 109.091C31.9899 114.649 31.5821 120.217 31.0853 125.753C30.9905 126.748 30.614 127.766 30.442 128.755C30.1368 130.591 29.8758 132.405 29.5905 134.246C29.3732 135.716 29.2795 137.214 28.9642 138.674C27.7456 144.289 27.1957 149.916 27.3221 155.454C27.3347 157.199 27.2329 158.958 27.0194 160.723C26.5682 164.207 25.8295 167.701 25.5052 171.179C25.1812 174.658 25.2565 177.841 25.1504 181.528C25.6198 181.011 26.0827 180.697 26.191 180.336C27.2897 176.717 28.3617 172.976 29.2394 169.287C29.6948 167.42 29.6945 165.527 30.004 163.628L31.6163 152.114C31.7318 151.23 31.791 150.345 31.8857 149.457C32.2285 146.146 32.5768 142.844 32.9279 139.549C33.0043 139.097 33.1106 138.645 33.2427 138.196L33.6512 138.168L33.5447 148.999C34.7112 147.621 35.5701 146.538 36.4486 145.459ZM13.3429 187.103C12.0675 190.018 11.2334 193.043 10.1504 196.012C9.40473 198.136 8.55055 200.3 7.65776 202.423C6.99013 204.019 6.20323 205.599 5.45845 207.189C5.33778 207.418 5.1608 207.646 5.0197 207.872C5.27059 207.896 5.52986 207.899 5.77493 207.911C9.14804 203.947 12.231 199.809 14.9979 195.531C15.1408 195.251 15.2994 194.975 15.4735 194.706C17.5154 192.137 19.0017 189.294 19.8363 186.354C21.4477 181.571 22.6493 176.737 23.4286 171.898C23.6294 169.199 23.6547 166.515 23.5032 163.862C23.5333 161.633 23.6188 159.406 23.7335 157.165C23.7705 156.093 23.8508 154.997 23.9014 153.918L23.5013 153.926L21.7247 160.335L17.4215 175.876C16.3535 179.661 14.9912 183.413 13.3429 187.103ZM8.58506 189.827C9.31603 189.603 9.92432 189.428 10.7482 189.171L12.8758 184.015C9.94158 185.389 9.65883 187.733 8.58506 189.827ZM9.73153 190.946C8.45533 192.504 6.6599 193.84 6.47283 195.905C7.51485 194.285 9.77651 193.106 9.73153 190.946ZM36.0223 154.668C36.2193 154.338 36.3053 153.897 36.5802 153.68C38.2187 152.469 38.0297 150.994 38.1149 149.516C38.1992 148.038 38.1028 146.851 38.0946 145.512L37.7212 145.43C36.1695 148.274 34.0073 150.898 33.0243 153.954C34.7501 152.484 35.5417 150.414 37.2126 148.943C37.3385 148.979 37.4596 149.023 37.5755 149.076C37.5535 149.328 37.4915 149.581 37.3918 149.827C36.1964 151.863 34.9851 153.905 33.7627 155.924C33.5037 156.366 33.1775 156.78 32.7961 157.154C32.1268 157.819 32.155 158.445 32.3346 159.33C33.8118 157.931 35.0571 156.356 36.0223 154.668ZM33.5375 161.595C34.1667 160.678 34.8779 159.801 35.6643 158.974C37.2141 157.627 37.2597 156.108 37.1517 154.469L31.5446 163.156L31.9304 163.369C32.4875 162.807 33.0262 162.21 33.5375 161.595ZM35.8166 159.949L33.0459 164.107C32.6803 164.646 32.2871 165.17 32.0144 165.676C31.7332 166.029 31.5269 166.421 31.4114 166.826C30.5687 171.967 28.9391 177.086 26.5687 182.033C26.2813 182.655 25.7951 183.211 25.4545 183.798C24.7555 185.013 24.0628 186.239 23.4055 187.463C22.7482 188.687 22.7256 189.538 21.3079 190.069C20.8425 190.309 20.5596 191.08 20.2452 191.577L18.8621 193.679C17.6561 195.445 16.3281 197.15 15.2792 198.973C14.027 200.931 12.5734 202.8 10.9412 204.549C8.16963 207.722 5.6595 211.056 3.43794 214.517C3.20765 214.91 2.92071 215.278 2.58526 215.612C2.38995 215.805 1.88707 215.972 1.75711 215.932C1.45509 215.774 1.24397 215.515 1.16011 215.201C1.04861 214.984 1.32447 214.628 1.44357 214.323C2.08987 212.659 2.85623 211.021 3.73725 209.418C4.96575 206.985 5.99108 204.498 6.80319 201.979C7.60946 199.793 8.21351 197.573 9.04938 194.945C8.65607 195.188 8.28633 195.466 7.94853 195.771C7.21973 196.827 6.39812 197.837 5.49331 198.791C4.40131 199.795 3.63847 201.036 3.3114 202.341C2.46318 205.266 1.67086 208.192 0.843526 211.121C0.747027 211.341 0.629326 211.555 0.491435 211.761C-0.113399 210.942 0.292579 210.123 0.470106 209.36C1.16257 206.24 1.92635 203.115 2.66052 200.005C2.61725 199.921 2.6575 199.748 2.7192 199.655C4.59866 197.161 5.00027 194.404 6.18135 191.767C7.01401 189.812 8.00636 187.775 8.77239 185.762C9.53881 183.75 9.90022 182.129 10.5294 180.279C11.423 177.834 12.4199 175.413 13.4438 173.009C13.8231 172.246 14.2723 171.503 14.7858 170.792C15.5279 171.554 15.0583 172.178 14.8143 172.776L10.594 183.192C10.4941 183.426 10.4152 183.665 10.2751 184.072C11.4095 183.488 12.2236 183.069 13.3631 182.605C16.7722 172.918 19.6471 163.155 21.9746 153.353C20.5979 154.663 19.5943 156.236 19.0726 157.9C18.1496 160.347 16.8012 162.702 15.0833 164.869C13.803 166.811 12.6975 168.825 11.7824 170.888C10.9127 172.771 10.3634 174.671 9.6038 176.588C8.43325 179.602 7.17402 182.586 6.01595 185.624C4.3834 190.098 2.63882 194.567 1.31973 199.078C0.0298167 202.815 -0.66989 206.619 -0.755484 210.372C-0.761796 211.198 -0.874626 212.034 -1.09101 212.865C-1.60442 215.648 -1.78375 218.427 -1.62438 221.153C-1.966 221.741 -2.30662 222.328 -2.74751 223.044L-4.23361 223.122C-8.36282 228.178 -12.4739 233.195 -16.7316 238.393L-15.6507 240.493C-15.2912 240.165 -14.9539 239.817 -14.6409 239.454C-12.3744 236.212 -10.2298 232.909 -7.83538 229.738C-6.41224 228.086 -4.89954 226.492 -3.30418 224.963C-2.71426 224.451 -2.25 223.836 -1.9525 223.169C-1.655 222.503 -1.53317 221.807 -1.59516 221.138C-1.53781 221.285 -1.46501 221.427 -1.378 221.56C-1.21551 221.675 -1.04395 221.781 -0.866531 221.876C-0.116047 221.262 0.667529 220.568 1.48228 219.935C2.20423 219.361 2.96032 218.825 3.74431 218.328C5.46392 217.275 7.21115 216.237 8.97656 215.237C10.0526 214.684 11.1432 214.122 12.2182 213.569C12.5381 213.348 12.8366 213.102 13.1102 212.834L13.2261 212.775C15.1767 212.991 16.8719 211.783 18.585 211.038C21.0004 209.978 23.3397 208.698 25.6506 207.4C29.8816 205.222 34.1125 203.044 38.1853 200.597C40.7336 199.143 43.1274 197.45 45.3169 195.551C51.3413 190.176 57.1866 184.632 63.2484 179.009C61.9374 179.147 60.6425 179.627 59.5272 180.39C55.2215 182.743 51.0983 185.095 46.8847 187.449C46.0697 187.868 45.4804 188.293 45.4273 189.298C45.4327 189.737 44.9769 190.246 44.7276 190.726L45.008 190.948C45.8927 190.31 46.7587 189.635 47.6918 189.016C48.6245 188.399 49.5211 187.892 50.488 187.303C51.1233 187.967 50.6852 188.437 50.0683 188.847C47.9077 190.295 45.8012 191.776 43.6035 193.151C39.1769 195.95 34.6742 198.634 30.2808 201.461C27.4208 203.299 24.7031 205.309 21.888 207.201C19.1625 209.229 16.2801 211.064 13.2742 212.689L13.2012 212.726L13.9033 210.838C16.7568 209.54 19.4172 207.845 21.7697 205.827C25.4232 203.035 29.2866 200.489 33.319 198.217C35.0493 197.326 35.2319 196.073 35.5966 194.389C34.4055 195.025 33.2432 195.711 32.111 196.443C30.506 197.575 29.0367 198.865 27.4244 199.985C24.9213 201.732 22.3353 203.354 19.826 205.088C18.4711 206.029 17.1975 207.127 15.8805 208.142C14.9186 208.881 13.9441 209.597 12.9759 210.324C11.0186 211.775 9.10776 213.277 7.1051 214.675C6.00854 215.438 5.68273 215.269 5.34925 214.372C7.38088 211.923 9.35935 209.621 11.2095 207.25C13.4277 204.414 15.5961 201.481 17.7832 198.584C18.6915 197.599 19.2897 196.435 19.5017 195.242C19.5355 195.039 19.618 194.838 19.7409 194.653C19.8651 194.469 20.0279 194.304 20.2193 194.171C23.015 192.457 24.7694 189.935 26.6871 187.192C25.1904 187.429 24.9952 188.766 23.6731 189.126C29.5185 179.865 33.629 169.987 35.8166 159.949ZM47.7264 152.719C47.4801 152.846 47.0848 152.865 47.0146 153.085C46.2876 154.171 45.6342 155.287 45.0572 156.428C43.1633 160.205 40.8529 163.85 38.1666 167.301C37.5855 168.132 37.0901 169 36.6881 169.894C40.7889 165.403 44.3492 160.568 47.2952 155.489C46.7111 154.783 47.3767 154.181 47.8112 153.56L48.4323 154.767L49.8844 151.943C50.0498 151.544 50.2477 151.151 50.4749 150.769C53.5941 146.111 56.3445 141.413 59.1586 136.698C59.6637 135.858 59.7731 134.855 60.2095 133.99C60.6939 133.107 61.2326 132.244 61.8214 131.404C60.5039 132.449 59.433 133.721 58.6948 135.12C57.9446 136.532 57.0762 137.903 56.0977 139.22C55.2145 138.79 55.1571 138.178 55.5369 137.631C56.5755 136.287 57.2236 134.765 57.4103 133.233C57.457 133.055 57.5641 132.888 57.7163 132.755C58.5089 131.799 59.3989 130.905 60.3721 130.09C62.6451 128.432 63.8516 126.131 65.5501 124.142C67.2481 122.155 68.4408 119.968 70.5261 118.269C71.0168 117.863 71.1922 117.132 71.5078 116.603C72.4406 116.116 73.3237 115.544 74.1422 114.896C75.8395 113.228 77.4199 111.438 79.0176 109.684C79.1152 109.568 79.1856 109.436 79.2243 109.301C79.2625 109.165 79.267 109.027 79.239 108.899C78.8354 108.115 79.3548 107.588 80.0509 107.26C83.701 105.564 85.957 102.586 88.3062 99.7887C92.3074 95.0585 96.1137 90.1986 99.9804 85.3842C100.326 84.9835 100.639 84.5618 100.914 84.1247C103.72 79.7253 106.788 75.4387 110.104 71.2893C111.867 69.0147 113.272 66.5628 114.268 64.0165C113.311 64.7999 112.334 65.5471 111.403 66.3464C110.472 67.1466 109.988 67.7769 109.19 68.3707C106.285 70.6947 103.612 73.2477 101.213 75.9886C99.3273 78.2821 97.1832 80.4104 94.8226 82.3311C93.8858 83.1027 93.0517 83.9686 92.3407 84.9062C89.3244 88.336 86.3502 91.7759 83.3411 95.2173C79.8368 99.0344 76.5941 103.025 73.635 107.159C71.1004 110.845 68.6815 114.578 66.3102 118.333C65.6285 119.401 65.5917 120.794 64.7726 121.703C63.8271 122.576 62.9535 123.506 62.1579 124.485C60.3392 127.238 58.3402 129.93 56.7681 132.77C54.6464 136.579 52.19 140.347 51.4769 144.499C51.4628 144.737 51.3768 144.976 51.2269 145.193C49.3148 147.451 48.099 150.066 47.7264 152.719ZM53.083 72.0272C52.1507 75.7888 51.2596 79.5588 50.3543 83.3372C49.5045 87.5368 49.048 91.7394 48.9867 95.9011C48.9108 97.3591 48.6633 98.8452 48.5523 100.307C47.9711 104.863 47.0886 109.425 45.9107 113.968C45.1796 117.398 44.9786 120.832 45.3135 124.167C45.5162 126.168 46.1821 128.07 46.6132 130.015C47.2605 133.093 47.5186 136.277 47.3822 139.51C47.3245 142.149 47.076 144.811 46.8968 147.391C46.8823 147.72 46.9019 148.045 46.9184 148.754C47.2378 148.365 47.5346 147.963 47.8058 147.549C47.9975 147.206 48.0103 146.803 48.2469 146.513C50.5758 143.605 50.4446 140.421 51.0526 137.315C51.7606 133.653 52.5395 129.986 53.3174 126.319C53.8254 123.982 54.3737 121.654 55.0339 118.933C54.6339 119.269 54.2676 119.637 53.9427 120.03C53.4162 120.972 52.8181 121.887 52.1518 122.767C50.8559 124.366 50.1902 126.25 50.2812 128.066C50.0697 131.228 50.0334 134.299 49.9086 137.416C49.8964 137.605 49.6986 137.829 49.4493 138.309C49.2239 138.01 49.052 137.676 48.9396 137.319C48.8838 134.997 48.8583 132.66 48.8317 130.323C48.8161 129.293 48.7946 128.251 48.7386 127.211C48.5883 124.419 49.9762 121.614 50.1832 118.836C50.4352 116.538 50.8215 114.235 51.3396 111.937C51.3757 111.531 51.3769 111.127 51.3423 110.729C51.3519 110.389 51.2031 109.992 51.3813 109.733C52.5506 108.001 52.3201 106.197 52.3817 104.532C52.4946 102.535 52.7129 100.531 52.8258 98.5342C52.881 97.4978 52.7865 96.4934 52.7734 95.4319C54.0655 95.1183 54.2539 95.1277 54.2314 96.2995C54.2126 98.1556 53.9802 100.061 53.8262 101.942L53.6589 105.904C54.1456 105.634 54.598 105.31 55.0008 104.939C56.3276 103.58 57.1022 101.895 57.1701 100.22C57.094 97.3591 56.9897 94.5125 56.6657 91.7033C56.4561 89.9036 55.8709 88.1593 55.5851 86.3528C55.3715 85.0622 55.265 83.745 55.2658 82.4115C55.26 80.7205 55.3655 79.0326 55.4526 77.3091C55.4187 76.6692 55.3339 76.0402 55.2002 75.4241C54.9869 74.1292 54.7643 72.8402 54.5325 71.5549C54.4379 71.206 54.3125 70.8667 54.1579 70.5425L53.8256 70.5765C53.5375 71.0459 53.2887 71.5318 53.083 72.0272ZM113.184 95.4529C112.776 95.5555 112.363 95.5389 112.212 95.7089C111.246 96.6935 110.331 97.6997 109.401 98.6821C109.013 99.1416 108.226 99.684 109.008 100.167C109.79 100.649 110.299 100.066 110.7 99.5246C111.625 98.2847 113.011 97.1897 113.184 95.4529ZM75.6592 165.14C76.7204 162.291 78.0961 159.506 79.7664 156.828C80.5541 155.645 81.3986 154.462 82.0892 153.267C83.9124 150.053 85.998 146.938 88.3275 143.95C92.0361 138.878 96.4229 134.182 101.369 129.985C101.929 129.515 102.573 129.137 103.262 128.874C103.813 128.751 104.369 128.718 104.903 128.776C104.827 129.273 104.925 129.819 104.665 130.242C102.932 133.165 101.253 136.12 99.2818 138.936C98.2676 140.294 97.4284 141.736 96.7837 143.228C95.8241 145.829 94.1295 148.182 93.7003 150.921C93.6761 151.087 93.5232 151.257 93.4426 151.421C92.2149 153.716 90.9051 155.993 89.8077 158.329C88.324 161.52 87.0337 164.763 85.5882 167.995C84.9165 169.547 84.2704 171.116 83.4621 172.616C82.3189 174.546 81.4033 176.553 80.7314 178.6C80.2876 180.069 79.7473 181.525 79.1126 182.96C78.1095 185.368 77.0505 187.776 75.9755 190.191C75.3434 191.684 74.629 193.158 73.8345 194.606C72.4829 196.981 71.0079 199.297 69.6084 201.651C69.6084 201.651 69.7016 201.832 69.8073 202.037C70.1527 201.842 70.4824 201.621 70.7916 201.377C73.7551 198.737 76.7055 196.074 79.5896 193.46C83.1869 190.376 85.8414 186.535 87.2202 182.418C88.1308 179.614 89.3141 176.838 90.2404 173.995C91.1678 171.152 91.7491 168.029 92.7465 165.073C93.7448 162.117 95.1582 158.825 96.4051 155.711C97.0219 154.157 97.7708 152.611 98.2688 151.042C99.4558 147.332 100.988 143.674 102.846 140.107C103.45 139.039 104.149 138.005 104.934 137.018C105.853 135.766 106.922 134.59 107.855 133.332C110.238 130.136 112.593 126.924 114.934 123.719C115.623 122.769 116.257 121.787 116.999 120.87C118.75 118.733 120.547 116.616 122.331 114.508C124.114 112.399 125.823 110.359 127.623 108.319C128.253 107.612 128.939 106.801 130.064 106.878C130.99 108.249 131.011 108.253 130.268 109.598C129.843 110.381 129.33 111.134 128.868 111.845C127.687 113.979 126.432 116.044 125.301 118.168C124.334 119.893 123.492 121.658 122.779 123.451C121.295 127.465 120.07 131.515 118.601 135.522C116.869 140.23 114.997 144.918 113.161 149.603C112.279 151.857 111.42 154.116 110.358 156.342C108.704 159.819 106.957 163.262 105.12 166.67C103.726 169.25 102.206 171.727 100.617 174.285C99.9052 175.475 99.117 176.66 98.3638 177.841L98.6849 178.072C99.39 177.511 100.061 176.921 100.798 176.389C105.21 173.202 109.167 169.514 112.543 165.444C113.058 164.84 113.606 164.258 114.183 163.699C116.922 160.946 119.686 158.24 122.404 155.482C124.921 152.905 127.384 150.293 129.84 147.67C130.717 146.73 131.922 145.927 131.909 144.545C131.918 144.311 132.267 144.024 132.467 143.769C133.562 142.611 134.578 141.369 135.573 140.049C136.383 139.085 137.089 138.062 137.679 136.996C139.716 132.91 140.76 128.601 140.733 124.388C140.76 122.298 141.058 120.16 141.156 118.065C141.36 116.941 141.317 115.828 141.032 114.785C140.404 113.033 139.959 111.202 139.513 109.371C139.214 107.14 138.472 105.033 137.318 103.143C137.166 102.975 137.063 102.774 137.014 102.553C136.596 99.8833 136.107 97.219 135.831 94.5378C135.484 90.5799 135.297 86.571 135.08 82.5771C134.914 79.3961 134.827 76.1901 134.695 73.0066C134.661 72.368 134.577 71.7398 134.591 71.0912C134.633 68.2761 134.85 65.4481 134.692 62.675C134.6 61.104 135.043 59.3201 133.765 58.0539C133.66 57.8494 133.676 57.4892 133.675 57.1995C133.681 55.7468 133.681 54.282 133.751 52.8105C133.699 52.3047 133.807 51.7736 134.065 51.276C134.511 50.6395 134.711 49.9138 134.63 49.2297C134.649 48.8377 135.001 48.4133 135.189 47.9951C135.659 48.0853 136.103 48.237 136.507 48.4464C136.726 48.7068 136.882 49.0098 136.967 49.3394C138.004 51.354 139.035 53.3565 140.072 55.372C140.804 56.3091 141.469 57.2918 142.065 58.3146C142.921 60.4023 143.447 62.6257 143.63 64.9267C144.085 69.9995 145.358 74.879 147.412 79.4174C147.543 79.6711 147.673 79.9241 147.891 80.1327C149.123 82.2762 150.542 84.3537 151.571 86.6028C153.984 92.2869 155.097 98.497 154.853 104.908L154.867 105.435C154.915 109.35 154.494 113.322 153.611 117.284C153.536 117.675 153.49 118.049 153.395 118.724C153.746 118.474 154.081 118.205 154.397 117.918C156.447 115.58 158.52 113.246 160.524 110.886C162.528 108.526 164.617 105.726 166.933 103.329C169.708 100.55 172.898 98.1239 176.383 96.1427C177.095 95.7468 177.762 95.2803 178.371 94.7535C180.965 92.3958 183.584 90.0544 186.058 87.6064C188.843 84.9128 192.008 82.5574 195.446 80.6209C196.176 80.2504 196.872 79.8204 197.525 79.337C201.091 76.4432 204.396 73.2949 207.397 69.9341C209.371 67.7281 211.66 65.7101 213.817 63.5761C213.948 63.4352 214.106 63.3161 214.281 63.2259C214.456 63.1362 214.645 63.0755 214.836 63.051C215.026 63.0256 215.215 63.0358 215.389 63.08C215.563 63.1242 215.72 63.2018 215.849 63.3091C216.453 63.7303 216.019 64.3514 215.729 64.8971C215.155 66.0323 214.575 67.1549 214.098 68.301C212.954 71.0111 212.067 73.7885 210.719 76.4206C209.13 79.5128 207.168 82.4915 205.324 85.5174C203.832 88.1264 202.109 90.6483 200.173 93.053C198.122 95.3917 195.832 97.5635 193.338 99.533C188.434 103.584 183.637 107.732 178.833 111.87C177.188 113.282 175.669 114.797 173.97 116.357C175.024 116.044 175.977 115.752 176.915 115.468C180.577 114.563 184.161 113.231 187.568 111.51C189.323 110.583 191.148 109.797 193.017 109.162C193.321 109.061 193.636 109.018 193.94 109.035C194.244 109.053 194.53 109.131 194.779 109.262C195.32 109.67 194.84 110.345 194.405 110.858C194.077 111.276 193.706 111.667 193.295 112.025C190.24 114.376 187.223 116.769 184.044 119.062C182.289 120.332 180.287 121.302 178.465 122.515C175.725 124.338 173.128 126.223 170.494 128.145C170.276 128.257 170.116 128.446 169.671 128.797L170.849 128.832C173.081 128.676 175.292 128.729 177.442 128.993C177.944 129.05 178.47 129.013 178.986 128.885C179.902 128.735 180.828 128.426 181.724 128.346C185.29 127.886 188.85 127.102 192.346 126.007C194.925 125.3 197.519 124.635 200.13 124.014C204.842 122.823 209.439 121.038 213.771 118.716C215.225 117.967 216.884 117.296 217.597 115.753C219.337 115.773 219.784 116.032 219.286 116.853C218.009 119.082 216.31 121.137 214.276 122.912C211.561 125.046 208.527 126.799 205.303 128.097C203.301 128.979 201.472 130.217 199.944 131.726C197.547 134.159 194.544 136.049 191.261 137.188C187.461 138.382 183.662 139.574 179.801 140.508C176.652 141.321 173.466 141.847 170.098 142.559C172.619 143.596 174.825 144.597 177.124 145.489C181.593 147.202 184.508 150.434 187.356 153.714C189.559 156.545 192.118 159.12 194.99 161.399C196.916 162.819 198.677 164.416 200.453 165.974C200.812 166.278 201.22 166.998 201.075 167.18C200.595 167.675 199.987 168.057 199.324 168.28C198.804 168.433 198.271 168.484 197.762 168.428C196.274 168.351 194.886 167.946 193.714 167.245C191.403 166.008 189.077 164.702 186.648 163.557C182.37 161.613 178.397 159.246 174.788 156.491C171.473 153.892 167.574 151.92 163.274 150.666C159.132 149.569 154.799 148.904 150.351 148.68C148.21 148.383 145.985 148.367 143.743 148.633C142.769 148.813 141.786 148.724 140.796 148.837C140.216 148.895 139.638 149.062 139.099 149.33C133.536 152.346 129.456 156.782 124.952 161.466C125.871 161.252 126.37 161.149 126.849 161.008C129.756 160.153 132.665 159.266 135.585 158.434C138.791 157.517 142.021 156.647 145.131 155.794C145.854 155.59 146.554 155.306 147.272 155.165C148.603 154.892 148.968 155.314 148.485 156.448C148.326 156.82 148.307 157.211 148.134 157.591C147.962 157.969 147.768 158.557 147.4 158.808C146.046 159.75 144.555 160.639 143.086 161.502C141.617 162.365 140.44 162.865 139.212 163.695C133.88 167.234 128.601 170.806 123.302 174.373C122.793 174.636 122.431 175.112 121.645 175.762L122.817 175.539C126.994 174.686 130.876 172.795 134.929 171.486C137.556 170.544 140.225 169.761 142.919 169.143C145.148 168.724 147.363 168.155 149.546 167.441C151.78 166.596 154.112 166.137 156.409 166.09C158.545 166.166 160.682 166.21 162.796 166.313C166.295 166.465 169.78 166.624 173.254 166.835C176.441 166.941 179.401 167.838 181.818 169.432C182.275 169.785 182.836 170.019 183.458 170.114C184.154 170.213 184.781 170.481 185.274 170.893C185.766 171.304 186.108 171.843 186.262 172.456C186.79 173.481 185.916 174.496 184.533 174.49C183.504 174.46 182.498 174.328 181.535 174.096C180.009 173.622 178.347 173.44 176.643 173.561C175.192 173.744 173.741 173.926 172.315 174.264C170.849 174.513 169.389 174.852 167.945 175.277C164.076 176.551 160.249 177.942 156.389 179.196C152.528 180.451 149.037 181.455 145.299 182.662C139.428 184.6 133.378 185.648 127.418 185.762C125.386 185.817 123.348 185.966 121.324 186C120.157 186.021 119.018 185.844 117.871 185.794C115.657 185.516 113.332 185.673 111.045 186.255C109.563 186.753 108.052 187.132 106.534 187.387C104.622 187.633 102.72 188.148 100.901 188.913C99.191 189.509 97.5235 190.24 95.9186 191.097C92.6663 193.092 89.3116 194.927 85.8724 196.59C84.9513 197.141 84.087 197.776 83.2967 198.48C82.7715 198.889 82.3424 199.414 81.8355 199.858C79.2944 202.067 76.7408 204.252 74.1935 206.449C74.0286 206.636 73.8778 206.831 73.7407 207.033C74.2173 207.04 74.7012 207.011 75.185 206.946C77.9933 206.4 80.828 205.903 83.6306 205.238C88.352 204.12 93.0459 202.879 97.7423 201.712C98.722 201.466 99.7104 201.295 100.697 201.199C104.647 200.798 108.589 200.631 112.533 200.004C115.314 199.48 118.104 199.325 120.811 199.543C126.196 200.143 131.527 200.925 136.877 201.635C137.942 201.774 139.062 201.807 140.086 202.044C143.057 202.743 146.034 203.561 148.942 204.277C150.749 204.75 152.525 205.271 154.286 205.799C155.092 206.041 155.323 206.67 154.718 207.103C153.258 208.16 152.179 209.707 150.208 210.096C149.303 210.375 148.409 210.702 147.532 211.078C144.689 212.113 141.802 212.983 138.886 213.682C135.541 214.205 132.195 214.532 128.868 214.658C125.788 214.854 122.756 214.752 119.652 214.976C114.384 215.459 109.159 216.028 103.852 216.76C100.48 217.363 97.0995 217.799 93.7283 218.065C91.5057 218.141 89.2512 218.478 87.0406 218.577C84.6698 218.811 82.3156 218.815 80.0215 218.59C75.8618 218.009 71.5886 217.796 67.2615 217.955C62.3249 217.989 57.2976 219.64 53.1024 222.604C52.4394 223.077 51.7512 223.518 51.0415 223.924C46.3871 226.457 41.6999 228.963 37.0508 231.508C33.8758 233.235 30.7577 235.039 27.5938 236.789C26.8444 237.197 25.9963 237.373 25.2001 237.286C24.4045 237.198 23.7117 236.853 23.2464 236.31C21.8925 233.681 22.8479 229.892 26.432 228.565C27.979 227.997 29.5964 227.318 31.1645 226.648C32.6935 226.067 34.1835 225.377 35.6191 224.583C38.1716 223.04 40.6048 221.299 43.0932 219.667C44.1803 218.955 45.27 218.287 46.3633 217.587C50.1189 215.165 54.1746 213.077 56.6348 209.246C58.0999 207.479 59.4011 205.618 60.5236 203.687C62.2255 199.793 63.6623 195.842 64.8239 191.858C66.0492 187.808 67.4373 183.776 68.9888 179.762C70.2596 175.959 71.8815 172.214 73.8358 168.566C74.536 167.452 75.1428 166.302 75.6529 165.128L75.6592 165.14ZM82.9182 170.774L83.0989 170.589C84.1086 168.299 85.0616 166.008 86.1255 163.751C88.1752 159.444 89.7414 155.02 92.0882 150.79C93.4047 148.418 94.24 145.897 95.3016 143.458L94.8354 143.301C93.633 145.218 92.4044 147.117 91.2166 149.026C90.0288 150.934 88.954 152.419 87.997 154.132C86.8731 156.237 85.8516 158.29 84.7579 160.379C83.6633 162.469 82.6169 164.26 81.56 166.208C81.1049 167.037 80.5971 167.91 81.8684 168.414C81.0644 169.21 81.1164 170.526 79.6642 170.527C79.3437 171.333 78.5117 172.112 79.0522 173.161C79.6473 172.458 80.2201 171.858 80.6535 171.269C80.7735 171.09 80.929 170.93 81.1127 170.799C81.2958 170.669 81.5023 170.57 81.7184 170.509C81.9335 170.448 82.155 170.426 82.3671 170.446C82.5788 170.464 82.7774 170.525 82.9501 170.621L82.8681 170.785C81.7754 171.912 80.6968 173.032 79.6239 174.164C79.5226 174.216 79.6533 174.47 79.6631 174.633L79.5492 174.768C78.9255 175.272 78.2443 175.806 77.6582 176.275L78.0189 176.548C78.5222 175.953 79.0459 175.362 79.5492 174.768C79.5492 174.768 79.6943 174.693 79.7527 174.663C81.736 173.871 82.2153 172.266 82.912 170.762L82.9182 170.774ZM79.4635 177.925C79.888 177.462 79.9903 176.769 80.2256 176.189L79.8022 176.011L75.8491 180.55L76.2593 180.918C77.3587 179.909 78.4892 178.961 79.4573 177.913L79.4635 177.925ZM78.8796 180.363C76.8376 181.668 75.1475 183.398 73.989 185.369C74.4759 184.919 74.9828 184.476 75.4563 184.003C75.9299 183.53 76.4891 182.936 77.4182 183.313L78.8796 180.363ZM114.408 142.702C115.997 137.428 118.205 132.215 119.862 126.966C120.889 123.814 122.177 120.702 123.714 117.658C124.321 116.444 125.095 115.268 125.648 114.021C123.805 115.639 122.374 117.588 121.486 119.69C120.653 121.645 119.888 123.732 119.081 125.736C118.61 126.894 118.114 128.035 117.595 129.172C115.377 134.008 113.123 138.847 110.898 143.67C110.796 143.968 110.717 144.269 110.662 144.571C111.345 144.219 111.782 143.994 112.552 143.598C111.774 146.195 108.969 147.639 108.133 150.375C110.99 147.957 113.441 145.933 114.408 142.702ZM109.251 155.797C109.536 155.049 109.761 154.29 109.922 153.529C109.922 153.529 110.024 153.476 110.082 153.446C110.933 152.078 111.503 150.613 111.76 149.133C108.95 151.036 106.801 153.648 105.664 156.545C106.65 155.641 107.542 154.8 108.454 153.964C108.947 153.528 109.437 153.016 110.038 153.469L110.003 153.579C108.043 155.595 106.092 157.592 104.15 159.645C103.434 160.359 102.959 161.229 102.798 162.127C103.815 161.587 104.697 160.839 105.358 159.955C105.784 159.46 106.221 158.7 106.734 158.589C108.411 158.061 108.756 156.908 109.251 155.797ZM100.858 161.644C102.011 158.991 103.466 156.456 104.804 153.875C105.434 152.634 106.67 151.463 105.703 150.084C105.61 149.903 105.973 149.289 106.288 149.005C107.244 148.14 107.975 147.102 108.413 145.987C109.874 142.717 111.335 139.446 112.885 136.207C114.435 132.966 116.16 129.743 117.663 126.374C118.424 124.746 118.91 123.046 119.628 121.119C119.201 121.43 118.946 121.471 118.912 121.656C116.787 125.71 113.441 129.143 110.68 132.854C107.679 136.6 105.147 140.594 103.139 144.749C102.423 146.43 101.94 148.205 101.288 149.869C99.7032 153.936 98.094 157.955 96.5281 162.058C95.6674 164.531 94.9801 167.053 94.1276 169.613C93.0674 172.875 91.965 176.129 91.0893 179.465C92.7922 176.772 94.3464 174.002 96.1471 171.427C98.4757 168.306 99.4661 164.941 100.883 161.693L100.858 161.644ZM92.564 183.758C94.0769 181.803 95.2853 179.686 96.637 177.631C99.0728 174.045 101.315 170.374 103.353 166.634C104.433 164.552 105.484 162.484 106.549 160.409L106.288 160.33C104.673 161.909 103.071 163.513 101.386 165.097C101.173 165.343 101.02 165.62 100.938 165.908C100.14 168.822 98.121 171.297 96.4724 173.916C94.2377 176.955 92.2102 180.094 90.4035 183.313C89.4839 185.099 88.4836 186.729 87.4065 188.458C85.8801 191.008 83.6059 193.204 80.871 194.769C80.4042 195.078 79.9661 195.421 79.5599 195.795C76.1002 198.614 72.6473 201.445 69.1716 204.195C66.9658 205.945 64.9881 207.918 63.2896 210.063C63.6639 209.976 64.0328 209.853 64.3889 209.695C67.0202 208.02 69.6521 206.344 72.2595 204.621C73.2213 203.988 74.0728 203.214 74.9972 202.509C77.1502 200.867 79.3205 199.261 81.4855 197.642C82.4036 196.925 83.6058 196.367 83.6123 195.021C83.6063 194.689 84.0495 194.262 84.3465 193.911C87.1073 190.521 89.9457 187.212 92.5886 183.806L92.564 183.758ZM149.191 105.091C150.309 103.69 151.409 102.254 152.515 100.83C153.128 100.056 152.869 99.4119 152.55 98.6139C150.903 100.988 149.431 103.272 147.872 105.601L148.208 105.825C148.563 105.615 148.892 105.367 149.191 105.091ZM150.897 117.765C151.289 116.312 151.422 114.856 151.656 113.452L152.055 112.834L152.138 109.816L152.231 109.676L152.194 109.604C152.818 107 153.009 104.385 152.763 101.848C152.18 102.575 151.765 103.018 151.444 103.503C150.387 105.531 149.139 107.496 147.718 109.374C147.559 109.533 147.69 109.893 147.688 110.352C149.582 109.102 149.815 106.982 151.707 105.978C150.948 108.719 148.756 110.962 147.49 113.506L147.835 113.71C148.423 112.995 148.966 112.334 149.612 111.59C150.259 110.845 150.634 110.254 151.204 109.61C151.773 108.966 151.947 109.304 152.276 109.547L152.325 109.643C151.529 110.74 150.739 111.849 149.963 112.951C149.187 114.051 148.327 115.166 147.586 116.265C147.431 116.497 147.432 116.787 147.679 117.195C148.462 116.18 149.286 115.207 150.007 114.179C150.191 113.814 150.483 113.489 150.847 113.245C151.212 113 151.633 112.847 152.057 112.803C151.897 112.885 151.723 113.082 151.7 113.216L151.656 113.452C150.855 114.72 150.069 115.98 149.227 117.237C148.703 118.04 148.063 118.797 147.551 119.626C147.427 119.968 147.359 120.317 147.349 120.662L147.722 120.743C148.291 120.1 148.884 119.428 149.41 118.806C149.524 118.821 149.635 118.846 149.741 118.88C149.733 119.232 149.668 119.588 149.551 119.939C149.086 120.82 148.594 121.653 147.999 122.569C147.692 123.152 147.519 123.769 147.493 124.377C147.466 124.986 147.588 125.572 147.848 126.097C148.158 125.77 148.428 125.615 148.476 125.423C149.324 122.926 150.157 120.329 150.868 117.78L150.897 117.765ZM196.843 94.767C200.432 90.8525 203.41 86.5561 205.677 82.0233C206.887 79.8738 208.214 77.6646 209.352 75.5522C210.649 72.9618 211.702 70.3278 212.843 67.65L212.395 67.4223C211.254 68.3809 210.173 69.3957 209.16 70.4621C204.954 75.3178 200.212 79.807 195.027 83.8433C194.175 84.5111 193.159 85.0032 192.312 85.7144C190.362 87.3591 188.485 88.9975 186.616 90.7989C183.395 93.9264 179.878 96.801 176.117 99.3782C174.507 100.598 172.972 101.898 171.519 103.272C171.119 103.629 170.742 104.007 170.391 104.402C168.797 106.093 167.242 107.824 165.645 109.472C164.046 111.119 162.404 112.895 160.656 114.467C158.478 116.385 156.582 118.543 155.034 120.871C154.063 122.379 152.84 123.755 151.753 125.216C151.488 125.613 151.257 126.022 151.06 126.443C151.551 126.365 152.033 126.198 152.477 125.952C152.92 125.705 153.314 125.384 153.634 125.011C157.669 121.56 161.613 118.003 165.754 114.651C168.743 112.241 172.061 110.182 175.11 107.819C176.858 106.461 178.356 104.835 179.979 103.343C181.259 102.087 182.605 100.884 184.011 99.741C187.431 97.058 190.572 94.0904 193.376 90.8895C194.949 89.0879 196.515 87.3046 197.949 85.4825C199.384 83.6603 200.564 82.1674 201.893 80.5683C202.429 79.8945 203.042 79.2283 203.562 78.5946C204.699 77.2303 205.964 75.8315 207.162 74.4054C207.555 74.0036 207.972 73.6201 208.411 73.2593C208.571 73.6314 208.599 74.055 208.49 74.4772C208.38 74.8993 208.139 75.3029 207.795 75.6361C205.509 78.3396 203.222 81.0431 200.936 83.7466C198.238 86.8305 195.385 89.8258 192.693 92.9211C188.004 98.3877 182.184 102.91 176.999 107.915C175.366 109.32 173.618 110.613 171.779 111.778C169.601 113.371 167.385 114.925 165.239 116.579C162.722 118.516 160.278 120.553 157.813 122.554C157.587 122.763 157.374 122.984 157.18 123.216L157.413 123.385C158.697 122.529 160.033 121.745 161.41 121.039C162.957 120.344 164.547 119.765 166.165 119.307C167.782 118.811 169.314 118.022 170.657 116.994C177.742 111.532 184.564 105.79 191.096 99.7867C193.059 98.2415 195.104 96.64 196.843 94.767ZM147.338 134.358C147.861 134.089 148.026 132.874 148.241 132.076C148.474 131.143 148.65 130.207 148.765 129.273C148.835 128.547 148.863 127.825 148.847 127.109C147.992 127.756 147.272 128.538 146.733 129.405C146.194 130.271 145.847 131.203 145.718 132.139L146.659 132.54C146.762 133.632 145.869 134.366 145.315 135.216C144.76 136.067 143.872 136.631 144.162 137.87C144.554 137.455 144.748 137.187 145.001 136.964C145.847 136.178 146.05 135.036 147.34 134.434L147.338 134.358ZM177.435 121.763C180.253 119.915 183.182 118.208 186.059 116.438C188.547 115.031 190.74 113.194 192.484 111.054C192.115 111.114 191.749 111.205 191.391 111.326C189.09 112.358 186.823 113.419 184.522 114.451C183.608 114.897 182.667 115.28 181.707 115.595C176.027 117.339 170.467 119.557 165.108 122.218C164.882 122.373 164.637 122.499 164.38 122.593C160.646 123.34 157.583 125.466 154.374 127.377C153.257 127.958 152.247 128.717 151.403 129.609C151.096 130.073 150.854 130.562 150.681 131.064L151.009 131.201C151.605 130.894 152.149 130.522 152.693 130.15C155.375 128.542 158.283 127.334 161.285 126.582C162.869 126.087 164.381 125.202 165.972 124.612C169.328 123.328 172.615 121.845 175.807 120.174C175.909 120.122 176.046 120.173 176.388 120.195C176.144 120.464 175.883 120.721 175.607 120.964C172.387 123.568 168.338 124.707 164.776 126.541C162.63 127.56 160.408 128.402 158.143 129.055C156.773 129.372 155.477 130.039 154.421 130.971C156.166 130.5 157.899 129.974 159.658 129.603C161.014 129.288 162.382 129.095 163.739 129.028C165.71 129.03 167.724 128.403 169.43 127.257C172.116 125.509 174.712 123.547 177.435 121.763ZM175.225 130.975C170.92 131.223 166.598 131.508 162.275 131.72C158.248 131.704 154.124 132.853 150.502 135.003L149.523 137.675C151.366 137.093 153.226 136.593 155.098 136.178C157.45 135.746 159.823 135.531 162.193 135.242C164.875 134.879 167.566 134.556 170.267 134.275C170.857 134.218 171.445 134.052 171.996 133.79C172.547 133.526 173.049 133.172 173.471 132.748C174.118 132.201 174.804 131.695 175.524 131.233C175.449 131.089 175.375 130.943 175.225 130.975ZM179.481 130.31C178.688 130.413 178.1 130.487 177.865 130.531L174.125 133.983C175.822 134.208 176.304 132.999 177.135 132.433C178.122 131.927 178.939 131.157 179.45 130.25L179.481 130.31ZM183.874 129.59C182.955 129.665 182.091 129.699 181.101 129.812C181.073 131.902 178.418 132.246 177.764 134.048C179.928 132.876 181.989 131.534 183.92 130.039L183.874 129.59ZM176.588 138.408C179.748 137.911 182.878 136.994 185.873 135.689C187.465 134.96 189.193 134.528 190.842 133.908C192.445 133.358 194.024 132.728 195.573 132.023C196.728 131.472 197.809 130.777 198.778 129.961C202.334 127.053 206.349 124.666 210.634 122.91C212.065 122.345 213.343 121.438 214.311 120.3L214.083 120.036C213.452 120.264 212.839 120.544 212.252 120.872C208.718 123.118 204.709 124.084 200.858 125.212C197.005 126.34 192.811 127.446 188.788 128.525C187.673 128.824 186.558 129.017 185.482 129.25C184.65 131.205 182.66 131.985 181.183 133.509C181.894 133.677 182.361 133.727 183.008 133.195C184.294 132.121 185.642 131.167 186.965 130.166C187.268 129.993 187.579 129.833 187.896 129.687C188.02 129.928 188.132 130.145 187.99 130.264C186.022 132.513 184.058 134.7 180.652 135.049C178.285 135.331 175.928 135.426 173.607 135.333C171.551 135.3 169.467 135.437 167.381 135.745C163.431 136.253 159.466 136.768 155.541 137.43C154.245 137.679 152.954 137.987 151.674 138.352L151.551 138.721C151.848 138.904 152.119 139.253 152.45 139.25C153.758 139.237 155.075 139.16 156.396 139.02C158.949 138.851 161.47 138.951 163.907 139.32C165.636 139.462 167.402 139.448 169.18 139.276C171.625 139.128 174.079 138.849 176.529 138.438L176.588 138.408ZM177.065 150.053C178.287 150.569 179.189 149.57 180.557 149.262C179.229 148.435 178.914 148.536 177.036 150.068L177.065 150.053ZM142.846 145.996C144.4 145.605 145.942 145.142 147.466 144.61C147.447 144.787 147.451 145.151 147.439 145.737C149.434 146.038 151.619 146.318 153.765 146.557C156.232 146.813 158.758 146.931 161.211 147.302C164.556 147.95 167.64 149.178 170.304 150.924C174.949 153.554 179.496 156.31 184.09 159.089C184.86 159.548 185.493 160.137 186.203 160.657C189.688 163.04 193.541 164.996 197.681 166.485C197.859 166.556 198.06 166.587 198.269 166.575C198.476 166.564 198.684 166.51 198.879 166.417C197.836 165.642 196.824 164.82 195.811 164.029C191.909 161.051 188.44 157.653 185.462 153.895L184.799 153.108C183.59 151.761 183.607 151.828 181.642 152.657C180.826 153 179.82 153.762 178.745 152.745C179.967 152.116 181.042 151.562 182.074 151.031C182.104 150.267 181.663 149.945 181.116 150.348C178.895 151.965 177.136 151.191 175.352 150.263C172.533 148.837 169.527 147.675 166.376 146.795C166.156 146.695 165.927 146.61 165.691 146.537C160.169 145.564 154.812 144.124 149.019 143.948C147.972 143.924 146.915 143.958 145.853 144.051C145.162 144.101 144.881 143.911 145.205 143.149C149.049 142.508 152.875 142.623 156.413 143.484C158.807 143.991 161.238 144.388 163.576 145.001C166.25 145.73 168.856 146.648 171.481 147.494C172.246 147.738 172.98 148.039 173.673 148.395C174.256 148.754 174.997 148.891 175.761 148.778C176.524 148.666 177.258 148.312 177.827 147.783C176.581 147.001 175.28 146.286 173.928 145.638C171.92 144.811 169.818 144.122 167.708 143.453C166.895 143.195 166.033 143.033 165.143 142.972C164.125 142.886 163.563 142.259 162.764 141.923C161.343 141.381 159.811 141.039 158.213 140.908C155.354 140.64 152.485 140.5 149.542 140.427C148.821 140.5 148.099 140.661 147.397 140.906C147.029 141.69 146.779 142.597 145.52 142.544C144.259 142.491 144.167 142.096 144.46 141.166C144.661 140.711 144.907 140.267 145.195 139.842C145.86 138.757 146.369 137.617 146.706 136.454C146.268 137.192 145.697 137.873 145.02 138.466C143.586 139.425 142.485 140.745 141.892 142.214C141.584 142.831 141.137 143.319 140.314 142.721C140.936 141.286 141.602 139.829 142.185 138.354C142.878 136.706 143.481 135.04 143.993 133.363C144.753 130.846 145.366 128.314 145.827 125.779C146.119 123.661 146.26 121.549 146.25 119.456C146.294 115.969 146.319 112.446 146.441 108.933C146.537 106.548 146.861 104.138 147.029 101.716C147.112 100.59 147.06 99.487 147.148 98.3733C147.357 95.6711 145.569 93.9507 144.152 92.0549C143.548 91.2367 142.702 90.5578 143.378 89.2639L141.448 88.7311C141.49 88.4194 141.445 88.1523 141.569 87.9664C141.929 87.5287 142.144 87.0203 142.186 86.5131C142.228 86.0051 142.093 85.5226 141.802 85.1296C141.73 85.0458 141.679 84.9472 141.653 84.8403C141.243 80.4723 139.77 76.3615 139.861 71.8584C139.911 69.5272 139.694 67.2122 139.66 64.8947C139.692 64.1133 139.784 63.3257 139.936 62.5391C140.053 62.4789 140.183 62.4117 140.365 62.441C140.495 62.6939 140.897 62.8685 140.922 63.1305C141.156 66.765 141.861 70.2786 141.439 74.0677C141.409 74.95 141.519 75.8137 141.766 76.631C142.261 78.8082 142.765 80.9759 143.275 83.1349C143.345 83.4497 143.567 83.7022 143.694 84.2322L145.652 81.4993C145.797 81.5312 145.951 81.5438 146.11 81.569C146.162 81.9063 146.151 82.2576 146.076 82.6092C145.655 83.6496 145.083 84.6464 144.669 85.6989C144.48 86.3146 144.345 86.936 144.264 87.5555C145.95 86.6872 145.475 84.8719 147.305 84.2808C147.386 84.6312 147.39 85.0024 147.316 85.3741C146.839 86.5202 146.265 87.6549 145.753 88.8039C145.391 89.6007 144.956 90.4359 146.12 91.0881L147.744 88.3136C148.611 88.4621 148.509 88.9418 148.315 89.4232C147.995 90.2923 147.591 91.1435 147.107 91.9693C146.73 92.5601 146.595 93.0109 147.023 93.4157C148.754 95.0283 148.567 97.2002 148.29 99.4485C148.195 100.444 148.06 101.43 147.973 102.406L148.384 102.454L152.727 96.921C152.581 95.4706 152.332 94.0439 151.981 92.6492C151.039 89.1063 149.523 85.7774 147.476 82.7579C146.133 80.8662 145.005 78.8423 144.105 76.7098C144.042 76.6206 143.992 76.5228 143.956 76.4196C143.297 72.7451 142.529 69.1109 141.981 65.4394C141.582 62.5923 141.372 59.8613 139.563 57.5265C138.489 56.1564 137.688 54.6 136.428 53.1879C136.354 53.6673 136.329 54.1453 136.354 54.615C136.702 58.0009 136.776 61.4404 136.577 64.9091C136.54 67.9809 136.74 71.0842 136.856 74.1677C136.854 74.5204 136.937 74.8594 136.899 75.2142C136.594 78.2512 136.822 81.2391 137.577 84.0689C137.796 86.1908 137.877 88.3403 137.82 90.5073C138.17 94.2956 138.526 98.0961 139.184 101.802C139.69 103.427 140.329 105 141.094 106.512C141.555 107.8 141.798 109.202 142.1 110.466L143.212 114.915C144.008 118.728 144.151 122.712 143.636 126.739C143.379 129.449 142.768 132.172 141.816 134.85C141.355 136.421 140.596 137.948 139.577 139.361C139.088 140.031 138.43 140.601 137.67 141.014C136.998 141.325 136.415 141.796 135.993 142.366C132.87 146.646 129.316 150.695 125.387 154.451C123.735 156.171 122.206 157.979 120.814 159.858C120.207 160.556 119.555 161.223 118.862 161.855C116.087 164.315 113.571 166.996 111.357 169.855C113.893 169.066 116.165 167.517 117.755 165.492C118.053 164.957 118.402 164.439 118.799 163.948C119.267 163.463 119.832 163.095 119.471 162.395C119.211 161.889 119.514 161.442 120.172 161.043C121.02 160.485 121.822 159.867 122.57 159.197C124.754 157.402 126.931 155.594 129.121 153.81C129.456 153.638 129.885 153.508 130.197 153.257C131.242 152.755 132.136 151.996 132.757 151.084C133.196 150.521 133.787 150.058 134.46 149.749C135.361 149.345 136.243 148.9 137.104 148.419C138.821 147.22 140.787 146.392 142.817 146.011L142.846 145.996ZM140.94 171.231C136.817 172.545 132.715 173.939 128.622 175.313C128.259 175.5 127.896 175.687 127.484 175.746L115.475 179.319C115.282 179.367 115.096 179.454 114.934 179.571C114.771 179.69 114.635 179.836 114.538 180C117.187 179.537 119.839 179.042 122.508 178.583C123.949 178.345 125.388 178.138 126.83 177.976C128.867 177.752 130.907 177.571 132.942 177.379C133.333 177.346 133.725 177.233 134.086 177.047C134.447 176.861 134.766 176.608 135.021 176.308C135.795 175.527 136.671 174.833 137.64 173.967C138.261 175.173 136.526 175.838 136.749 177.021C137.434 176.852 138.26 176.884 138.733 176.518C141.156 174.615 143.479 172.626 146.147 170.412C144.421 170.369 142.649 170.647 140.94 171.231ZM151.341 168.928L151.043 168.562C147.419 169.956 145.325 173.032 142.263 175.479C142.648 175.686 143.127 175.745 143.608 175.645C144.088 175.547 144.54 175.297 144.875 174.944C147.013 172.927 149.172 170.92 151.356 168.921L151.341 168.928ZM94.6341 189.743C95.313 189.432 95.9781 189.09 96.6254 188.718C98.8613 187.558 101.207 186.632 103.611 185.962C106.034 185.152 108.506 184.555 110.988 184.178C113.506 183.89 116.076 183.666 118.501 183.516C123.201 183.324 127.882 183.341 132.6 183.11C137.85 182.866 143.152 181.76 148.245 179.848C150.846 178.86 153.534 178.224 156.135 177.312C159.423 176.23 162.666 175.064 165.948 173.97C171.03 172.174 176.313 171.288 181.472 171.366C181.824 171.329 182.176 171.26 182.524 171.159C180.691 169.794 178.46 168.883 176.006 168.502C172.694 168.177 169.311 168.072 165.949 167.971C162.586 167.871 159.33 167.868 156.025 167.845C155.311 167.825 154.588 167.866 153.863 167.966C153.476 168.033 153.109 168.222 152.831 168.498C150.92 170.61 149.091 172.774 147.144 174.921C147.453 175.012 147.803 175.005 148.141 174.9C148.478 174.795 148.785 174.598 149.015 174.339C150.079 173.333 151.21 172.354 152.34 171.405C152.866 171.072 153.422 170.786 153.998 170.552C153.616 172.275 151.816 172.851 151.561 174.356L156.668 173.558C156.363 174.646 155.425 174.717 154.871 174.819C152.96 175.253 151.05 175.58 149.147 175.919C146.789 176.34 144.406 176.604 142.072 177.18C138.47 178.021 134.838 178.551 131.227 178.764C125.953 179.237 120.831 180.256 115.62 181.137C113.596 181.493 111.596 182.217 109.562 182.73C108.269 183.075 106.964 183.365 105.663 183.73C105.017 183.903 104.386 184.136 103.777 184.426C102.444 185.204 101.07 185.911 99.6625 186.544C97.1178 187.492 94.7357 188.864 92.6549 190.579C93.3134 190.286 93.9906 190.029 94.6477 189.736L94.6341 189.743ZM104.476 179.425C106.009 178.438 107.473 177.349 109.02 176.354C111.411 174.818 113.826 173.33 116.223 171.806C116.732 171.482 117.221 171.128 117.684 170.749C120.5 168.615 123.71 166.988 127.093 165.981C126.916 166.249 126.693 166.493 126.434 166.702C124.62 167.788 122.797 168.819 120.965 169.868C120.296 170.213 119.627 170.557 119.016 170.979C114.953 173.804 110.798 176.736 106.658 179.555C105.57 180.298 104.423 180.965 103.295 181.667C102.452 182.101 101.608 182.536 100.823 183.047L101.034 183.457C101.496 183.295 101.93 183.054 102.311 182.751C102.691 182.447 103.012 182.086 103.251 181.69L103.353 181.637C103.548 181.659 103.786 181.765 103.912 181.685C108.393 178.996 112.824 176.242 117.338 173.613C119.976 172.057 122.738 170.741 125.407 169.246C127.829 167.876 130.195 166.399 132.6 164.962C134.011 164.129 135.249 163.355 136.599 162.583C138.84 161.292 141.127 160.054 143.353 158.769C143.797 158.489 144.144 158.095 144.34 157.651C142.561 158.124 140.783 158.566 139.002 159.071C134.737 160.291 130.473 161.509 126.21 162.803C123.253 163.586 120.485 165.101 118.247 167.162C116.195 169.18 113.571 170.333 111.186 171.881C110.59 172.187 110.05 172.604 109.503 173.007C107.144 174.71 104.777 176.402 102.463 178.158C101.006 179.258 99.6409 180.465 98.1271 181.703C96.8154 181.05 95.9112 181.973 95.1075 182.982C93.5477 184.991 92.0281 187.041 90.2964 189.321C92.2622 188.551 94.0445 187.354 95.4627 185.852C96.7164 184.561 98.1243 183.396 99.6532 182.382C101.178 181.307 102.9 180.436 104.491 179.418L104.476 179.425ZM121.492 201.33C121.018 201.353 120.541 201.455 120.082 201.628C118.116 202.842 116.402 204.386 115.055 206.154C117.682 205.183 119.24 202.993 121.605 201.729L121.492 201.33ZM122.626 202.104C121.099 203.424 119.599 204.762 118.098 206.099C117.909 206.196 117.909 206.517 117.753 206.857C118.141 206.825 118.453 206.893 118.6 206.787C120.783 205.205 122.931 203.626 125.279 201.899C124.306 201.437 123.491 201.353 122.67 202.082L122.626 202.104ZM83.0843 215.181C87.5637 215.165 92.1437 214.593 96.6913 214.281C97.6746 214.128 98.6587 214.034 99.6369 214.001C104.022 214.231 108.416 212.977 112.811 212.331C116.613 211.836 120.406 211.657 124.14 211.795C127.41 211.79 130.617 211.91 133.903 211.897C135.054 211.854 136.214 211.716 137.37 211.486C139.862 211.042 142.352 210.447 144.847 210.079C147.503 209.452 150.081 208.404 152.452 206.987C144.272 203.567 135.354 203.106 126.811 201.873L120.776 207.085C122.158 206.648 123.446 205.918 124.52 204.96C125.635 204.233 126.744 203.495 127.934 202.699C128.452 203.241 128.218 203.606 127.634 204.044C126.449 204.884 125.337 205.809 124.311 206.807C125.68 206.517 126.966 205.823 127.952 204.842C128.464 204.334 128.946 203.948 129.765 204.503C128.859 205.351 128.022 206.118 126.824 207.223C129.357 207.354 131.36 207.422 133.506 207.553C133.419 208.315 132.678 208.59 131.892 208.598C130.663 208.605 129.466 208.458 128.241 208.402C126.512 208.33 124.76 208.286 123.032 208.214C121.302 208.143 119.69 208.118 118.067 207.931C116.444 207.744 114.392 207.259 112.518 207.049C111.57 206.945 110.585 206.987 109.604 207.175C105.984 207.787 102.365 208.475 98.7609 209.156C96.1948 209.545 93.6513 210.278 91.2177 211.33C89.3319 212.057 87.3645 212.485 85.4124 212.594C81.9393 212.993 78.3114 213.303 74.7618 213.589C73.3852 213.569 71.9774 213.778 70.6078 214.201C74.9887 214.602 78.9773 215.205 83.1282 215.158L83.0843 215.181ZM25.5434 231.663C25.1071 232.064 24.8194 232.57 24.729 233.093C24.6385 233.616 24.7527 234.123 25.0505 234.527C25.1963 234.666 25.3799 234.769 25.5873 234.83C25.7958 234.89 26.0227 234.907 26.2531 234.879C26.4834 234.85 26.7121 234.777 26.9227 234.665C27.1333 234.552 27.32 234.403 27.4709 234.227C27.8437 233.841 28.0617 233.365 28.0827 232.891C28.1045 232.417 27.9274 231.979 27.5859 231.665C26.9376 231.083 26.1656 231.084 25.5873 231.64L25.5434 231.663ZM44.3092 221.208C41.4951 223.1 38.6903 225.048 35.7808 226.79C33.6386 228.061 31.3463 229.073 28.9825 230.198L29.9201 232.768C30.3758 232.603 30.8216 232.404 31.2516 232.174C32.9938 231.093 34.6847 229.949 36.4269 228.868C40.4109 226.39 44.395 223.911 48.4103 221.493C49.3183 220.934 50.4373 220.679 51.3861 220.129C53.1755 219.101 54.9014 217.953 56.6857 216.882C57.2443 216.522 57.8543 216.245 58.4876 216.061C59.7735 215.735 61.1054 215.537 62.3954 215.255C63.9755 215.03 65.5383 214.536 66.9988 213.8C67.9766 213.323 69.0159 212.995 70.0676 212.832C71.578 212.487 73.0959 212.215 74.614 212.017C76.5671 211.774 78.5127 211.658 80.474 211.503L86.2359 211.085L90.411 207.226C91.1188 208.388 89.5598 208.932 89.3556 209.785C91.0653 209.821 91.2192 209.832 93.1732 207.911C94.1516 206.919 95.6409 206.168 95.9376 204.564L97.4174 204.474C97.4835 206.318 95.1062 206.809 94.5769 208.425C94.9091 208.469 95.2607 208.434 95.5995 208.324C95.9383 208.214 96.2533 208.032 96.5146 207.793C97.6761 206.692 98.7632 205.552 99.9492 204.498C100.257 204.187 100.642 203.947 101.063 203.803C101.71 203.643 102.363 203.526 103.017 203.454C101.63 204.763 100.244 206.071 98.8522 207.369L99.1999 207.723C101.978 207.652 102.989 205.223 104.78 203.736C105.38 203.687 105.554 204.025 105.263 204.495C104.683 205.404 103.992 206.279 103.107 207.452C105.615 207.001 107.886 206.518 110.283 206.138C111.258 204.476 112.817 203.094 114.679 202.242C115.794 203.195 113.942 203.598 113.952 204.403C115.478 203.761 116.859 202.809 117.969 201.632C116.908 200.927 115.649 201.377 114.584 201.558C111.242 202.19 107.891 202.583 104.559 202.736C104.113 202.811 103.669 202.932 103.237 203.096C101.688 202.678 99.9616 202.711 98.2823 203.189C96.7848 203.516 95.2956 203.915 93.8222 204.387L88.4599 205.865C83.7529 206.762 79.0614 207.651 74.3963 208.771C72.6537 209.325 70.9562 210.04 69.3329 210.905C66.1557 212.447 62.8502 213.693 59.4757 214.621C58.8407 214.78 58.1472 214.648 57.5434 214.868C55.8221 215.525 53.7546 215.582 52.3647 216.526C49.8141 218.253 46.925 219.465 44.3531 221.186L44.3092 221.208ZM65.7433 200.573C64.2016 203.366 62.5233 206.107 60.8282 208.888C60.4406 209.53 59.9502 210.149 59.2833 211.103C59.7064 210.941 60.1124 210.732 60.4897 210.482C62.8451 208.563 64.8024 206.282 66.237 203.783C67.0763 202.32 68.0206 200.895 69.0632 199.52C72.0045 194.758 74.6189 189.873 76.892 184.896C76.9974 184.67 77.0885 184.44 77.1623 184.208L76.8912 183.966C76.5335 184.205 76.1949 184.466 75.877 184.748C74.5572 186.221 73.2127 187.646 71.9716 189.2C71.565 189.698 71.2211 190.228 70.9467 190.782C69.2115 194.056 67.5609 197.317 65.7862 200.551L65.7433 200.573ZM67.8716 191.205C67.5303 192.525 67.2917 193.851 67.1571 195.174L67.603 195.219C67.8007 194.675 68.0463 194.152 68.2095 193.61C68.3717 193.068 68.2479 192.72 68.4803 192.387C72.0357 187.504 73.7196 182.058 76.0132 176.832C77.1082 174.314 77.8506 171.72 78.9076 169.236C79.965 166.754 81.1037 164.321 82.2149 161.871C82.7082 160.793 83.1891 159.691 83.7512 158.639C84.0787 158.15 84.4553 157.686 84.8755 157.25C85.322 156.823 85.6951 156.342 85.9816 155.826C86.7645 154.074 87.8431 152.405 89.1756 150.885C90.0128 149.523 90.749 148.124 91.3794 146.698C91.968 145.573 92.6542 144.479 93.4292 143.429C93.958 142.896 94.6347 142.5 95.3657 142.295C97.6432 138.813 99.9066 135.338 102.156 131.87L101.836 131.714C100.462 133.368 99.0886 135.022 97.7347 136.68L88.6944 147.699C86.6593 150.271 84.9172 152.996 83.4977 155.823C80.8178 160.942 78.1255 166.037 75.5556 171.191C72.5111 177.756 69.9586 184.436 67.9154 191.182L67.8716 191.205ZM65.758 122.081C66.0091 121.856 66.2416 121.614 66.4524 121.358C67.4777 119.777 68.5709 118.115 69.7172 116.518C70.4676 115.475 71.3824 114.501 72.2225 113.488L73.8084 111.496C74.0695 111.106 74.3526 110.725 74.656 110.358C79.8332 104.732 84.4464 98.7232 90.1401 93.4569C91.2903 92.2575 92.3655 91.0057 93.3606 89.7083C95.6471 87.0048 97.8975 84.5183 100.101 81.9025C100.934 80.9082 101.618 79.8314 102.133 78.7045L101.57 78.3991C101.211 78.7366 100.833 79.0385 100.515 79.3852C98.5948 81.5851 96.6647 83.7892 94.7239 85.9988C93.5808 87.3509 92.359 88.8347 91.095 90.2031C89.5286 91.9102 87.8195 93.522 86.3169 95.2116C84.2634 97.4752 82.2844 99.776 80.3264 102.081C77.6906 105.178 75.2086 108.394 72.4596 111.413C69.8438 114.309 67.641 117.462 65.9156 120.78C65.7986 120.99 65.7287 121.213 65.7105 121.436C65.6918 121.659 65.7244 121.875 65.8081 122.071L65.758 122.081ZM89.4659 206.034L88.4903 205.819C88.3096 206.004 88.1347 206.2 87.6361 206.732C88.5151 206.508 88.9779 206.407 89.4495 206.287L89.4659 206.034Z" fill="#101A24"/>
</g>
</svg>
