<svg width="29" height="25" viewBox="0 0 29 25" fill="none" xmlns="http://www.w3.org/2000/svg">
<path d="M14.7878 23.918C14.599 24.1071 14.3683 24.2017 14.0956 24.2017C13.8229 24.2017 13.5922 24.1071 13.4034 23.918L3.58682 14.4328C3.48195 14.3487 3.33774 14.2122 3.1542 14.0231C2.97067 13.834 2.67963 13.49 2.28109 12.9911C1.88256 12.4921 1.52597 11.98 1.21134 11.4548C0.896706 10.9296 0.616158 10.2941 0.369695 9.5483C0.123232 8.8025 0 8.07771 0 7.37393C0 5.06301 0.665975 3.25628 1.99792 1.95376C3.32987 0.651241 5.17048 -1.90735e-05 7.51974 -1.90735e-05C8.16999 -1.90735e-05 8.83334 0.112902 9.5098 0.338741C10.1863 0.564581 10.8155 0.869204 11.3976 1.25261C11.9797 1.63601 12.4805 1.99578 12.9 2.33191C13.3195 2.66805 13.718 3.02519 14.0956 3.40334C14.4731 3.02519 14.8717 2.66805 15.2912 2.33191C15.7107 1.99578 16.2115 1.63601 16.7936 1.25261C17.3756 0.869204 18.0049 0.564581 18.6814 0.338741C19.3578 0.112902 20.0212 -1.90735e-05 20.6714 -1.90735e-05C23.0207 -1.90735e-05 24.8613 0.651241 26.1933 1.95376C27.5252 3.25628 28.1912 5.06301 28.1912 7.37393C28.1912 9.69536 26.9903 12.0588 24.5886 14.4643L14.7878 23.918Z" fill="#FF611D"/>
</svg>
