<svg width="32" height="32" viewBox="0 0 32 32" fill="none" xmlns="http://www.w3.org/2000/svg">
<path fill-rule="evenodd" clip-rule="evenodd" d="M19.9997 28C19.9997 29.0609 19.5783 30.0783 18.8281 30.8284C18.078 31.5786 17.0606 32 15.9997 32C14.9388 32 13.9214 31.5786 13.1713 30.8284C12.4211 30.0783 11.9997 29.0609 11.9997 28C11.9997 26.9391 12.4211 25.9217 13.1713 25.1716C13.9214 24.4214 14.9388 24 15.9997 24C17.0606 24 18.078 24.4214 18.8281 25.1716C19.5783 25.9217 19.9997 26.9391 19.9997 28ZM23.5597 10.318C23.2784 10.0371 22.8972 9.87932 22.4997 9.87932C22.1022 9.87932 21.7209 10.0371 21.4397 10.318L17.4997 14.258V1.5C17.4997 1.10218 17.3417 0.720644 17.0604 0.43934C16.779 0.158035 16.3975 0 15.9997 0C15.6019 0 15.2203 0.158035 14.939 0.43934C14.6577 0.720644 14.4997 1.10218 14.4997 1.5V14.258L10.5597 10.318C10.2753 10.053 9.89925 9.90879 9.51065 9.91565C9.12205 9.92251 8.75128 10.0799 8.47645 10.3548C8.20162 10.6296 8.0442 11.0004 8.03734 11.389C8.03049 11.7776 8.17473 12.1537 8.43969 12.438L14.9397 18.938L15.9997 20L17.0597 18.94L23.5597 12.44C23.6991 12.3007 23.8097 12.1353 23.8851 11.9532C23.9605 11.7712 23.9994 11.5761 23.9994 11.379C23.9994 11.1819 23.9605 10.9868 23.8851 10.8048C23.8097 10.6227 23.6991 10.4573 23.5597 10.318Z" fill="currentColor"/>
</svg>
