<svg width="32" height="27" viewBox="0 0 32 27" fill="none" xmlns="http://www.w3.org/2000/svg">
<path d="M27.619 3.06356C27.7497 3.07559 27.8368 3.08361 27.9675 3.09564C30.1894 3.30017 31.5505 4.87368 31.1743 6.8578C30.7981 8.84192 28.8979 10.0714 26.6701 9.60298C24.8717 9.21802 23.1906 9.54602 21.5648 10.4057C18.1138 12.2824 16.8328 15.9386 18.5588 19.2573C19.3224 20.688 20.3727 21.9696 21.2361 23.3218C21.4162 23.6017 21.5276 24.0508 21.4401 24.3499C21.3714 24.5192 20.867 24.6483 20.5495 24.7068C17.4864 25.127 15.5154 23.4974 13.9809 21.2935C10.8499 16.7045 12.1472 10.1972 16.8583 6.32999C20.0178 3.72435 23.6728 2.87587 27.619 3.06356Z" fill="#FF611D"/>
<path d="M1.51088 12.5862C1.72793 11.3387 2.35446 9.75339 3.53193 8.59431C4.29992 7.77308 5.17183 7.47779 6.02948 8.02617C6.8227 8.52167 6.97285 9.47436 6.85383 10.5431C6.60235 12.7732 7.05165 14.6453 7.84126 16.408C8.30482 17.4365 8.7261 18.508 9.02722 19.6623C9.32834 20.8167 9.1603 21.9748 8.33658 22.9317C7.51286 23.8886 6.67259 23.7174 5.83035 23.3113C2.91039 21.822 0.858924 17.0797 1.51088 12.5862Z" fill="#FF611D"/>
</svg>
