<svg width="15" height="15" viewBox="0 0 15 15" fill="none" xmlns="http://www.w3.org/2000/svg">
<path d="M7.4934 0C7.74873 0.0589519 8.00992 0.0987737 8.25783 0.179979C9.7324 0.663307 10.7053 2.11797 10.5933 3.65658C10.4781 5.23852 9.31818 6.53234 7.77489 6.80133C5.86617 7.13396 4.09176 5.86669 3.78021 3.94783C3.47335 2.06097 4.84838 0.24791 6.7524 0.0265479C6.7852 0.0226438 6.81682 0.00897943 6.84884 0C7.06356 0 7.27868 0 7.4934 0Z" fill="#C4C4C4"/>
<path d="M7.16959 15.001C4.91888 15.001 2.66817 15.001 0.417843 15.001C0.101611 15.001 -0.0038001 14.8936 0.000104003 14.5786C0.0375834 11.7013 1.85182 9.07771 4.52964 8.02751C8.42398 6.50022 12.7435 8.55963 14.0131 12.5504C14.2247 13.2149 14.3274 13.8981 14.3403 14.5946C14.3457 14.889 14.2329 15.0006 13.9362 15.0006C11.6808 15.001 9.42538 15.001 7.16959 15.001Z" fill="#C4C4C4"/>
</svg>
