<svg width="14" height="14" viewBox="0 0 14 14" fill="none" xmlns="http://www.w3.org/2000/svg">
<path d="M13.9074 11.1731C13.8168 11.3167 13.7279 11.4637 13.6155 11.5908C12.8137 12.4974 11.8873 13.2543 10.8388 13.8617C10.7159 13.9321 10.5739 13.9695 10.4972 14C9.81914 13.9382 9.23348 13.7834 8.66089 13.5728C7.29958 13.0708 6.09165 12.3086 4.9735 11.3959C3.40476 10.1151 2.09487 8.61423 1.10483 6.84449C0.592373 5.92743 0.207162 4.96251 0.0258861 3.92103C-0.0290195 3.60519 -0.0037455 3.32329 0.17143 3.04486C0.815482 2.02339 1.55714 1.08632 2.48793 0.30673C2.54719 0.257136 2.6143 0.215372 2.67792 0.170998C3.04395 -0.0891548 3.33853 -0.0413006 3.71764 0.238864C3.78649 0.290199 3.84837 0.357195 3.89804 0.427671C4.50375 1.28557 5.08941 2.15564 5.54434 3.10577C5.63846 3.30153 5.70906 3.50948 5.77529 3.71743C5.85547 3.96714 5.80492 4.20642 5.63411 4.40044C5.46852 4.58925 5.27766 4.75717 5.09289 4.92945C4.96827 5.04517 4.83928 5.15741 4.7042 5.26008C4.60833 5.33229 4.58741 5.40103 4.63186 5.51762C5.33953 7.3587 6.61282 8.63424 8.45521 9.34596C8.57548 9.39207 8.65043 9.38685 8.73933 9.27809C8.94936 9.01707 9.17422 8.76736 9.39907 8.51852C9.69974 8.18528 10.0649 8.08174 10.4789 8.27316C10.9321 8.48371 11.3887 8.69253 11.8175 8.94659C12.3901 9.28505 12.9383 9.66528 13.4952 10.0298C13.7131 10.1725 13.8691 10.3648 13.9545 10.6145C14.0233 10.8112 14.019 10.9974 13.9074 11.1731Z" fill="#C4C4C4"/>
</svg>
